<?xml version="1.0" encoding="utf-8"?>
<!-- Generator: Adobe Illustrator 24.2.3, SVG Export Plug-In . SVG Version: 6.00 Build 0)  -->
<svg version="1.1" xmlns="http://www.w3.org/2000/svg" xmlns:xlink="http://www.w3.org/1999/xlink" x="0px" y="0px"
	 viewBox="0 0 122.2 128.4" style="enable-background:new 0 0 122.2 128.4;" xml:space="preserve">
<style type="text/css">
	.st0{fill:#FAA71A;}
</style>
<g id="Layer_2">
	<g>
		<path class="st0" d="M82.2,2.4c13.5-4.7,25.1-2.4,33.9,8.7c7.4,9.4,7.9,20,2.4,30.6c-3.3,6.5-8.8,10.8-15.7,13.1
			c-6.9,2.3-13.7,1.7-20.9-1.1c0,4,0,7.5,0,11c0,4.1-1.6,7.5-4.5,10.3c-2.4,2.3-5.4,3.6-8.7,3.8c-3.1,0.2-6.3,0-9.4,0.1
			c-1.3,0-1.9-0.5-1.9-1.8c0-4.2-0.1-8.4,0.1-12.5c0-0.6,1-1.3,1.7-1.6c0.6-0.3,1.4-0.1,2.1-0.1c4.1,0,4.7-0.6,4.7-4.8
			c0-18.3,0-36.5,0-54.8C66,0.1,66,0,69.2,0c3.3,0,6.6,0.1,9.9,0C80.8-0.1,82.1,0.2,82.2,2.4z M105.8,28.3c0-6.7-5.2-12.1-11.8-12.2
			c-6.4-0.1-12.1,5.5-12.1,11.9c-0.1,6.6,5.3,12,11.9,12C100.6,40.1,105.8,35,105.8,28.3z"/>
		<path class="st0" d="M27.8,56.2C12.3,56.2,0,43.7,0,28.1C0,12.6,12.7,0,28.1,0c15.4,0.1,28.1,12.8,28.1,28.2
			C56.2,43.7,43.5,56.3,27.8,56.2z M28,40.1c6.6,0,12-5.4,12-11.9c0-6.5-5.5-12-11.9-12.1c-6.6-0.1-12,5.4-12,12.1
			C16.1,34.9,21.4,40.1,28,40.1z"/>
		<path class="st0" d="M103.5,111.5c-8.5,8.2-18.1,13.5-29.4,15.7c-32,6.2-61.6-12.9-69-44.6c-0.8-3.3-0.9-6.7-1.3-10
			c-0.2-1.8,0.4-2.6,2.4-2.6c3.6,0.1,7.2,0.1,10.9,0c2.2-0.1,2.8,0.9,2.9,2.8c0.3,6.9,2.4,13.3,6.1,19.1c8.3,13.1,20.3,20,35.7,20.4
			c10.7,0.3,20.2-3.3,28.3-10.4c1.6-1.4,2.6-1.5,4.1,0.1C97,105.3,100.2,108.3,103.5,111.5z"/>
	</g>
</g>
<g id="Regmark">
</g>
</svg>
