<?xml version="1.0" encoding="utf-8"?>
<!-- Generator: Adobe Illustrator 24.2.3, SVG Export Plug-In . SVG Version: 6.00 Build 0)  -->
<svg version="1.1" id="Layer_1" xmlns="http://www.w3.org/2000/svg" xmlns:xlink="http://www.w3.org/1999/xlink" x="0px" y="0px"
	 viewBox="0 0 28.3 28.3" style="enable-background:new 0 0 28.3 28.3;" xml:space="preserve">
<style type="text/css">
	.st0{fill:url(#SVGID_1_);}
	.st1{fill:url(#SVGID_2_);}
</style>
<g>
	
		<linearGradient id="SVGID_1_" gradientUnits="userSpaceOnUse" x1="14.1732" y1="28.1729" x2="14.1732" y2="-4.688643e-02" gradientTransform="matrix(1 0 0 -1 0 28.2362)">
		<stop  offset="0" style="stop-color:#E20613"/>
		<stop  offset="1" style="stop-color:#FFA000"/>
	</linearGradient>
	<path class="st0" d="M1.8,7.6c0.9,0.5,1.7,0.9,2.5,1.3c3.2,1.6,6.3,3.3,9.5,4.9c0.2,0.1,0.5,0.1,0.7,0c3.9-2,7.8-4,11.7-6.1
		c0.1,0,0.2-0.1,0.3-0.2c-0.2-0.1-0.3-0.2-0.5-0.3c-1-0.5-2-1-3-1.6c-0.3-0.2-0.5-0.4-0.3-0.8c0.2-0.3,0.5-0.3,0.8-0.2
		c1.5,0.8,2.9,1.5,4.4,2.3c0.6,0.3,0.5,0.8-0.1,1.1c-1.5,0.8-3.1,1.6-4.6,2.4c-0.2,0.1-0.3,0.2-0.5,0.3c1.6,0.8,3.2,1.6,4.7,2.5
		c0.4,0.2,0.9,0.3,0.9,0.8c0,0.5-0.5,0.6-0.9,0.8c-1.5,0.8-3.1,1.6-4.7,2.5c0.2,0.1,0.4,0.2,0.5,0.3c1.5,0.8,3,1.5,4.5,2.4
		c0.2,0.1,0.5,0.4,0.5,0.6c0,0.2-0.3,0.5-0.5,0.6c-4.4,2.3-8.7,4.6-13.1,6.8c-0.4,0.2-0.7,0.2-1,0c-4.3-2.3-8.7-4.5-13.1-6.8
		c-0.2-0.1-0.6-0.4-0.5-0.6c0-0.2,0.3-0.5,0.6-0.7c1.5-0.8,3-1.6,4.4-2.3c0.2-0.1,0.3-0.2,0.6-0.3c-0.2-0.1-0.4-0.2-0.5-0.3
		c-1.5-0.8-3-1.5-4.5-2.4c-0.2-0.1-0.5-0.4-0.5-0.7c0-0.2,0.3-0.5,0.5-0.6c1.5-0.8,3-1.6,4.5-2.4c0.2-0.1,0.3-0.2,0.5-0.3
		c-1.5-0.8-3-1.6-4.5-2.4C0.9,8.4,0.6,8.3,0.4,8.2c-0.6-0.3-0.6-0.8,0-1.1c0.7-0.4,1.3-0.7,2-1.1c3.7-1.9,7.4-3.9,11.2-5.8
		C14,0,14.3,0,14.8,0.2c1.3,0.7,2.7,1.4,4.1,2.1c0.3,0.2,0.5,0.3,0.5,0.7c-0.1,0.4-0.5,0.5-0.9,0.3c-1.3-0.7-2.5-1.3-3.8-2
		c-0.2-0.1-0.5-0.1-0.7,0c-3.9,2-7.8,4-11.7,6.1C2,7.5,2,7.5,1.8,7.6z M1.8,20.7C2,20.8,2.2,20.9,2.4,21c3.8,2,7.6,3.9,11.4,5.9
		c0.4,0.2,0.6,0.2,1,0c3.8-2,7.6-3.9,11.4-5.9c0.2-0.1,0.3-0.2,0.5-0.3c-0.2-0.1-0.3-0.2-0.5-0.3c-1.4-0.7-2.7-1.4-4.1-2.1
		c-0.3-0.2-0.6-0.2-0.9,0c-2.1,1.1-4.1,2.1-6.2,3.3c-0.5,0.3-0.9,0.2-1.3,0c-2.1-1.1-4.2-2.2-6.3-3.3c-0.2-0.1-0.5-0.2-0.6-0.1
		C5,19,3.5,19.8,1.8,20.7z M26.6,14.1c-0.7-0.3-1.2-0.6-1.8-0.9c-0.3-0.2-0.6-0.2-0.9,0c-3.8,2-7.6,4-11.4,6
		c-0.1,0.1-0.3,0.2-0.5,0.3c0.6,0.3,1.2,0.6,1.8,0.9c0.3,0.2,0.5,0.1,0.8,0c2.5-1.3,5-2.6,7.5-3.9C23.5,15.7,25,15,26.6,14.1z
		 M23.1,12.3c-0.4-0.2-0.8-0.4-1.1-0.6c-0.4-0.2-0.7-0.2-1.1,0c-2,1.1-3.9,2.1-5.9,3.1c-0.4,0.2-0.8,0.6-1.4,0.2c0,0-0.1,0-0.2,0
		c-1.6,0.8-3.2,1.7-4.9,2.6c0.7,0.3,1.2,0.6,1.8,0.9c0.3,0.2,0.5,0.2,0.9,0c3.8-2,7.6-3.9,11.3-5.9C22.7,12.6,22.9,12.5,23.1,12.3z
		 M12.4,14.4c-0.7-0.3-1.3-0.6-1.8-1c-0.3-0.2-0.5-0.1-0.8,0c-1.4,0.8-2.8,1.5-4.2,2.2c-0.1,0.1-0.2,0.1-0.4,0.3
		c0.7,0.4,1.3,0.7,1.9,1c0.1,0.1,0.3,0.1,0.4,0C9.2,16.1,10.8,15.3,12.4,14.4z M9,12.7c-0.7-0.3-1.2-0.6-1.8-1
		c-0.3-0.2-0.5-0.1-0.8,0c-1.4,0.8-2.8,1.5-4.2,2.2C2.1,14,2,14.1,1.8,14.2c0.7,0.4,1.3,0.7,2,1c0.1,0,0.3,0.1,0.4,0
		C5.8,14.4,7.4,13.5,9,12.7z"/>
	
		<linearGradient id="SVGID_2_" gradientUnits="userSpaceOnUse" x1="21.0243" y1="24.666" x2="21.0243" y2="23.6206" gradientTransform="matrix(1 0 0 -1 0 28.2362)">
		<stop  offset="0" style="stop-color:#E20613"/>
		<stop  offset="1" style="stop-color:#FFA000"/>
	</linearGradient>
	<path class="st1" d="M21.6,4.2c-0.2,0.1-0.4,0.4-0.6,0.4c-0.3,0-0.6-0.2-0.5-0.5c0-0.2,0.3-0.5,0.5-0.5c0.2,0,0.4,0.3,0.6,0.4
		C21.6,4,21.6,4.1,21.6,4.2z"/>
</g>
</svg>
