<?xml version="1.0" encoding="utf-8"?>
<!-- Generator: Adobe Illustrator 24.2.3, SVG Export Plug-In . SVG Version: 6.00 Build 0)  -->
<svg version="1.1" id="Layer_1" xmlns="http://www.w3.org/2000/svg" xmlns:xlink="http://www.w3.org/1999/xlink" x="0px" y="0px"
	 viewBox="0 0 56.7 56.7" style="enable-background:new 0 0 56.7 56.7;" xml:space="preserve">
<style type="text/css">
	.st0{fill:url(#SVGID_1_);}
</style>
<linearGradient id="SVGID_1_" gradientUnits="userSpaceOnUse" x1="28.3465" y1="52.2362" x2="28.3465" y2="4.2362" gradientTransform="matrix(1 0 0 -1 0 56.5827)">
	<stop  offset="0" style="stop-color:#E20613"/>
	<stop  offset="1" style="stop-color:#FFA000"/>
</linearGradient>
<path class="st0" d="M46.1,20c1.7,0.7,3.3,1.4,4.9,2c0.8,0.3,1.5,0.6,2.2,1c0.5,0.3,1.1,0.7,1.1,1.2c0,0.4-0.6,0.9-1.1,1.2
	c-2,0.9-4,1.7-6,2.6c-0.3,0.1-0.6,0.3-1.1,0.5c2.4,1,4.6,1.9,6.8,2.9c0.2,0.1,0.5,0.1,0.7,0.3c0.3,0.3,0.8,0.7,0.8,1
	c0,0.4-0.4,0.9-0.8,1.1c-2.1,1-4.3,1.8-6.5,2.8c-0.2,0.1-0.5,0.2-0.9,0.4c2,0.8,3.9,1.6,5.7,2.4c0.5,0.2,1.1,0.4,1.6,0.7
	c0.4,0.3,0.9,0.7,0.9,1.1c0,0.4-0.5,0.9-0.9,1.1c-3.5,1.6-7.1,3-10.7,4.5c-4.5,1.9-8.9,3.7-13.4,5.6c-0.7,0.3-1.2,0.3-1.9,0
	c-7.9-3.4-15.9-6.7-23.8-10c-0.6-0.3-1.4-0.5-1.2-1.2c0.1-0.5,0.7-1,1.2-1.2c2.2-1,4.5-1.9,6.9-2.9c-0.3-0.2-0.5-0.3-0.7-0.4
	c-2.1-0.9-4.2-1.7-6.3-2.7c-0.5-0.2-1-0.7-1.1-1.2c0-0.3,0.6-0.9,1.1-1.1c2.3-1,4.6-2,7.1-3c-0.4-0.2-0.7-0.4-0.9-0.5
	c-2.1-0.9-4.2-1.7-6.2-2.6c-0.4-0.2-1-0.7-1-1.1c0-0.4,0.6-0.9,1-1.1c2-0.9,4.1-1.7,6.1-2.6c0.3-0.1,0.6-0.3,1.1-0.5
	c-2.2-0.9-4.3-1.8-6.4-2.7c-0.3-0.1-0.7-0.2-0.9-0.4c-0.4-0.3-1-0.7-1-1.1c0-0.4,0.6-0.9,1-1.1c1-0.5,2-0.9,3.1-1.3
	c6.9-2.9,13.8-5.8,20.7-8.7c0.7-0.3,1.4-0.3,2.1,0c7.9,3.3,15.8,6.6,23.6,9.9c0.1,0.1,0.3,0.1,0.4,0.2c0.3,0.4,0.9,0.7,0.9,1.1
	c0,0.4-0.5,0.9-0.9,1.1c-2,0.9-4.1,1.7-6.1,2.6C46.9,19.6,46.6,19.7,46.1,20z M50.5,15.8c-0.3-0.1-0.4-0.2-0.5-0.3
	c-7-2.9-14-5.9-21-8.8c-0.4-0.2-0.9-0.1-1.3,0.1c-5.1,2.1-10.1,4.2-15.2,6.3c-2.1,0.9-4.1,1.7-6.3,2.6c0.2,0.1,0.2,0.2,0.3,0.2
	c7.1,3,14.3,6,21.4,9c0.3,0.1,0.7,0.1,0.9,0C36,21.9,43.2,18.9,50.5,15.8z M50.6,40.9c-2.2-0.9-4.3-1.9-6.5-2.7
	c-0.5-0.2-1.1-0.2-1.6,0c-4.4,1.8-8.7,3.6-13,5.4c-0.8,0.4-1.5,0.4-2.3,0c-4.3-1.8-8.7-3.7-13-5.4c-0.4-0.2-1.1-0.2-1.6,0
	c-1.9,0.7-3.7,1.5-5.5,2.3c-0.3,0.1-0.5,0.3-0.9,0.5C13.5,44,20.7,47,27.9,50c0.3,0.1,0.8,0,1.1-0.1c2.6-1,5.2-2.1,7.7-3.2
	C41.3,44.8,45.9,42.9,50.6,40.9z M50.6,24.1c-2.3-1-4.3-1.8-6.3-2.7c-0.6-0.3-1.2-0.3-1.8,0c-4.2,1.8-8.5,3.6-12.7,5.4
	c-0.9,0.4-1.7,0.4-2.7,0c-3.1-1.3-6.1-2.6-9.2-3.9c-1.5-0.6-2.9-1.7-4.4-1.7c-1.5,0-3,1-4.5,1.6c-0.9,0.4-1.8,0.7-2.8,1.2
	c0.3,0.2,0.5,0.3,0.6,0.3c7,2.9,13.9,5.9,21,8.8c0.4,0.2,1,0.1,1.4-0.1c4.9-2,9.9-4.1,14.8-6.2C46.1,26,48.2,25.1,50.6,24.1z
	 M6.2,32.5c0.3,0.2,0.5,0.3,0.7,0.4c6.9,2.9,13.9,5.8,20.8,8.7c0.4,0.2,0.9,0.1,1.3,0c4.9-2,9.8-4.1,14.7-6.1
	c2.2-0.9,4.5-1.9,6.8-2.9c-2.4-1-4.6-2-6.8-2.8c-0.3-0.1-0.8,0-1.1,0.1c-4.4,1.8-8.8,3.6-13.1,5.5c-0.8,0.4-1.5,0.4-2.3,0
	c-4.4-1.9-8.7-3.7-13.1-5.5c-0.3-0.1-0.8-0.3-1.1-0.1C10.7,30.6,8.5,31.5,6.2,32.5z"/>
</svg>
