<?xml version="1.0" encoding="utf-8"?>
<!-- Generator: Adobe Illustrator 24.2.3, SVG Export Plug-In . SVG Version: 6.00 Build 0)  -->
<svg version="1.1" id="Layer_1" xmlns="http://www.w3.org/2000/svg" xmlns:xlink="http://www.w3.org/1999/xlink" x="0px" y="0px"
	 viewBox="0 0 56.7 56.7" style="enable-background:new 0 0 56.7 56.7;" xml:space="preserve">
<style type="text/css">
	.st0{fill:url(#SVGID_1_);}
</style>
<linearGradient id="SVGID_1_" gradientUnits="userSpaceOnUse" x1="28.0654" y1="45.4772" x2="28.0654" y2="11.012" gradientTransform="matrix(1 0 0 -1 0 56.5827)">
	<stop  offset="0" style="stop-color:#E20613"/>
	<stop  offset="1" style="stop-color:#FFA000"/>
</linearGradient>
<path class="st0" d="M21.2,20.5c1.3-2.2,2.5-4.3,3.7-6.3c0.3-0.5,0.5-0.9,0.8-1.4c1.3-2.2,3.4-2.2,4.7,0c1.3,2.3,2.7,4.6,4,6.9
	c0.1,0.2,0.3,0.4,0.5,0.8c0.4-0.7,0.8-1.4,1.2-2c1.1-2,2.3-4,3.4-5.9c1.1-1.9,3.3-1.9,4.4,0c3,5.1,6,10.1,8.8,15.2
	c3.2,5.7,0.6,13.3-5.2,16.3c-4.1,2.2-8.1,2-12-0.2c-0.5-0.3-0.8-0.3-1.3,0c-4.2,2.2-8.4,2.3-12.6-0.1c-0.5-0.3-0.9-0.1-1.3,0.1
	C14.6,47.7,4.2,45,2.3,35.6c-0.6-3.1,0-5.9,1.5-8.6c2.7-4.7,5.5-9.4,8.1-14.1c1.2-2.2,3.4-2.5,4.9,0.1
	C18.2,15.4,19.7,17.9,21.2,20.5z M24.8,33.2c0-1.7-0.4-3.4-1.2-4.9c-2.8-4.8-5.6-9.6-8.4-14.4c-0.7-1.2-1-1.2-1.8,0.1
	c-2.7,4.7-5.4,9.5-8.2,14.2C1.4,34.5,6,42.8,12.8,43.6C19.2,44.4,24.8,39.6,24.8,33.2z M38.5,33.4c0-1.8-0.3-3.5-1.2-5
	c-2.8-4.9-5.7-9.8-8.5-14.7c-0.5-0.9-0.9-0.9-1.4,0c-1.6,2.6-3.1,5.3-4.7,7.9c-0.3,0.5-0.3,1,0,1.5c0.8,1.4,1.7,2.8,2.4,4.2
	c2.6,4.7,2,10.2-1.7,14.2c-0.7,0.8-0.4,1,0.3,1.3C30.5,45.9,38.5,40.7,38.5,33.4z M52.2,32.5c0-1.1-0.4-2.8-1.3-4.3
	c-2.8-4.8-5.6-9.6-8.4-14.4c-0.6-1.1-0.9-1.1-1.6,0c-1.5,2.6-3,5.2-4.6,7.8c-0.3,0.6-0.3,1,0,1.6c1,1.7,2.1,3.4,2.9,5.3
	c2,4.8,1.1,9.1-2.2,13c-0.7,0.7-0.5,0.9,0.3,1.3C44.3,45.9,52.2,40.7,52.2,32.5z"/>
</svg>
