<?xml version="1.0" encoding="utf-8"?>
<!-- Generator: Adobe Illustrator 24.2.3, SVG Export Plug-In . SVG Version: 6.00 Build 0)  -->
<svg version="1.1" id="Layer_1" xmlns="http://www.w3.org/2000/svg" xmlns:xlink="http://www.w3.org/1999/xlink" x="0px" y="0px"
	 viewBox="0 0 56.7 56.7" style="enable-background:new 0 0 56.7 56.7;" xml:space="preserve">
<style type="text/css">
	.st0{fill:url(#SVGID_1_);}
	.st1{fill:url(#SVGID_2_);}
	.st2{fill:url(#SVGID_3_);}
</style>
<linearGradient id="SVGID_1_" gradientUnits="userSpaceOnUse" x1="27.9648" y1="51.7362" x2="27.9648" y2="7.6436" gradientTransform="matrix(1 0 0 -1 0 57.5827)">
	<stop  offset="0" style="stop-color:#E20613"/>
	<stop  offset="1" style="stop-color:#FFA000"/>
</linearGradient>
<path class="st0" d="M36,39.9c0.2,1.2-0.4,1.9-1.1,2.5c-2.3,2.2-4.5,4.5-6.8,6.7c-0.4,0.4-1.1,0.7-1.6,0.7c-4.7,0.1-9.5,0-14.2,0
	c-2.7,0-4.4-1.6-4.4-4.4c0-1.8,0-3.6,0-5.5c0-0.3-0.1-0.7-0.3-0.9c-1.9-1.4-2.9-3.3-3.3-5.5c-0.7-3.2-0.4-6.3,1.4-9.1
	C6,24,6.5,23.5,7,22.9C3.5,19.1,3.1,14.7,4.8,10C5,9.4,5.4,8.8,5.8,8.3c1.1-1.6,2.6-2.4,4.7-2.4c9.4,0,18.8,0,28.1,0
	c2.3,0,4.6,0.1,6.9,0c2.3-0.1,3.9,1,5,2.8c2.4,3.9,2.3,10.7-1.6,14.2c1.6,1.4,2.5,3.2,2.9,5.3c0.6,3,0.4,5.9-1.2,8.6
	c-1.1,2.1-2.8,3.2-5.3,3.1C42.2,39.8,39.2,39.9,36,39.9z M36.6,24c-0.2,0-0.4-0.1-0.5-0.1c-7.4,0-14.8,0-22.2,0
	c-0.3,0-0.8,0.3-1,0.6c-1.7,2.7-2.6,5.7-2.8,8.9c-0.2,3.9-0.2,7.9-0.2,11.8c0,2,0.7,2.6,2.7,2.6c4.1,0,8.3,0,12.4,0c0.3,0,0.6,0,1,0
	c0-1.3,0-2.5,0-3.6c0-2.8,1.7-4.4,4.5-4.4c1.2,0,2.4,0,3.5,0c0.2-2.8,0.2-5.5,0.4-8.2C34.5,29.1,35.2,26.5,36.6,24z M42.1,7.9
	c-0.2,0-0.3-0.1-0.5-0.1c-10.5,0-20.9,0-31.4,0c-1.1,0-2,0.5-2.6,1.4C5.5,12,5.4,17.1,7.3,20.1c0.8,1.2,1.8,1.8,3.4,1.8
	c10.1,0,20.3,0,30.5,0c0.3,0,0.7,0,1,0C39.3,17.2,39.3,12.6,42.1,7.9z M50,14.9c0-2-0.4-4-1.6-5.7c-1.4-1.8-3.3-1.8-4.7,0
	c-2.2,3-2.2,8.3,0,11.3c1.3,1.8,3.3,1.8,4.6,0C49.6,18.9,50,17,50,14.9z M50,30.9c0-2.2-0.5-4.2-1.6-5.6c-1.4-1.9-3.4-1.9-4.8,0
	c-2.1,2.9-2.1,8.2,0,11.1c1.4,2,3.4,2,4.9,0C49.7,34.8,50,32.9,50,30.9z M42.1,23.9c-0.5,0-0.9,0.1-1.3,0c-1.5-0.3-2.3,0.5-2.7,1.7
	c-0.6,1.5-1.2,3.1-1.5,4.7c-0.4,2.5-0.5,5-0.7,7.6c2.2,0,4.2,0,6.2,0C39.3,33.2,39.3,28.7,42.1,23.9z M10.9,24
	c-1.6-0.3-2.5,0.1-3.4,1.4c-1.6,2.3-1.8,4.8-1.4,7.4c0.2,1.4,0.7,2.8,1.8,4.1C8,32.3,8.6,28,10.9,24z M28,46c1.3-1.3,2.7-2.7,4-4
	C28.3,41.7,27.7,42.3,28,46z"/>
<linearGradient id="SVGID_2_" gradientUnits="userSpaceOnUse" x1="46.1384" y1="45.7108" x2="46.1384" y2="39.7049" gradientTransform="matrix(1 0 0 -1 0 57.5827)">
	<stop  offset="0" style="stop-color:#E20613"/>
	<stop  offset="1" style="stop-color:#FFA000"/>
</linearGradient>
<path class="st1" d="M48.2,15c-0.3,0.7-0.5,1.5-0.8,2.1c-0.7,1-1.9,1-2.7,0c-0.9-1.1-0.9-3.4,0-4.5c0.8-1,2.2-1,2.8,0.2
	C47.9,13.4,48,14.2,48.2,15z"/>
<linearGradient id="SVGID_3_" gradientUnits="userSpaceOnUse" x1="46.1399" y1="29.7021" x2="46.1399" y2="23.667" gradientTransform="matrix(1 0 0 -1 0 57.5827)">
	<stop  offset="0" style="stop-color:#E20613"/>
	<stop  offset="1" style="stop-color:#FFA000"/>
</linearGradient>
<path class="st2" d="M48.2,30.9c-0.3,0.8-0.4,1.5-0.8,2.2c-0.7,1.1-2,1.1-2.8,0c-0.8-1.1-0.8-3.2,0-4.4c0.8-1.1,2.2-1.2,2.8,0
	C47.8,29.4,48,30.1,48.2,30.9z"/>
</svg>
