<?xml version="1.0" encoding="utf-8"?>
<!-- Generator: Adobe Illustrator 24.2.3, SVG Export Plug-In . SVG Version: 6.00 Build 0)  -->
<svg version="1.1" id="Layer_1" xmlns="http://www.w3.org/2000/svg" xmlns:xlink="http://www.w3.org/1999/xlink" x="0px" y="0px"
	 viewBox="0 0 31.9 32" style="enable-background:new 0 0 31.9 32;" xml:space="preserve">
<style type="text/css">
	.st0{fill:#FFFFFF;}
	.st1{fill:#E20613;}
	.st2{fill:#1D1D1B;}
</style>
<g>
	<circle class="st0" cx="15.9" cy="16" r="15.9"/>
	<g>
		<path class="st1" d="M29.9,16.8c-0.1,1.6-0.5,3.2-1.1,4.7l-0.1,0.2l1,0.4l0.1-0.2c0.3-0.7,0.6-1.5,0.8-2.3
			c0.2-0.9,0.4-1.9,0.4-2.8l0-0.2l-1.1-0.1L29.9,16.8z"/>
		<path class="st1" d="M26.2,25.5c-1.1,1.2-2.4,2.2-3.8,2.9l-0.2,0.1l0.5,1l0.2-0.1c1.6-0.8,3-1.9,4.1-3.2l0.1-0.1l-0.8-0.8
			L26.2,25.5z"/>
		<path class="st1" d="M27.2,7.7c1,1.3,1.7,2.8,2.2,4.3l0.1,0.2l1.1-0.3l-0.1-0.2C29.9,10,29.1,8.4,28.1,7l-0.1-0.2L27,7.5L27.2,7.7
			z"/>
		<path class="st1" d="M17.8,29.9c-1.6,0.2-3.2,0.1-4.8-0.2l-0.2,0l-0.2,1.1l0.2,0c1.1,0.2,2.1,0.3,3.2,0.3c0.7,0,1.3,0,2-0.1l0.2,0
			L18,29.9L17.8,29.9z"/>
		<path class="st1" d="M19.2,2.4c1.6,0.4,3.1,1,4.4,1.9l0.2,0.1l0.6-0.9l-0.2-0.1c-1.5-1-3.1-1.7-4.8-2.1c-0.3-0.1-1.2-0.2-1.4-0.3
			l-0.2,0l-0.2,1.1l0.2,0C18.2,2.2,19,2.4,19.2,2.4"/>
		<path class="st1" d="M4.9,24.7l-0.1-0.2l-0.9,0.7L4,25.4c1.1,1.4,2.4,2.6,3.9,3.5L8,28.9l0.6-1l-0.2-0.1C7.1,27,5.9,25.9,4.9,24.7
			"/>
		<path class="st1" d="M9.1,3.8c1.5-0.9,3.7-1.6,5.2-1.7l0.2,0l-0.2-1.1l-0.2,0c-1.7,0.2-4.1,1-5.6,1.8L8.4,2.9l0.5,1L9.1,3.8z"/>
		<path class="st1" d="M2.6,20.4c-0.5-1.5-0.7-3.1-0.7-4.8l0-0.2l-1.1,0l0,0.2c0,1.8,0.2,3.5,0.8,5.2l0.1,0.2l1.1-0.4L2.6,20.4z"/>
		<path class="st1" d="M2.9,10.9C3.5,9.4,4.3,8,5.4,6.8l0.1-0.1L4.6,5.9L4.5,6c-1.2,1.3-2.1,2.8-2.7,4.5l-0.1,0.2l1.1,0.4L2.9,10.9z
			"/>
		<path class="st1" d="M28.3,22.6c-0.1,0.2-0.2,0.4-0.4,0.6l-0.1,0.2l1,0.6l0.1-0.2c0.1-0.2,0.3-0.5,0.4-0.7l0.1-0.2l-1-0.5
			L28.3,22.6z"/>
		<path class="st1" d="M27.3,24.1c-0.1,0.2-0.3,0.4-0.4,0.6l-0.1,0.2l0.9,0.7l0.1-0.2c0.2-0.2,0.3-0.4,0.5-0.6l0.1-0.2l-0.9-0.7
			L27.3,24.1z"/>
		<path class="st1" d="M29.6,13.1c0.1,0.2,0.1,0.5,0.1,0.7l0,0.2l1.1-0.2l0-0.2c0-0.3-0.1-0.5-0.2-0.8l0-0.2l-1.1,0.3L29.6,13.1z"/>
		<path class="st1" d="M29.9,14.9c0,0.2,0,0.5,0.1,0.7l0,0.2l1.1-0.1l0-0.2c0-0.3,0-0.5-0.1-0.8l0-0.2l-1.1,0.1L29.9,14.9z"/>
		<path class="st1" d="M24.6,5c0.2,0.1,0.4,0.3,0.6,0.5l0.1,0.1L26,4.7l-0.1-0.1c-0.2-0.2-0.4-0.3-0.6-0.5L25.1,4l-0.7,0.9L24.6,5z"
			/>
		<path class="st1" d="M25.9,6.2c0.2,0.2,0.3,0.3,0.5,0.5l0.1,0.1l0.9-0.7L27.2,6c-0.2-0.2-0.3-0.4-0.5-0.6l-0.1-0.1L25.7,6
			L25.9,6.2z"/>
		<path class="st1" d="M15.8,2c0.2,0,0.5,0,0.7,0l0.2,0l0-1.1l-0.2,0c-0.3,0-0.5,0-0.8,0l-0.2,0l0,1.1L15.8,2z"/>
		<path class="st1" d="M11.1,29.1l-0.2-0.1l-0.4,1.1l0.2,0.1c0.2,0.1,0.5,0.2,0.7,0.2l0.2,0.1l0.3-1.1l-0.2-0.1
			C11.5,29.3,11.3,29.2,11.1,29.1"/>
		<path class="st1" d="M9.4,28.4l-0.2-0.1l-0.5,1l0.2,0.1c0.2,0.1,0.5,0.2,0.7,0.3l0.2,0.1l0.5-1l-0.2-0.1
			C9.8,28.6,9.6,28.5,9.4,28.4"/>
		<path class="st1" d="M21.3,28.9c-0.2,0.1-0.4,0.2-0.7,0.3l-0.2,0.1l0.4,1.1l0.2-0.1c0.2-0.1,0.5-0.2,0.7-0.3l0.2-0.1l-0.4-1
			L21.3,28.9z"/>
		<path class="st1" d="M19.6,29.5c-0.2,0.1-0.5,0.1-0.7,0.2l-0.2,0l0.2,1.1l0.2,0c0.2-0.1,0.5-0.1,0.8-0.2l0.2,0l-0.3-1.1L19.6,29.5
			z"/>
		<path class="st1" d="M4.2,23.7c-0.1-0.2-0.3-0.4-0.4-0.6l-0.1-0.2l-1,0.6l0.1,0.2c0.1,0.2,0.3,0.4,0.4,0.7l0.1,0.2l0.9-0.6
			L4.2,23.7z"/>
		<path class="st1" d="M3.3,22.1c-0.1-0.2-0.2-0.4-0.3-0.6l-0.1-0.2l-1,0.5L2,21.9c0.1,0.2,0.2,0.5,0.3,0.7l0.1,0.2l1-0.5L3.3,22.1z
			"/>
		<path class="st1" d="M7.5,4.8c0.2-0.1,0.4-0.3,0.6-0.4l0.2-0.1L7.6,3.3L7.5,3.4C7.3,3.6,7,3.7,6.8,3.9L6.7,4l0.7,0.9L7.5,4.8z"/>
		<path class="st1" d="M6.2,6c0.2-0.2,0.3-0.3,0.5-0.5l0.1-0.1L6.1,4.5L5.9,4.6C5.8,4.8,5.6,5,5.4,5.2L5.2,5.3l0.8,0.8L6.2,6z"/>
		<path class="st1" d="M1.9,14.5c0-0.2,0.1-0.5,0.1-0.7l0-0.2L1,13.4l0,0.2c0,0.3-0.1,0.5-0.1,0.8l0,0.2l1.1,0.1L1.9,14.5z"/>
		<path class="st1" d="M2.3,12.8c0.1-0.2,0.1-0.5,0.2-0.7l0.1-0.2l-1.1-0.3l-0.1,0.2c-0.1,0.2-0.2,0.5-0.2,0.7l0,0.2L2.2,13
			L2.3,12.8z"/>
		<path class="st2" d="M23,26.2c0,0,0.1,0,0.1,0c0.1,0,0.2,0,0.2-0.1c0.1-0.1,0.1-0.2,0.1-0.3h0c-0.1-0.2-0.3-0.6-0.5-0.9
			c-0.1-0.1-0.2-0.2-0.3-0.3c-0.7-0.3-3.2-1.2-5.6-3c-0.1-0.1-0.3-0.1-0.4,0c-0.1,0.1,0,0.3,0,0.4C18.4,23.8,20.5,25.2,23,26.2"/>
		<path class="st2" d="M27.6,11.2c0.1-0.1,0.1-0.2,0.1-0.3c0-0.1-0.2-0.1-0.3-0.2c-0.7-0.1-1.9-0.3-2.8-0.4c-1.6-0.2-3-0.2-4.5-0.1
			c-0.1,0-0.2,0.1-0.2,0.2c0,0.2,0.1,0.2,0.2,0.2c1.1,0.2,4.3,1,5.3,1.2c0,0-2.4,2.9-3.2,4c-0.1,0.1-0.1,0.2,0,0.3
			c0.1,0.1,0.2,0.1,0.3,0c0.2-0.1,1.9-1.4,2.8-2.2C26.1,13.1,26.8,12.2,27.6,11.2"/>
		<path class="st2" d="M7.8,26c0.3,0,2.3-0.8,5.1-2.4c2.2-1.3,4.9-3.1,7.4-5.6c0.1-0.1,0.1-0.2,0-0.3c-0.1-0.1-0.3-0.1-0.4,0
			c-1.8,1.2-7.6,5-10.4,6.4c-0.1,0.1-0.3,0.1-0.3,0c-0.1-0.1-0.1-0.2,0-0.3c0.2-0.8,0.5-2.1,0.8-3.3c0.3-1.2,0.7-2.4,0.8-3.1
			c0-0.1-0.1-0.2-0.2-0.3c-0.1,0-0.2,0-0.3,0.1c-0.1,0.1-1.1,2.3-1.6,3.6c-0.6,1.5-1.1,3.2-1.2,4.8c0,0.1,0,0.2,0.1,0.3
			C7.6,26,7.7,26,7.8,26"/>
		<path class="st1" d="M24,25.7c0.1,0,0.2-0.2,0.2-0.3C22.1,14.8,16.5,4.2,16.4,4l-0.2-0.3L16.1,4c-0.9,1.6-4.7,10.7-4.7,10.7
			c0,0.1,0,0.3,0.1,0.4c0.1,0.1,0.3,0,0.4-0.1l4.4-7.8c2.1,3.8,6.6,15.9,7.5,18.4C23.7,25.6,23.9,25.8,24,25.7"/>
		<path class="st2" d="M12.7,10.4c0-0.2-0.2-0.2-0.3-0.2c-0.2,0-4.5-0.3-6.9,0.3c-0.2,0.1-0.2,0.3-0.1,0.5c0.4,0.5,2,2.4,4.2,4.5
			c1.6,1.6,3.4,3.1,5.2,4.8c0.1,0.1,0.3,0.2,0.5,0.1c0.1-0.1,0.1-0.3,0-0.5c-1.1-1.4-2.6-2.9-4.8-5.4c-1.5-1.7-3-3.1-3-3.1
			s3.5-0.5,5-0.8C12.6,10.7,12.7,10.6,12.7,10.4"/>
	</g>
</g>
</svg>
