<?xml version="1.0" encoding="utf-8"?>
<!-- Generator: Adobe Illustrator 24.2.3, SVG Export Plug-In . SVG Version: 6.00 Build 0)  -->
<svg version="1.1" xmlns="http://www.w3.org/2000/svg" xmlns:xlink="http://www.w3.org/1999/xlink" x="0px" y="0px"
	 viewBox="0 0 122.2 128.4" style="enable-background:new 0 0 122.2 128.4;" xml:space="preserve">
<style type="text/css">
	.st0{fill:#FAA71A;}
	.st1{fill:#841618;}
	.st2{fill:#ED2024;}
	.st3{fill:#FFCE07;}
	.st4{fill:#352324;}
	.st5{fill:#F68B1F;}
	.st6{fill:#FBCCB5;}
	.st7{fill:#F7A38E;}
	.st8{fill:#369AD5;}
	.st9{fill:#3583C5;}
	.st10{fill:#AFB4C2;}
	.st11{fill:#E9F0F9;}
	.st12{fill:#24418A;}
	.st13{fill:#27356D;}
	.st14{fill:#FFCE2E;}
	.st15{fill:#FFFEFE;}
	.st16{fill:#FFCF2F;}
	.st17{fill:#FFFFFE;}
	.st18{fill:#D3A489;}
	.st19{fill:#DDE7EC;}
	.st20{fill:#6BB9E7;}
	.st21{fill:#CD7A3B;}
	.st22{fill:#3F425A;}
	.st23{fill:#2FA2CF;}
	.st24{fill:#2B3150;}
	.st25{fill:#A45726;}
	.st26{fill:#F5CBAF;}
	.st27{fill:#E9B599;}
	.st28{fill:#C0D6DE;}
	.st29{fill:#BF8E75;}
	.st30{fill:#F05352;}
	.st31{fill:#EDEAE6;}
</style>
<g id="Layer_2">
	<path class="st2" d="M81.3,28c3,0,6.1,0,9.1,0c6.4,0,10.9,4.4,10.9,10.9c0,12.3,0,24.6,0,37c0,5.9,0,11.9,0,17.8
		c0,5.6-3.5,9.7-8.9,10.6c-0.5,0.1-1.1,0.1-1.7,0.1c-19.7,0-39.4,0-59.2,0c-5.4,0-9.5-3.5-10.5-8.8c-0.1-0.6-0.1-1.3-0.1-1.9
		c0-18.3,0-36.5,0-54.8c0-5.3,3.1-9.3,8-10.5c0.9-0.2,1.7-0.3,2.6-0.3c3.1,0,6.2,0,9.3,0c0,3.1,0,6.1,0,9.2c0,2.3,1.8,4.1,4.1,4.1
		c2.5,0,4.3-1.8,4.3-4.5c0-2.9,0-5.9,0-8.8c7.8,0,15.7,0,23.5,0c0,3,0,6,0,9c0,2.6,1.8,4.4,4.3,4.3c2.4,0,4.1-1.9,4.1-4.4
		C81.2,33.9,81.2,31,81.3,28z M61.1,92.4c6.5,0,12.9,0,19.4,0c5.3,0,8.8-3.5,8.8-8.8c0-8.9,0-17.7,0-26.6c0-5.4-3.5-8.9-8.9-8.9
		c-12.8,0-25.7,0-38.5,0c-5.4,0-8.9,3.5-8.9,8.9c0,8.9,0,17.8,0,26.7c0,5.3,3.5,8.8,8.8,8.8C48.2,92.4,54.6,92.4,61.1,92.4z"/>
	<path class="st14" d="M49.3,28c0,2.9,0,5.9,0,8.8c0,2.8-1.7,4.6-4.3,4.5c-2.3,0-4-1.8-4.1-4.1c0-3.1,0-6.1,0-9.2
		c0.4-2.3,1.8-3.8,3.7-3.9c2-0.2,3.7,0.9,4.4,2.7C49.1,27.2,49.2,27.6,49.3,28z"/>
	<path class="st14" d="M81.3,28c0,3,0,5.9,0,8.9c0,2.6-1.7,4.4-4.1,4.4c-2.5,0-4.2-1.7-4.3-4.3c-0.1-3,0-6,0-9
		c0.1-0.4,0.2-0.8,0.3-1.2c0.6-1.7,2.2-2.7,4-2.7c1.8,0,3.3,1.2,3.9,2.9C81.1,27.3,81.2,27.6,81.3,28z"/>
	<path class="st15" d="M61.1,92.4c-6.5,0-12.9,0-19.4,0c-5.3,0-8.8-3.5-8.8-8.8c0-8.9,0-17.8,0-26.7c0-5.3,3.5-8.9,8.9-8.9
		c12.8,0,25.7,0,38.5,0c5.4,0,8.9,3.5,8.9,8.9c0,8.9,0,17.7,0,26.6c0,5.3-3.5,8.8-8.8,8.8C74,92.4,67.5,92.4,61.1,92.4z M74.2,64.1
		c-0.1-0.4-0.1-0.8-0.2-1.1c-0.9-3.1-4.7-4-7.1-1.7c-2.8,2.8-5.6,5.6-8.4,8.4c-0.5,0.5-0.8,0.5-1.2,0c-0.7-0.8-1.5-1.5-2.3-2.3
		c-1.6-1.6-4.2-1.6-5.8,0c-1.6,1.6-1.7,4.2-0.1,5.8c1.9,2,3.9,4,5.9,5.9c1.8,1.7,4.2,1.7,5.9,0c4-3.9,7.9-7.9,11.9-11.9
		C73.8,66.4,74.3,65.4,74.2,64.1z"/>
	<path class="st16" d="M74.2,64.1c0,1.2-0.5,2.2-1.3,3.1c-4,4-7.9,8-11.9,11.9c-1.7,1.7-4.2,1.7-5.9,0c-2-1.9-3.9-3.9-5.9-5.9
		c-1.6-1.6-1.5-4.2,0.1-5.8c1.6-1.6,4.2-1.6,5.8,0c0.8,0.7,1.6,1.5,2.3,2.3c0.4,0.5,0.7,0.5,1.2,0c2.8-2.8,5.5-5.6,8.4-8.4
		c2.4-2.3,6.1-1.4,7.1,1.7C74.2,63.4,74.2,63.8,74.2,64.1z"/>
</g>
<g id="Regmark">
</g>
</svg>
