<?xml version="1.0" encoding="utf-8"?>
<!-- Generator: Adobe Illustrator 24.2.3, SVG Export Plug-In . SVG Version: 6.00 Build 0)  -->
<svg version="1.1" xmlns="http://www.w3.org/2000/svg" xmlns:xlink="http://www.w3.org/1999/xlink" x="0px" y="0px"
	 viewBox="0 0 122.2 128.4" style="enable-background:new 0 0 122.2 128.4;" xml:space="preserve">
<style type="text/css">
	.st0{fill:#FAA71A;}
	.st1{fill:#841618;}
	.st2{fill:#ED2024;}
	.st3{fill:#FFCE07;}
	.st4{fill:#352324;}
	.st5{fill:#F68B1F;}
	.st6{fill:#FBCCB5;}
	.st7{fill:#F7A38E;}
	.st8{fill:#369AD5;}
	.st9{fill:#3583C5;}
	.st10{fill:#AFB4C2;}
	.st11{fill:#E9F0F9;}
	.st12{fill:#24418A;}
	.st13{fill:#27356D;}
	.st14{fill:#FFCE2E;}
	.st15{fill:#FFFEFE;}
	.st16{fill:#FFCF2F;}
	.st17{fill:#FFFFFE;}
	.st18{fill:#D3A489;}
	.st19{fill:#DDE7EC;}
	.st20{fill:#6BB9E7;}
	.st21{fill:#CD7A3B;}
	.st22{fill:#3F425A;}
	.st23{fill:#2FA2CF;}
	.st24{fill:#2B3150;}
	.st25{fill:#A45726;}
	.st26{fill:#F5CBAF;}
	.st27{fill:#E9B599;}
	.st28{fill:#C0D6DE;}
	.st29{fill:#BF8E75;}
	.st30{fill:#F05352;}
	.st31{fill:#EDEAE6;}
</style>
<g id="Layer_2">
	<g>
		<path class="st1" d="M32.8,110c-1.3-0.5-2.6-0.9-3.7-1.7c-3.2-2.4-4.6-5.7-3.9-9.7C26,93.7,27,88.9,27.9,84
			c0.7-3.5,2.6-6.3,5.6-8.3c0.2-0.1,0.4-0.2,0.5-0.5c0.2-0.1,0.5-0.1,0.7-0.2c-0.4,1.1-0.9,2.1-1.1,3.2c-0.8,4.3-1.6,8.6-2.5,12.9
			c-0.3,1.8-0.8,3.7-0.4,5.5c1.1,4.7,4.6,7.6,9.3,7.7c6.4,0.1,12.7,0,19.1,0c0,1.9,0,3.8,0,5.7C50.4,110,41.6,110,32.8,110z"/>
		<path class="st1" d="M96.7,103.8c-1.1,3.3-3.6,5.2-6.9,6.1c-0.2,0-0.4,0-0.5,0.2c-8.8,0-17.5,0-26.3,0c0-1.9,0-3.8,0-5.7
			c9.8,0,19.6,0,29.4,0C94,104.3,95.4,104.2,96.7,103.8z"/>
		<path class="st1" d="M63.2,104.3c0,1.9,0,3.8,0,5.7c-1.3,0-2.6,0-3.9,0c0-1.9,0-3.8,0-5.7c0,0,0,0,0,0
			C60.5,104.3,61.8,104.3,63.2,104.3L63.2,104.3z"/>
		<path d="M37.6,47.3c-2-8.3,0.5-15.5,6.3-21.4c6.8-6.9,15.2-9.2,24.5-6.2c9.4,3,14.8,9.8,16.7,19.4c0.5,2.8,0.2,5.4-0.4,8.1
			c-0.5-0.4-0.9-0.8-1.4-1.1c-1.5-1.1-3.3-1-5-1c-0.1-1.4-0.5-2.1-1.7-2.4c-4.8-1.4-8.4-4.4-11-8.6c-0.1-0.2-0.1-0.4-0.4-0.4
			c-1,1.6-2.2,2.9-3.6,4.1c-3.5,2.8-7.5,4.1-11.8,4.9c-1.3,0.1-2.5,0.3-3.8,0.4c-1.2,0.1-1.8,0.9-2,2.1C41.6,45,39.4,45.4,37.6,47.3
			z"/>
		<path class="st2" d="M96.7,103.8c-1.4,0.4-2.8,0.5-4.2,0.5c-9.8,0-19.6,0-29.4,0c0,0,0,0,0,0c0-6.3,0-12.6,0-18.9
			c0-0.1,0-0.1,0-0.2c3.8,0,7.6,0,11.4,0c2.1,0,3.8-1.6,3.7-3.8c0-3.6-1.3-6.7-3.8-9.2c-0.4-0.4-0.9-0.6-1.1-1.3
			c0.3-0.1,0.6,0,0.9,0.1c2.1,0.6,4.3,1.1,6.4,1.7c2.5,0.7,5.2,1.2,7.5,2.6c4.1,2.6,5.9,6.5,6.6,11.1c0.6,4,1.5,8.1,2.2,12.1
			C97.5,100.3,97.5,102.1,96.7,103.8z"/>
		<path d="M34.8,75c-0.2,0.1-0.5,0.1-0.7,0.2c-0.1-2-0.3-4.1-0.3-6.1c0-2.7,0.6-5.3,2.1-7.6c2.5,1.9,5.1,3.5,8,4.8
			c2,0.9,4,1.7,6.2,2.2c0.4,0.4,0.8,0.8,1.2,1.2c-0.6,0.4-1.3,0.8-1.9,1.1c-0.2,0-0.3,0-0.4,0.2l0,0c-0.3-0.1-0.6,0-0.9,0.1
			c-2.8,0.8-5.6,1.5-8.4,2.3C38,73.8,36.3,74.1,34.8,75z"/>
		<path d="M88.3,75.3c-2.3-1.4-5-1.8-7.5-2.6c-2.1-0.6-4.3-1.2-6.4-1.7c-0.3-0.1-0.6-0.2-0.9-0.1c0,0,0,0,0,0
			c-0.1-0.2-0.2-0.2-0.4-0.2c-0.6-0.4-1.3-0.8-1.9-1.1c0.4-0.5,0.8-0.9,1.2-1.2c2.1-0.5,4-1.2,5.9-2.1c1.9-0.2,3.5-0.9,4.7-2.5
			c1.3-0.6,2.4-1.5,3.5-2.3c1.7,2.8,2.3,5.9,2.1,9.2C88.6,72.2,88.4,73.7,88.3,75.3z"/>
		<path class="st3" d="M37.6,47.3c1.7-1.9,4-2.3,6.4-2.1c0,3.8,0,7.6,0,11.4c-0.5,0-0.9,0-1.4,0c-2.8,0.1-4.8-1.1-5.9-3.8
			c-0.1-0.2-0.1-0.3-0.3-0.3C36.3,50.6,36.6,48.9,37.6,47.3z"/>
		<path class="st3" d="M78.4,45.2c1.7,0,3.5,0,5,1c0.5,0.3,0.9,0.7,1.4,1.1c1.1,1.6,1.4,3.3,1.2,5.2c-0.5,0.1-0.4,0.6-0.6,0.9
			c-1.1,2-2.7,3.2-5.1,3.2c-0.7,0-1.3,0-2,0C78.3,52.8,78.4,49,78.4,45.2z"/>
		<path class="st4" d="M50,68.4c-2.1-0.5-4.2-1.3-6.2-2.2c-2.8-1.3-5.5-2.8-8-4.8c0.6-1,1.2-2,1.8-3c1.1,0.9,2.2,1.8,3.7,2
			c1.2,0.2,2.4,0,3.6,0.1c0.2,0.5,0.4,1,0.6,1.5C46.4,64.5,48.1,66.5,50,68.4z"/>
		<path class="st5" d="M78.3,56.6c0.7,0,1.3,0,2,0c2.4,0,4-1.2,5.1-3.2c0.2-0.3,0.1-0.8,0.6-0.9c0.2,2.1,0,4.1-1.2,5.9
			c-0.4,0.1-0.6,0.4-0.8,0.7c-1,0.7-2.1,1.2-3.3,1.4c-0.3,0-0.5,0.2-0.6,0.4c-0.1-0.4-0.4-0.4-0.7-0.4c-0.7,0-1.3,0-2,0
			C77.9,59.3,78.1,57.9,78.3,56.6z"/>
		<path class="st5" d="M44.8,60.5c-1.2,0-2.4,0.1-3.6-0.1c-1.5-0.2-2.6-1.1-3.7-2c-1.2-1.8-1.3-3.8-1.2-5.9c0.2,0,0.3,0.2,0.3,0.3
			c1.1,2.6,3,3.9,5.9,3.8c0.5,0,0.9,0,1.4,0C44.3,57.9,44.5,59.2,44.8,60.5z"/>
		<path class="st4" d="M84,59.1c0.2-0.3,0.4-0.6,0.8-0.7c0.6,1,1.2,2,1.8,3c-1.1,0.8-2.2,1.7-3.5,2.3C84,62.3,84.2,60.8,84,59.1z"/>
		<path class="st2" d="M34.8,75c1.5-0.9,3.2-1.2,4.8-1.7c2.8-0.8,5.6-1.5,8.4-2.3c0.3-0.1,0.6-0.2,0.9-0.1c0,0.3-0.2,0.4-0.4,0.6
			c-2.5,2.2-3.9,5-4.4,8.3c-0.5,3.3,1.3,5.6,4.4,5.4c3.6-0.2,7.1,0,10.7,0c0,0.1,0,0.1,0,0.2c0,6.3,0,12.6,0,18.9c0,0,0,0,0,0
			c-6.4,0-12.7,0.1-19.1,0c-4.6-0.1-8.2-3-9.3-7.7c-0.4-1.9,0-3.7,0.4-5.5c0.8-4.3,1.6-8.6,2.5-12.9C33.9,77.1,34.4,76.1,34.8,75z
			 M45.1,90.9c-0.9,0-1.8,0-2.8,0c-1.2,0-2,0.8-2,1.9c0,1.1,0.8,1.9,2.1,2c1.8,0,3.6,0,5.4,0c1.2,0,2-0.8,2.1-1.9
			c0-1.1-0.8-1.9-2.1-2C46.8,90.9,45.9,90.9,45.1,90.9z"/>
		<path class="st1" d="M59.2,104.3c0-6.3,0-12.6,0-18.9c1.3,0,2.6,0,3.9,0c0,6.3,0,12.6,0,18.9C61.8,104.3,60.5,104.3,59.2,104.3z"
			/>
		<path class="st6" d="M78.3,56.6c-0.2,1.3-0.4,2.7-0.8,3.9c-0.2,0.5-0.4,1.1-0.6,1.6c-0.3,0.2-0.7,0.2-1,0.2c-1.9,0-3.7,0-5.6,0
			c-0.4-0.5-0.9-1.1-1.5-1.4c-1.3-0.7-6.3-0.7-7.6,0.1c-1.3,0.8-2.2,2.4-1.9,3.8c0.3,1.7,1.6,3,3.1,3.2c1.3,0.2,2.6,0.1,3.9,0.1
			c1.7,0.1,3-0.5,3.9-1.9c1.3,0,2.7,0,4,0c-0.5,0.8-1.3,1.4-1.9,2.1c-0.5,0.4-0.9,0.8-1.2,1.2c-0.3,0.1-0.3,0.4-0.5,0.6
			c-1.1,0.5-1.8,1.6-3.1,1.8c-0.7,0.1-1.4-0.1-2-0.1c-2.3-0.1-4.4-1-6.4-2.3c-2.2-1.5-4-3.5-5.7-5.6c-2.3-2.8-3.5-6.1-3.6-9.6
			c-0.2-3.9,0-7.7,0-11.6c4.3-0.7,8.3-2.1,11.8-4.9c1.4-1.2,2.6-2.6,3.6-4.1c0.3,0,0.3,0.3,0.4,0.4c2.6,4.2,6.2,7.2,11,8.6
			c1.2,0.3,1.6,1,1.7,2.4C78.4,49,78.3,52.8,78.3,56.6z"/>
		<path class="st7" d="M49.8,42.7c0,3.9-0.1,7.7,0,11.6c0.1,3.6,1.3,6.9,3.6,9.6c1.7,2,3.5,4,5.7,5.6c1.9,1.3,4,2.2,6.4,2.3
			c0.7,0,1.3,0.2,2,0.1c1.3-0.1,2.1-1.2,3.1-1.8c0,0.2,0,0.5,0,0.7c-0.5,0.5-1.1,0.9-1.6,1.4C63.9,76,58.3,78,51.9,77.5
			c-0.2-0.3-0.2-0.6-0.2-0.9c0-1.9,0-3.9,0-5.8c0-0.5,0-0.9-0.5-1.1c-0.4-0.4-0.8-0.8-1.2-1.2c-1.9-1.9-3.6-3.9-4.6-6.4
			c-0.2-0.5-0.4-1-0.6-1.5c-0.3-1.3-0.5-2.6-0.8-3.9c0-3.8,0-7.6,0-11.4c0.1-1.2,0.8-2,2-2.1C47.3,43,48.5,42.8,49.8,42.7z"/>
		<path d="M70.6,70.9c0-0.2,0-0.5,0-0.7c0.2-0.2,0.2-0.5,0.5-0.6c0.6,0.4,1.3,0.8,1.9,1.1c0.1,0.1,0.2,0.2,0.4,0.2c0,0,0,0,0,0
			c0.1,0.6,0.7,0.9,1.1,1.3c2.5,2.6,3.7,5.7,3.8,9.2c0,2.2-1.6,3.8-3.7,3.8c-3.8,0-7.6,0-11.4,0c-0.1,0-0.3,0-0.4-0.1
			c0.2-0.1,0.3-0.1,0.5-0.2c3.9-1,6.4-3.4,7.2-7.4C70.9,75.4,70.6,73.1,70.6,70.9z"/>
		<path class="st8" d="M62.8,85.1c0.1,0,0.3,0,0.4,0.1c0,0.1,0,0.1,0,0.2c-1.3,0-2.6,0-3.9,0c0-0.1,0-0.1,0-0.2c0.2,0,0.4,0,0.5-0.1
			C60.8,85.2,61.8,85.1,62.8,85.1z"/>
		<path d="M59.8,85.2c-0.2,0-0.4,0-0.5,0.1c-3.6,0-7.1-0.1-10.7,0c-3.1,0.2-4.9-2.2-4.4-5.4c0.5-3.3,1.9-6.1,4.4-8.3
			c0.2-0.2,0.4-0.3,0.4-0.6c0,0,0,0,0,0c0.2,0.1,0.3,0,0.4-0.2c0.6-0.4,1.3-0.8,1.9-1.1c0.5,0.3,0.5,0.7,0.5,1.1c0,1.9,0,3.9,0,5.8
			c0,0.3-0.1,0.7,0.2,0.9c0.4,2.2,1.5,4,3.2,5.5C56.4,84.2,58,84.8,59.8,85.2z"/>
		<path class="st9" d="M49.3,70.7c-0.1,0.1-0.2,0.2-0.4,0.2C48.9,70.7,49.1,70.7,49.3,70.7z"/>
		<path class="st10" d="M70.2,62.4c1.9,0,3.7,0,5.6,0c0.4,0,0.7,0.1,1-0.2c1.9,0.6,3,0,3.3-1.2c0.1-0.2,0.3-0.4,0.6-0.4
			c1.2-0.1,2.3-0.6,3.3-1.4c0.1,1.6-0.1,3.2-1,4.6c-1.2,1.6-2.8,2.3-4.7,2.5c-1.3,0-2.7,0-4,0c-1.3,0-2.7,0-4,0c0-0.1,0-0.2,0-0.3
			C71,64.7,70.7,63.5,70.2,62.4z"/>
		<path class="st4" d="M74.3,66.3c1.3,0,2.7,0,4,0c-1.9,1-3.9,1.7-5.9,2.1C73,67.6,73.8,67.1,74.3,66.3z"/>
		<path class="st9" d="M73.5,70.9c-0.2,0.1-0.3,0-0.4-0.2C73.3,70.7,73.4,70.7,73.5,70.9z"/>
		<path class="st4" d="M80.1,60.9c-0.2,1.2-1.4,1.8-3.3,1.2c0.2-0.5,0.4-1.1,0.6-1.6c0.7,0,1.3,0,2,0C79.8,60.5,80.1,60.5,80.1,60.9
			z"/>
		<path class="st11" d="M45.1,90.9c0.9,0,1.7,0,2.6,0c1.3,0,2.1,0.8,2.1,2c0,1.1-0.8,1.9-2.1,1.9c-1.8,0-3.6,0-5.4,0
			c-1.3,0-2.1-0.8-2.1-2c0-1.1,0.8-1.9,2-1.9C43.2,90.9,44.2,90.9,45.1,90.9z"/>
		<path class="st12" d="M70.2,62.4c0.5,1.2,0.7,2.4,0.1,3.5c-1.7,0.6-3.5,0.4-5.2,0.3c-2.8-0.2-4.1-1.9-3.7-4.8c0-0.2,0-0.3-0.2-0.4
			c1.3-0.7,6.3-0.8,7.6-0.1C69.4,61.3,69.8,61.8,70.2,62.4z"/>
		<path class="st13" d="M61.2,61c0.1,0.1,0.2,0.2,0.2,0.4c-0.3,2.9,0.9,4.6,3.7,4.8c1.7,0.1,3.5,0.3,5.2-0.3c0,0.1,0,0.2,0,0.3
			c-0.9,1.4-2.3,2-3.9,1.9c-1.3,0-2.6,0.1-3.9-0.1c-1.6-0.2-2.8-1.5-3.1-3.2C59,63.4,59.8,61.8,61.2,61z"/>
		<path class="st6" d="M59.8,85.2c-1.7-0.4-3.3-1-4.7-2.2c-1.7-1.5-2.8-3.2-3.2-5.5c6.4,0.5,12-1.5,17.1-5.3
			c0.6-0.4,1.1-0.9,1.6-1.4c0,2.2,0.3,4.5-0.2,6.7c-0.8,3.9-3.3,6.4-7.2,7.4c-0.2,0-0.3,0.1-0.5,0.2C61.8,85.1,60.8,85.2,59.8,85.2z
			"/>
	</g>
</g>
<g id="Regmark">
</g>
</svg>
