<?xml version="1.0" encoding="utf-8"?>
<!-- Generator: Adobe Illustrator 24.2.3, SVG Export Plug-In . SVG Version: 6.00 Build 0)  -->
<svg version="1.1" xmlns="http://www.w3.org/2000/svg" xmlns:xlink="http://www.w3.org/1999/xlink" x="0px" y="0px"
	 viewBox="0 0 122.2 128.4" style="enable-background:new 0 0 122.2 128.4;" xml:space="preserve">
<style type="text/css">
	.st0{fill:#FAA71A;}
	.st1{fill:#841618;}
	.st2{fill:#ED2024;}
	.st3{fill:#FFCE07;}
	.st4{fill:#352324;}
	.st5{fill:#F68B1F;}
	.st6{fill:#FBCCB5;}
	.st7{fill:#F7A38E;}
	.st8{fill:#369AD5;}
	.st9{fill:#3583C5;}
	.st10{fill:#AFB4C2;}
	.st11{fill:#E9F0F9;}
	.st12{fill:#24418A;}
	.st13{fill:#27356D;}
	.st14{fill:#FFCE2E;}
	.st15{fill:#FFFEFE;}
	.st16{fill:#FFCF2F;}
	.st17{fill:#FFFFFE;}
	.st18{fill:#D3A489;}
	.st19{fill:#DDE7EC;}
	.st20{fill:#6BB9E7;}
	.st21{fill:#CD7A3B;}
	.st22{fill:#3F425A;}
	.st23{fill:#2FA2CF;}
	.st24{fill:#2B3150;}
	.st25{fill:#A45726;}
	.st26{fill:#F5CBAF;}
	.st27{fill:#E9B599;}
	.st28{fill:#C0D6DE;}
	.st29{fill:#BF8E75;}
	.st30{fill:#F05352;}
	.st31{fill:#EDEAE6;}
</style>
<g id="Layer_2">
	<g>
		<path class="st0" d="M73.5,27.9c7.9-2.8,14.8-1.4,19.9,5.1c4.3,5.5,4.6,11.7,1.4,18c-2,3.8-5.2,6.3-9.2,7.7
			c-4.1,1.4-8.1,1-12.3-0.6c0,2.3,0,4.4,0,6.4c0,2.4-0.9,4.4-2.7,6c-1.4,1.4-3.2,2.1-5.1,2.2c-1.8,0.1-3.7,0-5.5,0
			c-0.8,0-1.1-0.3-1.1-1.1c0-2.5,0-4.9,0.1-7.4c0-0.3,0.6-0.8,1-1c0.3-0.2,0.8,0,1.3,0c2.4,0,2.7-0.3,2.7-2.8c0-10.7,0-21.5,0-32.2
			c0-1.9,0-1.9,1.9-1.9c1.9,0,3.9,0.1,5.8,0C72.7,26.4,73.4,26.6,73.5,27.9z M87.4,43.1c0-3.9-3.1-7.1-6.9-7.1
			c-3.8-0.1-7.1,3.2-7.1,7c0,3.9,3.1,7.1,7,7.1C84.3,50.1,87.4,47,87.4,43.1z"/>
		<path class="st0" d="M41.5,59.5c-9.2,0-16.4-7.3-16.4-16.5c0-9.1,7.5-16.5,16.5-16.5c9,0,16.5,7.5,16.5,16.6
			C58.2,52.2,50.8,59.5,41.5,59.5z M41.7,50c3.9,0,7.1-3.1,7.1-7c0-3.8-3.2-7.1-7-7.1c-3.9,0-7.1,3.2-7.1,7.1
			C34.7,47,37.7,50,41.7,50z"/>
		<path class="st0" d="M86,92c-5,4.8-10.6,8-17.3,9.2c-18.8,3.6-36.2-7.6-40.5-26.2c-0.4-1.9-0.5-3.9-0.8-5.9
			c-0.1-1.1,0.2-1.5,1.4-1.5c2.1,0.1,4.3,0.1,6.4,0c1.3-0.1,1.7,0.6,1.7,1.7c0.2,4.1,1.4,7.8,3.6,11.2c4.9,7.7,11.9,11.8,21,12
			c6.3,0.2,11.9-1.9,16.6-6.1c0.9-0.8,1.5-0.9,2.4,0.1C82.2,88.3,84.1,90.1,86,92z"/>
	</g>
</g>
<g id="Regmark">
</g>
</svg>
