<?xml version="1.0" encoding="utf-8"?>
<!-- Generator: Adobe Illustrator 24.2.3, SVG Export Plug-In . SVG Version: 6.00 Build 0)  -->
<svg version="1.1" xmlns="http://www.w3.org/2000/svg" xmlns:xlink="http://www.w3.org/1999/xlink" x="0px" y="0px"
	 viewBox="0 0 122.2 128.4" style="enable-background:new 0 0 122.2 128.4;" xml:space="preserve">
<style type="text/css">
	.st0{fill:#ED2024;}
	.st1{fill:#D3A489;}
	.st2{fill:#DDE7EC;}
	.st3{fill:#6BB9E7;}
	.st4{fill:#CD7A3B;}
	.st5{fill:#3F425A;}
	.st6{fill:#2FA2CF;}
	.st7{fill:#2B3150;}
	.st8{fill:#A45726;}
	.st9{fill:#F5CBAF;}
	.st10{fill:#E9B599;}
	.st11{fill:#C0D6DE;}
	.st12{fill:#BF8E75;}
	.st13{fill:#F05352;}
	.st14{fill:#EDEAE6;}
	.st15{fill:#FFFFFE;}
</style>
<g id="Layer_2">
	<g>
		<path class="st0" d="M34.4,26.8c3-2.3,6.2-4,9.7-5.3c4.2-1.7,8.6-2.7,13.2-3.1c0.1,0,0.3,0,0.4-0.2c2.2,0,4.4,0,6.6,0
			c0.1,0.2,0.3,0.2,0.5,0.2c2.1,0.1,4.1,0.5,6.2,0.9c6.2,1.4,11.9,3.9,17.1,7.7c-0.8,0-1.7,0-2.5,0.1c-2.1,0-4.2,0-6.3,0
			C79,27,78.8,27,78.7,27.2c-3.8,0.2-7.6,3.6-8.4,7.4c-0.4,1.8-0.4,3.7-0.4,5.5c-0.1,0.4-0.2,0.7-0.1,1.1c0,0.2,0,0.5-0.1,0.7
			c-0.7-0.2-1.4-0.4-2.2-0.5c-2.7-0.6-5.5-0.2-8.2-0.3c-0.7,0-1.5-0.1-2.2,0.1c-1.7-0.1-3.3,0.4-4.8,0.9c-0.1-0.2-0.1-0.5-0.2-0.7
			c-1-6.3-4.5-10.7-10.3-13.3C39.5,27.1,37,26.8,34.4,26.8z"/>
		<path class="st0" d="M107.1,67.8c-0.4,1.1-0.4,2.3-0.5,3.4c-0.6,4.1-1.8,8-3.5,11.7c0,0-0.1,0.1-0.1,0.1c0-1.6,0-3.2,0-4.8
			c0-1.2,0-2.3-0.3-3.5c-1.3-5.1-4.4-8.3-9.4-9.8c-0.7-0.8-1.8-1-2.6-1.7c0.7-0.3,1.3-0.5,2-0.8c3.7-1.8,6.3-4.7,8-8.4
			c0.5,0.1,0.9,0.5,1.4,0.4c1.4,0.2,2.6-0.2,3.7-1.1c0.3,1.6,0.6,3.2,0.9,4.7c0.2,1,0.1,2,0.4,3C107.1,63.2,107.1,65.5,107.1,67.8z"
			/>
		<path class="st1" d="M105.8,53.2c-1.1,0.8-2.3,1.3-3.7,1.1c0.1-0.6,0.2-1.2,0.4-1.7c0.1-0.5,0.2-0.9,0.9-1.1
			c0.6-0.1,0.9-0.6,0.9-1.3c0-0.6-0.1-1.3-0.7-1.4c-0.9-0.3-1.1-0.9-1.1-1.6c0-0.4-0.2-0.9-0.3-1.3c0.4,0,0.8,0,1.2,0
			c2.1,0.2,3.2,1.6,3.8,3.5c0,0.5,0,1.1,0,1.6C106.7,51.7,106.4,52.6,105.8,53.2z"/>
		<path class="st2" d="M93.3,64.9c5,1.5,8.1,4.8,9.4,9.8c0.3,1.1,0.3,2.3,0.3,3.5c0,1.6,0,3.2,0,4.8c-0.4,1.7-1.3,3.1-2.2,4.6
			c-2.1,3.6-4.6,6.8-7.6,9.6c-3.7,3.6-7.8,6.6-12.6,8.6c0-1.9,0.1-3.8-0.1-5.6c-0.6-3.8-2.4-6.8-5.3-9.3c0-3.5,0-6.9,0-10.4
			c1.2-1.4,2-3.1,2.9-4.7c0.5,0.2,1,0.5,1.6,0.4c1.1,0.5,3.8-0.5,4.5-1.7c0.2-0.3,0.3-0.8,0.8-0.8c0.4,0.4,0.4,0.8,0.2,1.3
			c-1.4,5-2.7,10-4.1,14.9c-0.1,0.5-0.1,0.8,0.2,1.2c1.3,1.6,2.6,3.2,3.8,4.9c0.4,0.5,0.5,0.4,0.9,0c1.3-1.6,2.5-3.3,3.8-4.9
			c0.3-0.4,0.4-0.7,0.3-1.2c-1.1-4.1-2-8.2-3.4-12.2c-0.9-2.6-0.7-4.6,1.1-6.6c1.1,0.3,2,1,3,1.5c0.5,0.3,0.7,0.2,0.8-0.4
			C92.2,69.8,92.7,67.3,93.3,64.9z M94.4,79.3c1,0,1.9,0,2.9,0c0.4,0,0.7-0.1,0.7-0.6c0-0.3,0-0.7,0-1c0-0.4-0.2-0.6-0.6-0.6
			c-1.9,0-3.9,0-5.8,0c-0.5,0-0.6,0.2-0.6,0.6c0,0.3,0,0.5,0,0.8c-0.1,0.6,0.2,0.7,0.7,0.7C92.5,79.2,93.5,79.3,94.4,79.3z"/>
		<path class="st3" d="M41.6,105.8c-3.1-1.4-5.9-3.2-8.6-5.2c-3.1-2.4-5.9-5.2-8.3-8.3c-0.1-0.1-0.2-0.3-0.2-0.5c0-4.9,0-9.7,0-14.6
			c0-0.6,0.1-1.1,0.2-1.7c0.6-2.8,1.8-5.3,4.1-7.1c0.5,2.1,1,4.1,1.4,6.2c0.7,3,1.2,5.9,2,8.9c0.4,1.5,2.1,2.6,3.5,2.5
			c1.7-0.1,3.1-1.3,3.5-3c0.5-2.3,1-4.6,1.5-6.9c0.7,0,1.3,0.3,2,0c0.4,0,0.7-0.1,1-0.2c0.5-0.2,0.7-0.2,1,0.3
			c1.6,3.6,4.2,6.3,7.5,8.3c0,1.1,0,2.3,0,3.4c-1.2,0.4-2.3,0.9-3.5,1.2c-0.6,0.2-0.7,0.4-0.5,0.9c-3,2-5,4.8-6,8.3
			C41.5,100.9,41.6,103.4,41.6,105.8z"/>
		<path class="st4" d="M34.4,26.8c2.5,0.1,5,0.3,7.4,1.3c5.9,2.5,9.4,6.9,10.3,13.3c0,0.2,0.1,0.5,0.2,0.7c-2.4,0.9-4.4,2.5-6.1,4.4
			C45.1,46.3,44,46.2,43,46c-0.5-0.3-0.9-0.4-1.4-0.5c-3.6-1.6-5.9-4.4-6.5-8.4c-1.9,4-4.9,6.1-9.2,6.1c0.1-0.3,0.2-0.5,0.2-0.8
			c0.1-3,0.8-5.8,2-8.5c1.3-2.8,3-5.4,6-6.7c0.1,0,0.1-0.2,0.2-0.3C34.2,26.9,34.3,26.8,34.4,26.8z"/>
		<path class="st0" d="M19,82.6c-1.9-4-3-8.3-3.5-12.7C14.9,65,15,60.2,16,55.3c0.1-0.3,0-0.5,0.1-0.8c0.9,0.5,1.7,1.3,2.8,1.3
			c0,2,0,4,0,6c0,0.4,0.1,0.6,0.6,0.6c2.6,0,5.1,0,7.7,0c1.2,0.7,2.5,1.3,3.7,1.8c-0.8,0.6-1.9,0.9-2.6,1.7
			c-5.7,1.6-9.4,6.8-9.2,12.7C19.1,79.9,19.1,81.3,19,82.6z"/>
		<path class="st5" d="M75.1,90.9c2.9,2.5,4.7,5.5,5.3,9.3c0.3,1.9,0.2,3.8,0.1,5.6c-3.9,1.8-7.9,3-12.1,3.7
			c1.1-2.6,2.1-5.2,3.2-7.9c0.4-1.1,0.4-1.1-0.7-1c-0.7,0-1.1-0.1-0.6-0.9c0.3-0.5,0.4-1.1,0.6-1.6c1-2.7,2.1-5.3,3.1-8
			C74.4,90.4,74.7,90.7,75.1,90.9z"/>
		<path class="st5" d="M41.6,105.8c0-2.4-0.1-4.9,0.5-7.3c1-3.5,3-6.3,6-8.3c0.2,0.5,0.4,1,0.6,1.5c1.1,2.8,2.1,5.6,3.2,8.4
			c0.2,0.4,0.1,0.6-0.4,0.5c-0.2,0-0.4,0-0.6,0c-0.8-0.1-0.8,0.2-0.6,0.9c1.1,2.7,2.2,5.4,3.3,8.1C49.5,108.9,45.5,107.7,41.6,105.8
			z"/>
		<path class="st6" d="M19,82.6c0-1.4,0.1-2.7,0-4.1c-0.2-5.8,3.5-11,9.2-12.7c0.2,0.9,0.5,1.7,0.5,2.6c-2.3,1.8-3.5,4.3-4.1,7.1
			c-0.1,0.6-0.2,1.1-0.2,1.7c0,4.9,0,9.7,0,14.6C22.2,89,20.4,86,19,82.6z"/>
		<path class="st7" d="M74,90.2c-1,2.7-2.1,5.3-3.1,8c-0.2,0.5-0.4,1.1-0.6,1.6c-0.4,0.8-0.1,0.9,0.6,0.9c1.1,0,1.1,0,0.7,1
			c-1.1,2.6-2.1,5.2-3.2,7.9c-1.3,0.2-2.6,0.4-3.9,0.4c-0.3,0-0.6-0.1-0.9,0.1c-0.1,0-0.2,0-0.4,0c0.2-0.8,0.5-1.5,0.7-2.3
			c0.3-1.2,0.7-2.4,1-3.6c0.7-2.5,1.5-4.9,2.1-7.3c0.1-0.3,0.2-0.6,0.3-0.9c0.8-2.6,1.6-5.3,2.3-7.9c1.3,0.4,2.6,0.9,3.9,1.2
			C74.2,89.4,74.2,89.7,74,90.2z"/>
		<path class="st7" d="M53.7,109.6c-1.1-2.7-2.2-5.4-3.3-8.1c-0.3-0.6-0.2-1,0.6-0.9c0.2,0,0.4,0,0.6,0c0.4,0,0.5-0.1,0.4-0.5
			c-1.1-2.8-2.2-5.6-3.2-8.4c-0.2-0.5-0.4-1-0.6-1.5c-0.3-0.5-0.1-0.8,0.5-0.9c1.2-0.4,2.4-0.8,3.5-1.2c0.1,0,0.2,0,0.3,0
			c0.9,3,1.8,6.1,2.7,9.1c0,0.2,0.1,0.3,0.1,0.5c1,3.4,2,6.8,3,10.3c0.1,0.2,0.1,0.4,0.2,0.7c0.5,1.2,0.4,1.3-0.8,1.3
			C56.3,110,55,109.8,53.7,109.6z"/>
		<path class="st8" d="M34.1,26.9c-0.1,0.1-0.1,0.2-0.2,0.3c-3.1,1.3-4.7,3.8-6,6.7c-1.2,2.7-1.9,5.6-2,8.5c0,0.3-0.1,0.5-0.2,0.8
			c-0.2,0-0.5,0-0.7,0c-1.4-0.3-2.9-0.6-4.1-1.5c-0.5-0.4-0.5,0-0.6,0.4c-0.2,1.6-0.1,3.2-0.1,4.7c0,0.3,0.1,0.7-0.4,0.7
			c-0.3,0-0.7,0-1,0c0-0.3-0.1-0.7-0.1-1c0.1-1.3,0.1-2.6,0.2-3.9c0.3-7.2,5.5-13.5,12.6-15.3C32.3,27.2,33.2,27.1,34.1,26.9z"/>
		<path class="st5" d="M57.6,110c1.3-0.1,1.3-0.1,0.8-1.3c-0.1-0.2-0.2-0.4-0.2-0.7c0.4-0.1,0.3-0.4,0.4-0.6
			c0.4-1.6,0.8-3.1,1.2-4.7c0.3-1.3,1.1-2.6,0.8-3.9c-0.3-1.3-1.4-2.3-2.1-3.5c0.7-0.7,1.6-0.9,2.3-1.4c0.2-0.1,0.4-0.1,0.5,0
			c0.7,0.5,1.6,0.7,2.2,1.4c-0.6,1-1.3,2-1.9,3c-0.2,0.3-0.3,0.6-0.2,1c0.7,2.7,1.4,5.5,2.1,8.2c0,0.2,0.1,0.3,0.3,0.3
			c-0.2,0.8-0.5,1.5-0.7,2.3C61.4,110.1,59.5,110.3,57.6,110z"/>
		<path class="st9" d="M18.8,47.6c0.3,0,0.7,0,1,0c-0.1,0.5-0.1,1.1-0.2,1.6c-0.1,0.4-0.1,0.9-0.7,1.1c-0.7,0.2-1.1,0.6-1.1,1.4
			c0,0.8,0.5,1.2,1.1,1.4c0.3,0.1,0.5,0.2,0.5,0.5c0.1,0.7,0.4,1.4,0.3,2.1c-0.3,0-0.6,0-0.9,0c-1.1,0-1.9-0.8-2.8-1.3
			c-0.2-0.5-0.5-1-0.7-1.5c-0.8-2.1,0.2-4.3,2.2-5.2c0.3-0.1,0.5-0.2,0.7-0.4C18.4,47.6,18.6,47.7,18.8,47.6z"/>
		<path class="st10" d="M18.8,47.6c-0.2,0.1-0.4,0-0.5-0.1c0.1-0.3,0.1-0.6,0.4-0.9C18.7,46.9,18.8,47.3,18.8,47.6z"/>
		<path class="st5" d="M63.6,110.1c0.3-0.2,0.6-0.1,0.9-0.1C64.3,110.2,63.9,110.2,63.6,110.1z"/>
		<path class="st5" d="M57.1,41.2c0.7-0.2,1.5-0.1,2.2-0.1c2.7,0.1,5.5-0.3,8.2,0.3c0.7,0.1,1.4,0.4,2.2,0.5c1.3,0.7,2.6,1.4,4,2.2
			c0.3,0.5,0.8,0.8,1.2,1.1c0.1,0.1,0.1,0.2,0.2,0.3c2.8,3,4.3,6.6,4.1,10.8c0,1,0,1.9,0,2.9c0,1.1,0,2.3,0,3.4
			c0,0.1-0.1,0.2-0.1,0.2c-0.9,0-1.7-0.1-2.6,0c-0.6,0-0.8-0.1-0.8-0.7c0.1-1,0-1.9,0-2.9c0-1.9,0-1.9-1.9-2.3c-5.3-1-10.7-2-16-3
			c-2.1-0.4-4.3-0.7-6.4-1.3c0.6-3.6,2.6-6.4,5.4-8.6c1.8-1.4,3.9-2.3,6.2-2.9C61.2,41.2,59.1,41.2,57.1,41.2z"/>
		<path class="st5" d="M88,27c2.8,0,5.6,0.1,8.4,0.1c0.4,0,0.7-0.1,1-0.4c1-1,2-2,3-3c0.5-0.5,0.7-0.4,1.1,0.1
			c3,3.5,3.2,8.8,0.3,12.5c-0.2,0.3-0.6,0.5-0.6,1c-0.2,0-0.4,0-0.5,0.1c-1,1.2-2.5,1.7-3.8,2.4c-0.1,0-0.2,0-0.4,0
			c-3.5,0.9-6.7,0.2-9.4-2.2c-0.2-0.2-0.4-0.3-0.7-0.3c-2.7,0-5.3,0-8,0c-0.3,0-0.6,0-0.9-0.1c0-0.7,0-1.4,0.2-2.1
			c0.6-3.5,2.6-5.8,5.8-7.2c0.7-0.3,1.5-0.2,2-0.8C86.4,27,87.2,27,88,27z"/>
		<path class="st7" d="M57.1,41.2c2,0,4.1,0,6.1,0c-2.3,0.6-4.4,1.4-6.2,2.9c-2.8,2.2-4.8,5-5.4,8.6c-0.2,0-0.4,0-0.5,0
			c-1.2-0.4-2.5-0.4-3.8-0.8c-0.9-0.2-1,0.1-1,0.8c0,3.1,0,6.2,0,9.2c0,0.6-0.2,0.8-0.8,0.8c-0.9-0.1-1.7,0-2.6,0c0-2.6,0-5.3,0-7.9
			c0.2-1,0.4-2,0.5-3.1c0.6-2,1.6-3.7,2.7-5.4c1.7-1.9,3.7-3.4,6.1-4.4C53.9,41.5,55.4,41.1,57.1,41.2z"/>
		<path class="st7" d="M85.5,27c-0.5,0.6-1.3,0.5-2,0.8c-3.2,1.4-5.1,3.8-5.8,7.2c-0.1,0.7-0.1,1.4-0.2,2.1c-0.5,0-1.1,0-1.6,0
			c-1.3,0-1.3,0-1.5,1.3c-0.3,1.9-0.6,3.7-0.9,5.5c-1.3-0.7-2.6-1.4-4-2.2c0-0.2,0-0.5,0.1-0.7c0.2-0.3,0.1-0.7,0.1-1.1
			c0-1.8,0-3.7,0.4-5.5c0.8-3.9,4.6-7.2,8.4-7.4c0.2,0,0.4,0.1,0.6-0.1C81.3,27.1,83.4,27.1,85.5,27z"/>
		<path class="st5" d="M69.9,40.1c0,0.4,0.1,0.7-0.1,1.1C69.7,40.8,69.7,40.4,69.9,40.1z"/>
		<path class="st5" d="M79.2,27.1c-0.2,0.2-0.4,0.1-0.6,0.1C78.8,27,79,27,79.2,27.1z"/>
		<path class="st7" d="M97,39.8c1.3-0.7,2.8-1.2,3.8-2.4c0.1-0.1,0.3-0.1,0.5-0.1c0.1,1.8,0.3,3.6,0.4,5.5c0,1.1-0.1,2.1,0.2,3.2
			c-0.1,0.1-0.1,0.2-0.2,0.4c-1.2,0.3-2.3,0.7-3.6,1.1C97.7,44.8,97.4,42.3,97,39.8z"/>
		<path class="st0" d="M101.8,45.9c-0.2-1-0.2-2.1-0.2-3.2c0.7,1,1.1,2.1,1.6,3.1c-0.4,0-0.8,0-1.2,0
			C102,45.9,101.9,45.9,101.8,45.9z"/>
		<path class="st1" d="M97,39.8c0.4,2.5,0.7,5,1.1,7.5c1.2-0.4,2.4-0.7,3.6-1.1c0.2,2.6-0.2,5.2-1.1,7.7c-1.7,3.7-4.3,6.6-8,8.4
			c-0.6,0.3-1.3,0.5-2,0.8c-0.1,0.1-0.2,0.1-0.3,0.2c-0.8,0-1.6,0.5-2.4,0.3c-1.9-0.3-3.6-1-5.2-1.9c-1.3-0.7-2.3-1.7-3.4-2.5
			c0-1-0.1-1.9,0-2.9c0.1-4.2-1.3-7.8-4.1-10.8c-0.1-0.1-0.1-0.2-0.2-0.3c0.4-1.2,0.6-2.4,1.1-3.6c0.6-1.6,1.7-2.9,2.6-4.3
			c2.7,0,5.3,0,8,0c0.3,0,0.5,0.1,0.7,0.3c2.7,2.4,5.9,3.1,9.4,2.2C96.8,39.8,96.9,39.8,97,39.8z M81.9,46L81.9,46
			c-0.4-1-1.4-1.3-2.3-0.8c-0.9,0.4-1.2,1.6-0.8,2.4c0.5,0.9,1.6,1.2,2.4,0.7C82.2,47.9,82.4,47,81.9,46z M92.3,46L92.3,46
			c-0.2-0.9-0.9-1-1.6-1c-0.9,0-1.6,0.8-1.6,1.6c-0.1,0.8,0.5,1.6,1.2,1.9c0.8,0.2,1.7,0,2.1-0.8C92.7,47.2,93,46.6,92.3,46z
			 M85.5,55.8c1.4-0.1,2.7-0.3,3.9-1c0.3-0.2,0.7-0.5,0.4-0.9c-0.2-0.4-0.7-0.5-1.1-0.3c-0.2,0.1-0.3,0.2-0.5,0.2
			c-1.2,0.4-2.4,0.8-3.7,0.5c-0.7-0.2-1.4-0.4-2-0.7c-0.5-0.2-0.9-0.1-1.1,0.4c-0.2,0.5,0.1,0.7,0.5,0.9
			C83.1,55.4,84.3,55.7,85.5,55.8z M85.6,51.4c0.6,0,1.2,0,1.8,0c0.5,0,0.8-0.3,0.8-0.8c0-0.5-0.3-0.8-0.7-0.8
			c-1.2-0.1-2.5-0.1-3.7,0c-0.4,0-0.8,0.4-0.7,0.9c0.1,0.4,0.3,0.7,0.9,0.7C84.5,51.4,85,51.4,85.6,51.4z"/>
		<path class="st11" d="M90.3,63.3c0.1-0.1,0.2-0.1,0.3-0.2c0.8,0.7,1.8,1,2.6,1.7c-0.5,2.5-1.1,5-1.6,7.5c-0.1,0.6-0.3,0.7-0.8,0.4
			c-1-0.5-1.9-1.2-3-1.5c-0.6-0.6-1.4-0.8-2-1.3c0.2-0.3,0.7-0.1,0.9-0.3c2.1-0.3,3.7-2.5,3.5-4.7C90.3,64.3,90.3,63.8,90.3,63.3z"
			/>
		<path class="st12" d="M100.6,53.9c0.9-2.5,1.2-5,1.1-7.7c0.1-0.1,0.1-0.2,0.2-0.4c0.1,0,0.1,0,0.2,0c0.1,0.4,0.3,0.9,0.3,1.3
			c0.1,0.8,0.2,1.4,1.1,1.6c0.6,0.2,0.7,0.8,0.7,1.4c0,0.6-0.3,1.2-0.9,1.3c-0.7,0.1-0.7,0.6-0.9,1.1c-0.1,0.6-0.3,1.2-0.4,1.7
			C101.5,54.4,101.1,54,100.6,53.9z"/>
		<path class="st9" d="M51,52.7c0.2,0,0.4,0,0.5,0c2.1,0.6,4.2,0.8,6.4,1.3c5.3,1,10.7,2,16,3c1.9,0.4,1.9,0.4,1.9,2.3
			c0,1,0,1.9,0,2.9c0,0.6,0.2,0.8,0.8,0.7c0.9,0,1.7,0,2.6,0c0,0.4,0,0.8,0.1,1.2c0,0.9,0,1.8,0,2.7c0,1.9,0.1,3.8-0.4,5.7
			c-0.3,1.2-0.6,2.3-0.9,3.4c-0.9,1.6-1.7,3.3-2.9,4.7c-1.9,2.2-4.1,3.8-6.7,5c-0.6,0.2-1.2,0.4-1.7,0.7c-0.1,0-0.2,0-0.3,0.1
			c-0.9,0.2-1.8,0.6-2.7,0.5c-4.5-0.8-8.2-3-11-6.6c-2.2-2.7-3.4-5.8-3.9-9.2c-0.3-2.7-0.2-5.4-0.2-8c0-1.9,0.2-3.8,0.7-5.6
			C49.6,55.7,50.5,54.2,51,52.7z M68.6,66.9c-0.4-0.9-1.4-1.3-2.4-0.9c-1,0.4-1.5,1.7-1.1,2.7c0.5,1,1.7,1.5,2.7,1
			c1-0.4,1.4-1.5,1-2.5C68.8,67.1,68.7,67,68.6,66.9z M61.1,77.8c1.5,0,2.8-0.4,4.1-1c0.5-0.2,0.9-0.5,0.6-1.1
			c-0.3-0.6-0.7-0.7-1.3-0.4c-2.3,1.1-4.6,1.1-6.9,0c-0.6-0.3-1.1-0.2-1.3,0.4c-0.3,0.6,0.2,0.9,0.7,1.1
			C58.3,77.4,59.6,77.9,61.1,77.8z M57.2,67.8c0-1.1-0.9-2-2.1-2c-1.1,0-2,0.9-2,2c0,1.1,0.9,2.1,2,2.1
			C56.3,69.9,57.2,68.9,57.2,67.8z M61,72.3c0.6,0,1.3,0,1.9,0c0.6,0,1-0.4,1-1c0-0.7-0.5-0.8-1-0.8c-1.2,0-2.4,0-3.7,0
			c-0.6,0-1,0.2-1,0.8c0,0.7,0.4,0.9,1,1C59.8,72.3,60.4,72.3,61,72.3z"/>
		<path class="st13" d="M85.9,69.9c0.7,0.4,1.5,0.7,2,1.3c-1.8,2-2,4.1-1.1,6.6c1.4,4,2.3,8.1,3.4,12.2c0.1,0.5,0.1,0.8-0.3,1.2
			c-1.3,1.6-2.6,3.2-3.8,4.9c-0.3,0.5-0.5,0.5-0.9,0c-1.2-1.6-2.5-3.3-3.8-4.9c-0.3-0.4-0.4-0.7-0.2-1.2c1.4-5,2.7-10,4.1-14.9
			c0.1-0.5,0.1-0.9-0.2-1.3c0-0.2-0.1-0.3-0.1-0.5c0.4-1.1,0.3-2.1,0.2-3.2C85.3,69.9,85.6,69.9,85.9,69.9z"/>
		<path class="st11" d="M68.4,85.6c2.6-1.2,4.8-2.9,6.7-5c0,3.5,0,6.9,0,10.4c-0.4-0.2-0.7-0.5-1.1-0.7c0.2-0.5,0.2-0.8-0.4-0.9
			c-1.3-0.3-2.6-0.8-3.9-1.2c-0.4-0.3-0.9-0.6-1.3-0.9C68.4,86.6,68.4,86.1,68.4,85.6z"/>
		<path class="st9" d="M85,70c0.1,1.1,0.3,2.2-0.2,3.2c-0.1,0.2,0,0.3,0.1,0.5c-0.5,0-0.6,0.5-0.8,0.8c-0.8,1.2-3.4,2.2-4.5,1.7
			c0.2-0.8,0.4-1.7,0.5-2.5c0.1-0.4,0.1-0.5,0.5-0.6c0.9-0.1,1.3-0.7,1.4-1.5c0.1-0.7-0.2-1.5-0.9-1.7c-1-0.3-1.1-1-1.2-1.8
			c-0.1-0.5-0.2-1-0.3-1.5c0.6,0,1.1,0,1.7,0C83.1,67.1,84.3,68.3,85,70z"/>
		<path class="st10" d="M79.6,66.7c0.1,0.5,0.3,1,0.3,1.5c0.1,0.8,0.2,1.5,1.2,1.8c0.7,0.2,1,0.9,0.9,1.7c-0.1,0.8-0.6,1.4-1.4,1.5
			c-0.4,0-0.5,0.2-0.5,0.6c-0.1,0.8-0.3,1.7-0.5,2.5c-0.6,0-1.1-0.3-1.6-0.4c0.3-1.1,0.6-2.3,0.9-3.4c0.5-1.9,0.4-3.8,0.4-5.7
			C79.4,66.7,79.5,66.7,79.6,66.7z"/>
		<path class="st11" d="M94.4,79.3c-0.9,0-1.8,0-2.8,0c-0.5,0-0.8-0.2-0.7-0.7c0-0.3,0-0.5,0-0.8c0-0.4,0.1-0.7,0.6-0.6
			c1.9,0,3.9,0,5.8,0c0.4,0,0.6,0.2,0.6,0.6c0,0.3,0,0.7,0,1c0,0.5-0.2,0.6-0.7,0.6C96.3,79.2,95.3,79.3,94.4,79.3z"/>
		<path class="st10" d="M51,52.7c-0.6,1.6-1.4,3-1.8,4.6c-0.4,1.9-0.6,3.8-0.7,5.6c-0.1,2.7-0.2,5.4,0.2,8c0.4,3.4,1.7,6.5,3.9,9.2
			c2.9,3.6,6.6,5.7,11,6.6c0.9,0.2,1.8-0.3,2.7-0.5c0,0.6,0,1.2,0,1.8c-1.8,0.6-3.6,1.1-5.6,1.1c-0.5,0-1.2-0.3-1.5,0.2
			c-0.3,0.6,0.2,1.2,0.4,1.7c0.1,0.1,0.2,0.2,0.3,0.4c0.6,1,1.6,1.4,2.5,2c-2.2,0.7-4.1-0.4-5.2-1.6c-1.2-1.3-1.4-2.9-1.3-4.6
			c0-0.4,0.3-0.9-0.3-1.1c-1.1-0.5-2.3-1-3.4-1.5c-3.4-2-5.9-4.7-7.5-8.3c-0.2-0.5-0.5-0.6-1-0.3c-0.3,0.2-0.7,0.3-1,0.2
			c-0.2-0.8-0.4-1.7-0.5-2.5c-0.1-0.3-0.1-0.5-0.4-0.5c-0.9-0.1-1.5-0.6-1.5-1.6c-0.1-0.8,0.5-1.5,1.4-1.8c0.3-0.1,0.5-0.1,0.5-0.5
			c0.1-0.9,0.3-1.7,0.5-2.6c0.5-0.2,0.3-0.7,0.3-1c0-0.9,0-1.7,0-2.6c0-0.1,0-0.2,0-0.3c0.9,0,1.7,0,2.6,0c0.6,0,0.8-0.2,0.8-0.8
			c0-3.1,0-6.2,0-9.2c0-0.8,0.1-1.1,1-0.8C48.5,52.2,49.8,52.3,51,52.7z"/>
		<path class="st14" d="M28.8,68.5c0-0.9-0.3-1.8-0.5-2.6c0.7-0.8,1.8-1.1,2.6-1.7c0.5,0.6,0.2,1.2,0.2,1.8c0.1,3.1,2.9,5.3,5.6,4.3
			c0.4,0.1,0.3,0.4,0.3,0.7c0,0.6,0,1.1,0.1,1.7c0.5,1.8,1.7,3,3.5,3.6c-0.5,2.3-1,4.6-1.5,6.9c-0.4,1.6-1.8,2.9-3.5,3
			c-1.4,0.1-3.1-1-3.5-2.5c-0.7-2.9-1.3-5.9-2-8.9C29.7,72.6,29.3,70.5,28.8,68.5z"/>
		<path class="st9" d="M40.6,76.2c-1.8-0.6-3-1.7-3.5-3.6C37,72.1,37.1,71.5,37,71c0-0.3,0.1-0.6-0.3-0.7c-1.3-0.7-2.3-1.6-2.7-3
			c-0.1-0.3-0.2-0.6,0.3-0.6c2,0.1,3.9-0.4,5.8-0.9c-0.1,0.8,0.1,1.2,1,0.9c0.5-0.1,1,0,1.5,0c-0.2,0.9-0.4,1.7-0.5,2.6
			c-0.1,0.4-0.3,0.4-0.5,0.5c-1,0.3-1.5,1-1.4,1.8c0.1,0.9,0.6,1.5,1.5,1.6c0.4,0,0.4,0.3,0.4,0.5c0.2,0.8,0.3,1.7,0.5,2.5
			C41.9,76.5,41.3,76.2,40.6,76.2z"/>
		<path class="st0" d="M52.1,84.7c1.1,0.5,2.3,1,3.4,1.5c-1,0.6-2.1,1.2-3.1,1.9c-0.1,0-0.2,0-0.3,0C52.1,86.9,52.1,85.8,52.1,84.7z
			"/>
		<path class="st9" d="M43,62.7c0,0.1,0,0.2,0,0.3c-0.9,0.3-1.8,0.6-2.6,1.1c-0.2,0-0.3,0-0.4,0.1c-0.9,0-1.8,0.4-2.8,0.2
			c-4.7-1.1-8.3-3.7-10.5-8c-0.5-1-0.5-1,0.5-1.1c0.8-0.1,1.3-0.6,1.6-1.3c0.3-0.8,0.1-1.4-0.5-1.9c-0.5-0.5-1.2-0.6-1.9-0.4
			c-0.4,0.1-0.6,0.8-1,0.5c-0.4-0.2-0.1-0.8-0.3-1.2C25,50.8,25,50.5,25,50.2c0-2.3,0-4.7,0-7c0.2,0,0.5,0,0.7,0
			c4.4,0,7.4-2,9.2-6.1c0.7,4.1,2.9,6.8,6.6,8.4c-0.2,0.2-0.5,0.1-0.8,0.2c-0.9,0.2-1.8,1.1-1.9,1.9c-0.1,0.8,0.7,0.4,0.9,0.8
			c0,0.1-0.1,0.2-0.1,0.3c-0.3,0.8,0,1.5,0.7,1.9c0.7,0.4,1.4,0.4,2-0.1c0.7-0.5,0.9-1.2,0.4-2l0,0c0-0.1-0.1-0.2-0.1-0.3
			c0.4-0.1,0.9,0.2,1.1-0.2c0.2-0.4-0.2-0.8-0.4-1.2c-0.1-0.3-0.5-0.4-0.4-0.7c1.1,0.1,2.2,0.3,3.2,0.4c-1.2,1.6-2.2,3.4-2.7,5.4
			c-1.4,0.7-1.7,2-0.5,3.1C42.9,57.5,43,60.1,43,62.7z M31.4,48.4c0.2-0.4,1,0,0.9-0.7c-0.1-0.5-0.3-0.9-0.6-1.3
			c-1-1.1-2.8-1-3.9,0.3c-0.3,0.4-0.6,0.8-0.4,1.3c0.2,0.4,0.7,0.1,1.1,0.2c-0.6,1.3-0.2,2.4,1,2.7C30.9,51.3,31.8,50.1,31.4,48.4z
			 M35.5,58.4c1.3,0,2.5-0.3,3.6-0.9c0.4-0.2,0.7-0.5,0.4-1c-0.3-0.5-0.6-0.5-1.1-0.2c-1.9,0.9-3.9,1-5.8,0
			c-0.5-0.2-0.9-0.3-1.1,0.2c-0.3,0.5,0.1,0.8,0.6,1C33.2,58.1,34.3,58.4,35.5,58.4z M35.5,53.6c0.6,0,1.1,0,1.7,0
			c0.5,0,0.8-0.2,0.9-0.7c0-0.5-0.3-0.7-0.8-0.7c-1.1,0-2.3,0-3.4,0c-0.4,0-0.8,0.2-0.8,0.7c0,0.5,0.3,0.7,0.8,0.7
			C34.5,53.6,35,53.6,35.5,53.6z"/>
		<path class="st10" d="M43,46c0,0.3,0.3,0.5,0.4,0.7c0.2,0.4,0.6,0.8,0.4,1.2c-0.2,0.4-0.7,0.1-1.1,0.2c-1.1-1-1.9-0.9-3,0.2
			c-0.2-0.4-1.1,0-0.9-0.8c0.1-0.8,1-1.8,1.9-1.9c0.3,0,0.5,0.1,0.8-0.2C42,45.6,42.5,45.8,43,46z"/>
		<path class="st10" d="M25,43.2c0,2.3,0,4.7,0,7c0,0.3,0,0.6,0.1,0.8c0.2,0.4-0.1,1,0.3,1.2c0.4,0.2,0.6-0.4,1-0.5
			c0.7-0.2,1.4-0.1,1.9,0.4c0.6,0.5,0.8,1.2,0.5,1.9c-0.3,0.7-0.8,1.2-1.6,1.3c-1,0.1-1,0.1-0.5,1.1c2.2,4.3,5.8,7,10.5,8
			c0.9,0.2,1.8-0.1,2.8-0.2c0,0.5,0.1,1,0.1,1.4c-1.9,0.5-3.8,1-5.8,0.9c-0.5,0-0.4,0.3-0.3,0.6c0.4,1.4,1.4,2.4,2.7,3
			C34,71.2,31.2,69,31.1,66c0-0.6,0.2-1.2-0.2-1.8c-1.3-0.5-2.5-1.1-3.7-1.8c-2.2-1.6-4-3.4-5.2-5.9c-0.4-0.8-0.7-1.4-1.7-0.8
			c-0.1,0.1-0.3,0-0.4,0c0.1-0.7-0.2-1.4-0.3-2.1c-0.1-0.3-0.3-0.4-0.5-0.5c-0.7-0.3-1.1-0.6-1.1-1.4c0-0.8,0.4-1.2,1.1-1.4
			c0.6-0.2,0.6-0.7,0.7-1.1c0.1-0.5,0.1-1.1,0.2-1.6c0.5-0.1,0.4-0.4,0.4-0.8c0-1.6,0-3.2,0.1-4.7c0-0.4,0-0.8,0.6-0.4
			C22.1,42.6,23.6,42.9,25,43.2z"/>
		<path class="st8" d="M19.8,55.7c0.1,0,0.3,0.1,0.4,0c1-0.6,1.3-0.1,1.7,0.8c1.2,2.5,3,4.3,5.2,5.9c-2.6,0-5.1,0-7.7,0
			c-0.5,0-0.6-0.2-0.6-0.6c0-2,0-4,0-6C19.2,55.7,19.5,55.7,19.8,55.7z"/>
		<path class="st6" d="M52.5,88.1c1-0.6,2.1-1.2,3.1-1.9c0.6,0.2,0.3,0.7,0.3,1.1c-0.1,1.7,0.1,3.3,1.3,4.6c1,1.2,3,2.2,5.2,1.6
			c2.4-0.3,4.1-2.6,3.9-5.4c0-0.6,0-1.2,0-1.8c0.1,0,0.2,0,0.3-0.1c0.6,0.3,1.1,0.8,1.8,0.9c0.4,0.3,0.9,0.6,1.3,0.9
			c-0.8,2.6-1.6,5.3-2.3,7.9c-0.1,0.3-0.2,0.6-0.3,0.9c-1.2-0.3-2.2-1.3-3.4-1.6c-0.6-0.6-1.5-0.9-2.2-1.4c-0.2-0.1-0.4-0.1-0.5,0
			c-0.8,0.5-1.7,0.8-2.3,1.4c-0.6,0.1-1.2,0.4-1.7,0.8c-0.6,0.4-1.4,0.5-1.7,1.2C54.3,94.2,53.4,91.1,52.5,88.1z"/>
		<path class="st3" d="M63.6,95.2c1.2,0.3,2.2,1.3,3.4,1.6c-0.6,2.5-1.4,4.9-2.1,7.3c-0.3,1.2-0.7,2.4-1,3.6c-0.2,0-0.3-0.1-0.3-0.3
			c-0.7-2.7-1.4-5.5-2.1-8.2c-0.1-0.4,0-0.7,0.2-1C62.4,97.3,63,96.3,63.6,95.2z"/>
		<path class="st3" d="M55.2,97.2c0.3-0.7,1.2-0.8,1.7-1.2c0.5-0.4,1.1-0.7,1.7-0.8c0.7,1.2,1.7,2.2,2.1,3.5
			c0.3,1.2-0.5,2.6-0.8,3.9c-0.4,1.6-0.8,3.2-1.2,4.7c-0.1,0.2,0,0.6-0.4,0.6c-1-3.4-2-6.8-3-10.3C55.2,97.6,55.2,97.4,55.2,97.2z"
			/>
		<path class="st12" d="M85,70c-0.8-1.7-1.9-2.9-3.8-3.3C81,65.8,81,64.8,81,63.9c0-0.3,0.2-0.7-0.3-0.8c-0.4-0.3-0.9-0.4-1.4-0.5
			c0-1.1,0-2.3,0-3.4c1.2,0.8,2.2,1.8,3.4,2.5c1.7,0.9,3.4,1.6,5.2,1.9c0.8,0.1,1.6-0.3,2.4-0.3c0,0.5,0,1.1,0,1.6
			c-0.3,0.1-0.6,0.1-0.9,0.2c-1.5,0.4-3.1,0.7-4.7,0.7c-1,0-1,0.1-0.7,1c0.5,1.3,1.6,2,2.7,2.7c-0.3,0.2-0.7,0.1-0.9,0.3
			C85.6,69.9,85.3,69.9,85,70z"/>
		<path class="st12" d="M78.5,37.3c-0.9,1.4-1.9,2.8-2.6,4.3c-0.5,1.2-0.7,2.4-1.1,3.6c-0.5-0.3-0.9-0.7-1.2-1.1
			c0.3-1.8,0.6-3.7,0.9-5.5c0.2-1.3,0.1-1.3,1.5-1.3c0.5,0,1.1,0,1.6,0C77.9,37.2,78.2,37.3,78.5,37.3z"/>
		<path class="st0" d="M79.3,62.6c0.5,0.2,1,0.2,1.4,0.5c-0.4,0.4-0.9,0.6-1.4,0.9c0-0.4,0-0.8-0.1-1.2
			C79.2,62.7,79.2,62.7,79.3,62.6z"/>
		<path class="st10" d="M42.9,54.8c-1.1-1-0.9-2.3,0.5-3.1C43.3,52.8,43.1,53.8,42.9,54.8z"/>
		<path d="M85.5,55.8c-1.2-0.1-2.4-0.4-3.6-1c-0.4-0.2-0.7-0.4-0.5-0.9c0.2-0.5,0.7-0.6,1.1-0.4c0.7,0.3,1.3,0.5,2,0.7
			c1.3,0.3,2.5-0.1,3.7-0.5c0.2-0.1,0.3-0.2,0.5-0.2c0.4-0.2,0.8-0.1,1.1,0.3c0.3,0.5-0.1,0.7-0.4,0.9
			C88.3,55.5,86.9,55.7,85.5,55.8z"/>
		<path class="st5" d="M92.3,46c0.7,0.5,0.4,1.2,0.1,1.7c-0.4,0.7-1.3,1-2.1,0.8c-0.8-0.2-1.3-1-1.2-1.9c0.1-0.8,0.8-1.6,1.6-1.6
			C91.4,45,92.2,45.1,92.3,46c-0.1-0.1-0.2-0.1-0.3-0.2c-0.4-0.2-0.7-0.1-1,0.1c-0.3,0.3-0.3,0.6-0.1,1c0.2,0.3,0.5,0.4,0.9,0.3
			c0.4-0.1,0.5-0.5,0.4-0.9C92.3,46.3,92.3,46.2,92.3,46z"/>
		<path class="st5" d="M81.9,46c0.5,0.9,0.3,1.9-0.6,2.4c-0.9,0.5-2,0.1-2.4-0.7c-0.5-0.9-0.1-2,0.8-2.4
			C80.5,44.8,81.5,45.1,81.9,46c-0.2,0.1-0.3-0.1-0.4-0.2c-0.5-0.3-0.9-0.1-1.1,0.3c-0.2,0.5,0,0.9,0.5,1.1c0.5,0.2,0.8-0.1,1-0.6
			C81.9,46.4,81.7,46.2,81.9,46z"/>
		<path class="st10" d="M85.6,51.4c-0.6,0-1.1,0-1.7,0c-0.5,0-0.8-0.3-0.9-0.7c-0.1-0.5,0.3-0.8,0.7-0.9c1.2-0.1,2.5,0,3.7,0
			c0.4,0,0.7,0.3,0.7,0.8c0,0.5-0.3,0.7-0.8,0.8C86.8,51.4,86.2,51.4,85.6,51.4z"/>
		<path class="st1" d="M86.8,69.6c-1.1-0.7-2.2-1.4-2.7-2.7c-0.3-0.9-0.3-1,0.7-1c1.6,0,3.1-0.3,4.7-0.7c0.3-0.1,0.6-0.1,0.9-0.2
			C90.5,67.1,88.9,69.2,86.8,69.6z"/>
		<path d="M61.1,77.8c-1.4,0-2.8-0.4-4.1-1c-0.5-0.2-1-0.5-0.7-1.1c0.3-0.6,0.7-0.7,1.3-0.4c2.3,1.1,4.6,1.1,6.9,0
			c0.6-0.3,1.1-0.2,1.3,0.4c0.3,0.6-0.2,0.9-0.6,1.1C63.9,77.4,62.5,77.9,61.1,77.8z"/>
		<path class="st5" d="M68.8,67.2c0.4,1,0,2.1-1,2.5c-1,0.4-2.2,0-2.7-1c-0.4-1,0-2.2,1.1-2.7c1-0.4,2,0,2.4,0.9
			c-0.2-0.1-0.3-0.2-0.5-0.2c-0.6-0.2-1,0.1-1.1,0.6c-0.2,0.5,0,0.9,0.6,1.1c0.5,0.2,0.9-0.1,1.1-0.6C68.8,67.5,68.6,67.3,68.8,67.2
			z"/>
		<path class="st5" d="M57.2,67.8c0,1.1-0.9,2.1-2,2.1c-1.1,0-2-0.9-2-2.1c0-1.1,0.9-2,2-2C56.2,65.8,57.2,66.7,57.2,67.8z
			 M56.8,67.5c0-0.6-0.3-0.9-0.9-1c-0.5,0-0.9,0.3-0.9,0.8c0,0.5,0.3,0.9,0.9,0.9C56.5,68.3,56.7,68,56.8,67.5z"/>
		<path class="st10" d="M61,72.3c-0.6,0-1.2,0-1.8,0c-0.6,0-1.1-0.2-1-1c0-0.7,0.4-0.8,1-0.8c1.2,0,2.4,0,3.7,0c0.6,0,1.1,0.1,1,0.8
			c0,0.6-0.4,1-1,1C62.3,72.3,61.7,72.3,61,72.3z"/>
		<path class="st11" d="M79.2,64c0.5-0.2,1-0.5,1.4-0.9c0.5,0.1,0.3,0.5,0.3,0.8c0,0.9-0.1,1.9,0.2,2.8c-0.6,0-1.1,0-1.7,0
			c-0.1,0-0.2,0-0.4,0C79.2,65.8,79.2,64.9,79.2,64z"/>
		<path class="st15" d="M68.8,67.2c-0.2,0.1,0,0.3-0.1,0.5c-0.2,0.5-0.6,0.8-1.1,0.6c-0.5-0.1-0.7-0.6-0.6-1.1
			c0.2-0.5,0.6-0.8,1.1-0.6c0.2,0.1,0.3,0.1,0.5,0.2C68.7,67,68.8,67.1,68.8,67.2z"/>
		<path class="st0" d="M68.4,87.1c-0.7-0.2-1.2-0.6-1.8-0.9c0.6-0.2,1.2-0.4,1.7-0.7C68.4,86.1,68.4,86.6,68.4,87.1z"/>
		<path class="st9" d="M66.3,88.1c0.1,2.7-1.6,5.1-3.9,5.4c-0.9-0.6-1.9-1-2.5-2c-0.1-0.1-0.2-0.2-0.3-0.4c-0.3-0.6-0.8-1.2-0.4-1.7
			c0.3-0.5,1-0.2,1.5-0.2C62.6,89.1,64.5,88.6,66.3,88.1z"/>
		<path class="st11" d="M40.1,65.8c0-0.5-0.1-1-0.1-1.4c0.1-0.2,0.3-0.1,0.4-0.1c0.8,0.5,1.6,1.1,2.5,1.5c0,0.4,0.1,0.8-0.3,1
			c-0.5,0-1-0.1-1.5,0C40.1,67,40,66.6,40.1,65.8z"/>
		<path class="st0" d="M42.9,65.7c-0.9-0.4-1.7-0.9-2.5-1.5c0.8-0.5,1.7-0.8,2.6-1.1C43,63.9,42.9,64.8,42.9,65.7z"/>
		<path d="M35.5,58.4c-1.2,0-2.3-0.3-3.4-0.9c-0.4-0.2-0.8-0.5-0.6-1c0.2-0.5,0.7-0.4,1.1-0.2c1.9,0.9,3.9,0.9,5.8,0
			c0.4-0.2,0.8-0.2,1.1,0.2c0.3,0.5-0.1,0.8-0.4,1C38,58.1,36.8,58.4,35.5,58.4z"/>
		<path class="st10" d="M28.5,48.2c-0.4-0.1-0.9,0.2-1.1-0.2c-0.2-0.5,0.1-0.9,0.4-1.3c1.1-1.3,2.9-1.4,3.9-0.3
			c0.3,0.4,0.5,0.8,0.6,1.3c0.1,0.7-0.8,0.3-0.9,0.7c-0.1-0.1-0.2-0.1-0.3-0.2l0,0C30.4,47.3,29.6,47.3,28.5,48.2z"/>
		<path class="st5" d="M31.1,48.2c0.1,0.1,0.2,0.1,0.3,0.2c0.4,1.7-0.5,2.8-2,2.5c-1.2-0.3-1.6-1.4-1-2.7
			C29.6,47.3,30.4,47.3,31.1,48.2c-0.2,0.2-0.3,0-0.5,0c-0.4,0-0.7,0.2-0.8,0.6c-0.1,0.3,0,0.6,0.3,0.8c0.3,0.2,0.6,0.2,0.9,0
			c0.3-0.2,0.4-0.5,0.2-0.9C31.2,48.5,30.9,48.4,31.1,48.2z"/>
		<path class="st5" d="M39.7,48.4c1-1.1,1.8-1.2,3-0.2c0,0.1,0.1,0.2,0.1,0.3c-0.4-0.2-0.8-0.6-1.3-0.2c-0.3,0.3-0.3,0.6-0.2,0.9
			c0.1,0.3,0.5,0.5,0.8,0.4c0.6-0.1,0.6-0.6,0.6-1.1c0.4,0.8,0.2,1.5-0.4,2c-0.6,0.5-1.3,0.5-2,0.1c-0.7-0.5-1-1.1-0.7-1.9
			C39.7,48.6,39.7,48.5,39.7,48.4z"/>
		<path class="st10" d="M35.5,53.6c-0.5,0-1.1,0-1.6,0c-0.5,0-0.8-0.2-0.8-0.7c0-0.5,0.3-0.7,0.8-0.7c1.1,0,2.3,0,3.4,0
			c0.5,0,0.8,0.2,0.8,0.7c0,0.5-0.4,0.7-0.9,0.7C36.7,53.6,36.1,53.6,35.5,53.6z"/>
		<path class="st14" d="M92.3,46c0,0.1,0,0.2,0,0.4c0.1,0.4,0,0.7-0.4,0.9c-0.4,0.1-0.7,0-0.9-0.3c-0.2-0.3-0.2-0.7,0.1-1
			c0.3-0.3,0.6-0.4,1-0.1C92.2,45.9,92.3,46,92.3,46C92.4,46.1,92.3,46,92.3,46z"/>
		<path class="st14" d="M81.9,46c-0.2,0.2,0,0.4,0,0.6c-0.2,0.5-0.5,0.8-1,0.6c-0.5-0.2-0.7-0.6-0.5-1.1c0.2-0.5,0.6-0.6,1.1-0.3
			C81.6,45.9,81.7,46.2,81.9,46C81.9,46.1,81.9,46,81.9,46z"/>
		<path class="st14" d="M56.8,67.5c-0.1,0.5-0.3,0.8-0.9,0.8c-0.6,0-0.9-0.4-0.9-0.9c0-0.5,0.4-0.8,0.9-0.8
			C56.5,66.6,56.8,66.9,56.8,67.5z"/>
		<path class="st14" d="M31.1,48.2c-0.2,0.2,0.1,0.3,0.1,0.4c0.1,0.4,0.1,0.6-0.2,0.9c-0.3,0.2-0.6,0.2-0.9,0
			c-0.3-0.2-0.3-0.5-0.3-0.8c0.1-0.4,0.4-0.6,0.8-0.6C30.8,48.2,30.9,48.4,31.1,48.2C31.1,48.2,31.1,48.2,31.1,48.2z"/>
		<path class="st14" d="M42.8,48.5c0,0.5,0,1-0.6,1.1c-0.4,0.1-0.7,0-0.8-0.4c-0.1-0.3-0.1-0.6,0.2-0.9C42,48,42.4,48.3,42.8,48.5
			C42.8,48.6,42.8,48.5,42.8,48.5z"/>
	</g>
</g>
<g id="Regmark">
</g>
</svg>
