<?xml version="1.0" encoding="utf-8"?>
<!-- Generator: Adobe Illustrator 24.2.3, SVG Export Plug-In . SVG Version: 6.00 Build 0)  -->
<svg version="1.1" id="Layer_1" xmlns="http://www.w3.org/2000/svg" xmlns:xlink="http://www.w3.org/1999/xlink" x="0px" y="0px"
	 viewBox="0 0 281 40" style="enable-background:new 0 0 281 40;" xml:space="preserve">
<style type="text/css">
	.st0{fill-rule:evenodd;clip-rule:evenodd;fill:#FFFFFF;}
	.st1{enable-background:new    ;}
	.st2{fill-rule:evenodd;clip-rule:evenodd;}
	.st3{fill-rule:evenodd;clip-rule:evenodd;fill:#00D3FF;}
	.st4{fill-rule:evenodd;clip-rule:evenodd;fill:#FFD000;}
	.st5{fill-rule:evenodd;clip-rule:evenodd;fill:#F83548;}
	.st6{fill-rule:evenodd;clip-rule:evenodd;fill:#00F076;}
</style>
<g>
	<path class="st0" d="M130,40H5c-2.8,0-5-2.3-5-5V5c0-2.8,2.3-5,5-5h125c2.8,0,5,2.3,5,5v30C135,37.8,132.8,40,130,40"/>
	<g>
		<g>
			<path d="M29.2,18.9c0-3.2,2.6-4.8,2.8-4.9c-1.5-2.2-3.9-2.5-4.7-2.5c-2-0.2-3.9,1.2-4.9,1.2s-2.6-1.2-4.2-1.1
				c-2.1,0-4.1,1.3-5.2,3.2c-2.3,3.9-0.6,9.7,1.6,12.9c1.1,1.6,2.4,3.3,4,3.2s2.2-1,4.2-1c1.9,0,2.5,1,4.2,1s2.8-1.6,3.9-3.1
				c1.3-1.8,1.8-3.5,1.8-3.6C32.5,24,29.2,22.8,29.2,18.9z M26,9.4c0.9-1.1,1.5-2.6,1.3-4.1c-1.3,0.1-2.8,0.9-3.8,1.9
				c-0.8,0.9-1.5,2.5-1.3,3.9C23.6,11.3,25.1,10.5,26,9.4z"/>
		</g>
		<g>
			<path d="M52.7,30.6h-2.3l-1.2-3.9h-4.3l-1.2,3.9h-2.2l4.3-13.3h2.6L52.7,30.6z M48.8,25.1l-1.1-3.5c-0.1-0.4-0.3-1.2-0.7-2.5l0,0
				c-0.2,0.8-0.4,1.7-0.6,2.5l-1.1,3.5C45.2,25.1,48.8,25.1,48.8,25.1z M63.7,25.7c0,1.6-0.4,2.9-1.3,3.9c-0.8,0.8-1.8,1.3-2.9,1.3
				c-1.3,0-2.2-0.5-2.7-1.4l0,0v5.1h-2.1V24.2c0-1,0-2.1-0.1-3.2h1.9l0.1,1.5l0,0c0.7-1.1,1.8-1.7,3.2-1.7c1.1,0,2.1,0.4,2.8,1.3
				C63.3,23.1,63.7,24.2,63.7,25.7z M61.5,25.8c0-0.9-0.2-1.7-0.6-2.3c-0.5-0.6-1.1-0.9-1.9-0.9c-0.5,0-1,0.2-1.4,0.5
				c-0.4,0.4-0.7,0.8-0.8,1.4c-0.1,0.3-0.1,0.5-0.1,0.7v1.6c0,0.7,0.2,1.3,0.6,1.8s1,0.7,1.7,0.7c0.8,0,1.4-0.3,1.9-0.9
				C61.3,27.6,61.5,26.8,61.5,25.8z M74.7,25.7c0,1.6-0.4,2.9-1.3,3.9c-0.8,0.8-1.8,1.3-2.9,1.3c-1.3,0-2.2-0.5-2.7-1.4l0,0v5.1
				h-2.1V24.2c0-1,0-2.1-0.1-3.2h1.9l0.1,1.5l0,0c0.7-1.1,1.8-1.7,3.2-1.7c1.1,0,2.1,0.4,2.8,1.3C74.4,23.1,74.7,24.2,74.7,25.7z
				 M72.6,25.8c0-0.9-0.2-1.7-0.6-2.3c-0.5-0.6-1.1-0.9-1.9-0.9c-0.5,0-1,0.2-1.4,0.5c-0.4,0.4-0.7,0.8-0.8,1.4
				c-0.1,0.3-0.1,0.5-0.1,0.7v1.6c0,0.7,0.2,1.3,0.6,1.8s1,0.7,1.7,0.7c0.8,0,1.4-0.3,1.9-0.9C72.3,27.6,72.6,26.8,72.6,25.8z
				 M87.1,26.9c0,1.1-0.4,2.1-1.2,2.8c-0.9,0.8-2.1,1.2-3.6,1.2c-1.4,0-2.6-0.3-3.4-0.8l0.5-1.8c0.9,0.6,2,0.8,3.1,0.8
				c0.8,0,1.4-0.2,1.9-0.5c0.4-0.4,0.7-0.8,0.7-1.5c0-0.5-0.2-1-0.6-1.4s-1-0.7-1.8-1c-2.3-0.9-3.5-2.1-3.5-3.8c0-1.1,0.4-2,1.2-2.7
				c0.8-0.7,1.9-1,3.3-1c1.2,0,2.2,0.2,3,0.6L86,19.5c-0.8-0.4-1.6-0.6-2.5-0.6c-0.8,0-1.3,0.2-1.8,0.6c-0.3,0.3-0.5,0.7-0.5,1.2
				s0.2,1,0.6,1.3s1,0.7,1.9,1c1.1,0.5,2,1,2.5,1.6C86.8,25.2,87.1,26,87.1,26.9z M94.1,22.6h-2.3v4.7c0,1.2,0.4,1.8,1.2,1.8
				c0.4,0,0.7,0,0.9-0.1l0.1,1.6c-0.4,0.2-1,0.2-1.7,0.2c-0.8,0-1.5-0.3-2-0.8s-0.7-1.4-0.7-2.6v-4.8h-1.4V21h1.4v-1.8l2.1-0.6V21
				H94C94.1,21,94.1,22.6,94.1,22.6z M104.7,25.7c0,1.5-0.4,2.7-1.3,3.6c-0.9,1-2.1,1.5-3.5,1.5s-2.5-0.5-3.4-1.4
				c-0.8-0.9-1.3-2.1-1.3-3.5c0-1.5,0.4-2.7,1.3-3.7c0.9-0.9,2-1.4,3.5-1.4c1.4,0,2.5,0.5,3.4,1.4C104.3,23.1,104.7,24.3,104.7,25.7
				z M102.5,25.8c0-0.9-0.2-1.6-0.6-2.3c-0.4-0.8-1.1-1.1-1.9-1.1c-0.9,0-1.5,0.4-2,1.1c-0.4,0.6-0.6,1.4-0.6,2.3
				c0,0.9,0.2,1.6,0.6,2.3c0.5,0.8,1.1,1.1,1.9,1.1s1.5-0.4,1.9-1.2C102.3,27.5,102.5,26.7,102.5,25.8z M111.7,22.9
				c-0.2,0-0.4-0.1-0.7-0.1c-0.8,0-1.3,0.3-1.7,0.9c-0.4,0.5-0.5,1.1-0.5,1.9v5h-2.1V24c0-1.1,0-2.1-0.1-3h1.9l0.1,1.8h0.1
				c0.2-0.6,0.6-1.1,1.1-1.5c0.4-0.3,1-0.5,1.5-0.5c0.2,0,0.4,0,0.5,0C111.7,20.9,111.7,22.9,111.7,22.9z M121.2,25.4
				c0,0.3,0,0.6-0.1,1h-6.4c0,0.9,0.3,1.7,0.9,2.2c0.5,0.4,1.2,0.7,2.1,0.7s1.8-0.2,2.6-0.5l0.3,1.5c-0.9,0.4-2,0.6-3.2,0.6
				c-1.5,0-2.7-0.4-3.5-1.3c-0.8-0.9-1.3-2-1.3-3.5c0-1.4,0.4-2.7,1.2-3.6c0.8-1,1.9-1.5,3.4-1.5c1.4,0,2.4,0.5,3.1,1.5
				C120.9,23.2,121.2,24.2,121.2,25.4z M119.2,24.8c0-0.6-0.1-1.2-0.4-1.6c-0.4-0.6-0.9-0.9-1.7-0.9c-0.7,0-1.3,0.3-1.7,0.9
				c-0.4,0.5-0.6,1-0.6,1.7L119.2,24.8L119.2,24.8z"/>
		</g>
		<g class="st1">
			<path d="M45.1,7v0.8h-1.5v4.3h-0.9V7.8h-1.5V7H45.1z"/>
			<path d="M48.9,7v0.7h-2.2v1.4h1.8v0.7h-1.8v1.4h2.2V12h-3.2V7H48.9z"/>
			<path d="M52.4,10.2c0,0.1,0.1,0.2,0.1,0.2c0-0.1,0.1-0.2,0.1-0.2c0-0.1,0.1-0.2,0.1-0.2l1.5-2.8c0,0,0-0.1,0.1-0.1c0,0,0,0,0.1,0
				h0.1h0.1h0.7v5.1h-0.8V8.9c0-0.1,0-0.1,0-0.2s0-0.1,0-0.2L53,11.4c0,0.1-0.1,0.1-0.1,0.2s-0.1,0.1-0.2,0.1h-0.1
				c-0.1,0-0.1,0-0.2-0.1s-0.1-0.1-0.1-0.2l-1.6-2.9c0,0.1,0,0.2,0,0.2c0,0.1,0,0.1,0,0.2v3.3h-0.8V7h0.7h0.1h0.1c0,0,0,0,0.1,0
				c0,0,0,0,0.1,0.1l1.5,2.8C52.3,10.1,52.3,10.2,52.4,10.2z"/>
			<path d="M58.3,11.4c0.2,0,0.3,0,0.5-0.1s0.3-0.1,0.4-0.3c0.1-0.1,0.2-0.2,0.2-0.4c0.1-0.2,0.1-0.3,0.1-0.5v-3h0.9v3
				c0,0.3,0,0.6-0.1,0.8c-0.1,0.3-0.2,0.5-0.4,0.7s-0.4,0.3-0.7,0.4s-0.6,0.2-0.9,0.2s-0.6-0.1-0.9-0.2s-0.5-0.2-0.7-0.4
				s-0.3-0.4-0.4-0.7s-0.1-0.5-0.1-0.8v-3h0.9v3c0,0.2,0,0.4,0.1,0.5c0.1,0.2,0.1,0.3,0.2,0.4s0.2,0.2,0.4,0.3S58.1,11.4,58.3,11.4z
				"/>
			<path d="M62.3,9.2h0.2c0.1,0,0.2,0,0.2,0c0.1,0,0.1-0.1,0.2-0.1l1.4-1.8c0.1-0.1,0.1-0.1,0.2-0.2c0.1,0,0.1,0,0.2,0h0.8l-1.7,2.1
				c-0.1,0.1-0.1,0.1-0.2,0.2s-0.1,0.1-0.2,0.1c0.1,0,0.1,0.1,0.2,0.1c0.1,0.1,0.1,0.1,0.2,0.2l1.8,2.4h-0.8c-0.1,0-0.2,0-0.3,0
				c-0.1,0-0.1-0.1-0.1-0.1l-1.4-2c0-0.1-0.1-0.1-0.2-0.1s-0.1,0-0.2,0h-0.3v2.2h-0.9V7h0.9C62.3,7,62.3,9.2,62.3,9.2z"/>
			<path d="M70.7,12.1H70c-0.1,0-0.1,0-0.2-0.1c-0.1,0-0.1-0.1-0.1-0.2l-0.4-1h-2.1l-0.4,1c0,0.1-0.1,0.1-0.1,0.1
				c-0.1,0-0.1,0.1-0.2,0.1h-0.7l2-5.1h1L70.7,12.1z M67.4,10.2H69l-0.6-1.7c0-0.1-0.1-0.2-0.1-0.3c0-0.1-0.1-0.2-0.1-0.3
				c0,0.1-0.1,0.2-0.1,0.3S68,8.4,68,8.5L67.4,10.2z"/>
			<path d="M71.8,7.1L71.8,7.1c0.1,0,0.1,0,0.1,0.1s0,0,0.1,0.1l2.7,3.4c0-0.1,0-0.2,0-0.2c0-0.1,0-0.2,0-0.2V7h0.8v5.1H75
				c-0.1,0-0.1,0-0.2,0L74.7,12L72,8.6c0,0.1,0,0.1,0,0.2s0,0.1,0,0.2v3.1h-0.8V7h0.5L71.8,7.1z"/>
			<path d="M82.3,9.6c0,0.4-0.1,0.7-0.2,1s-0.3,0.6-0.5,0.8s-0.5,0.4-0.8,0.5s-0.7,0.2-1,0.2h-1.9V7h1.9c0.4,0,0.7,0.1,1,0.2
				s0.6,0.3,0.8,0.5s0.4,0.5,0.5,0.8S82.3,9.2,82.3,9.6z M81.4,9.6c0-0.3,0-0.5-0.1-0.7S81.1,8.5,81,8.3c-0.1-0.2-0.3-0.3-0.5-0.4
				s-0.4-0.1-0.7-0.1h-1v3.6h1c0.2,0,0.5,0,0.7-0.1s0.4-0.2,0.5-0.4c0.1-0.2,0.2-0.3,0.3-0.6S81.4,9.9,81.4,9.6z"/>
			<path d="M84.1,12.1h-0.9V7h0.9V12.1z"/>
		</g>
	</g>
</g>
<g>
	<path class="st0" d="M276,40H151c-2.8,0-5-2.3-5-5V5c0-2.8,2.3-5,5-5h125c2.8,0,5,2.3,5,5v30C281,37.8,278.8,40,276,40"/>
	<path class="st2" d="M252.9,30h1.9V17.5h-1.9V30z M269.7,22l-2.1,5.4h-0.1l-2.2-5.4h-2l3.3,7.6l-1.9,4.2h1.9l5.1-11.8L269.7,22
		L269.7,22z M259.1,28.5c-0.6,0-1.5-0.3-1.5-1.1c0-1,1.1-1.3,2-1.3c0.8,0,1.2,0.2,1.7,0.4C261.2,27.7,260.2,28.5,259.1,28.5
		L259.1,28.5z M259.3,21.7c-1.4,0-2.8,0.6-3.3,1.9l1.7,0.7c0.4-0.7,1-0.9,1.7-0.9c1,0,1.9,0.6,2,1.6v0.1c-0.3-0.2-1.1-0.5-1.9-0.5
		c-1.8,0-3.6,1-3.6,2.8c0,1.7,1.5,2.8,3.1,2.8c1.3,0,1.9-0.6,2.4-1.2h0.1v1h1.8v-4.8C263.1,22.9,261.5,21.7,259.3,21.7L259.3,21.7z
		 M247.8,23.5h-2.7v-4.3h2.7c1.4,0,2.2,1.2,2.2,2.1C250,22.3,249.2,23.5,247.8,23.5z M247.8,17.5h-4.5V30h1.9v-4.7h2.6
		c2.1,0,4.1-1.5,4.1-3.9S249.8,17.5,247.8,17.5z M223.4,28.5c-1.3,0-2.4-1.1-2.4-2.6s1.1-2.6,2.4-2.6s2.3,1.1,2.3,2.6
		C225.7,27.5,224.7,28.5,223.4,28.5z M225.5,22.7L225.5,22.7c-0.5-0.5-1.3-1-2.3-1c-2.1,0-4.1,1.9-4.1,4.3s1.9,4.2,4.1,4.2
		c1,0,1.8-0.5,2.2-1h0.1v0.6c0,1.6-0.9,2.5-2.3,2.5c-1.1,0-1.9-0.8-2.1-1.5l-1.6,0.7c0.5,1.1,1.7,2.5,3.8,2.5c2.2,0,4-1.3,4-4.4V22
		h-1.8V22.7z M228.6,30h1.9V17.5h-1.9V30z M233.2,25.8c0-1.6,1.3-2.5,2.2-2.5c0.7,0,1.4,0.4,1.6,0.9L233.2,25.8L233.2,25.8z
		 M239,24.4c-0.4-1-1.4-2.7-3.6-2.7s-4,1.7-4,4.3c0,2.4,1.8,4.3,4.2,4.3c1.9,0,3.1-1.2,3.5-1.9l-1.4-1c-0.5,0.7-1.1,1.2-2.1,1.2
		c-0.9,0-1.6-0.4-2.1-1.3l5.7-2.4C239.2,24.9,239,24.4,239,24.4z M193.7,23v1.8h4.3c-0.1,1-0.5,1.8-1,2.3c-0.6,0.6-1.6,1.3-3.3,1.3
		c-2.7,0-4.7-2.1-4.7-4.8s2.1-4.8,4.7-4.8c1.4,0,2.5,0.6,3.3,1.3l1.3-1.3c-1.1-1-2.5-1.8-4.5-1.8c-3.6,0-6.7,3-6.7,6.6
		s3.1,6.6,6.7,6.6c2,0,3.4-0.6,4.6-1.9c1.2-1.2,1.6-2.9,1.6-4.2c0-0.4,0-0.8-0.1-1.1L193.7,23L193.7,23z M204.8,28.5
		c-1.3,0-2.4-1.1-2.4-2.6s1.1-2.6,2.4-2.6s2.4,1,2.4,2.6S206.1,28.5,204.8,28.5z M204.8,21.7c-2.4,0-4.3,1.8-4.3,4.3
		s1.9,4.3,4.3,4.3c2.4,0,4.3-1.8,4.3-4.3S207.1,21.7,204.8,21.7L204.8,21.7z M214.1,28.5c-1.3,0-2.4-1.1-2.4-2.6s1.1-2.6,2.4-2.6
		s2.4,1,2.4,2.6S215.4,28.5,214.1,28.5z M214.1,21.7c-2.4,0-4.3,1.8-4.3,4.3s1.9,4.3,4.3,4.3c2.4,0,4.3-1.8,4.3-4.3
		S216.4,21.7,214.1,21.7L214.1,21.7z"/>
	<g class="st1">
		<path d="M191.1,7.9v0.8h-1.5V13h-0.9V8.7h-1.5V7.9C187.2,7.9,191.1,7.9,191.1,7.9z"/>
		<path d="M194.9,7.9v0.7h-2.2V10h1.8v0.7h-1.8v1.4h2.2V13h-3.2V7.9H194.9z"/>
		<path d="M198.3,11.1c0,0.1,0.1,0.2,0.1,0.2c0-0.1,0.1-0.2,0.1-0.2c0-0.1,0.1-0.2,0.1-0.2l1.5-2.8c0,0,0-0.1,0.1-0.1c0,0,0,0,0.1,0
			h0.1h0.1h0.7v5h-0.8V9.7c0-0.1,0-0.1,0-0.2s0-0.1,0-0.2l-1.5,2.9c0,0.1-0.1,0.1-0.1,0.2s-0.1,0.1-0.2,0.1h-0.1
			c-0.1,0-0.1,0-0.2-0.1s-0.1-0.1-0.1-0.2l-1.6-2.9c0,0.1,0,0.2,0,0.2c0,0.1,0,0.1,0,0.2V13h-0.8V7.9h0.7h0.1h0.1c0,0,0,0,0.1,0
			c0,0,0,0,0.1,0.1l1.5,2.8C198.3,11,198.3,11.1,198.3,11.1z"/>
		<path d="M204.2,12.2c0.2,0,0.3,0,0.5-0.1s0.3-0.1,0.4-0.3c0.1-0.1,0.2-0.2,0.2-0.4c0.1-0.2,0.1-0.3,0.1-0.5v-3h0.9v3
			c0,0.3,0,0.6-0.1,0.8c-0.1,0.3-0.2,0.5-0.4,0.7s-0.4,0.3-0.7,0.4s-0.6,0.2-0.9,0.2s-0.6-0.1-0.9-0.2s-0.5-0.2-0.7-0.4
			s-0.3-0.4-0.4-0.7c-0.1-0.3-0.1-0.5-0.1-0.8v-3h0.9v3c0,0.2,0,0.4,0.1,0.5c0.1,0.2,0.1,0.3,0.2,0.4c0.1,0.1,0.2,0.2,0.4,0.3
			C203.9,12.2,204,12.2,204.2,12.2z"/>
		<path d="M208.3,10.1h0.2c0.1,0,0.2,0,0.2,0c0.1,0,0.1-0.1,0.2-0.1l1.4-1.8c0.1-0.1,0.1-0.1,0.2-0.2c0.1,0,0.1,0,0.2,0h0.8l-1.7,2
			c-0.1,0.1-0.1,0.1-0.2,0.2c-0.1,0.1-0.1,0.1-0.2,0.1c0.1,0,0.1,0.1,0.2,0.1c0.1,0.1,0.1,0.1,0.2,0.2l1.8,2.4h-0.8
			c-0.1,0-0.2,0-0.3,0s-0.1-0.1-0.1-0.1l-1.4-2c0-0.1-0.1-0.1-0.2-0.1c-0.1,0-0.1,0-0.2,0h-0.3V13h-0.9V7.9h0.9L208.3,10.1
			L208.3,10.1z"/>
		<path d="M216.6,13h-0.7c-0.1,0-0.1,0-0.2-0.1c-0.1,0-0.1-0.1-0.1-0.2l-0.4-1h-2.1l-0.4,1c0,0.1-0.1,0.1-0.1,0.1
			c-0.1,0-0.1,0.1-0.2,0.1h-0.7l2-5.1h1L216.6,13z M213.3,11.1h1.7l-0.6-1.7c0-0.1-0.1-0.2-0.1-0.3c0-0.1-0.1-0.2-0.1-0.3
			c0,0.1-0.1,0.2-0.1,0.3c0,0.1-0.1,0.2-0.1,0.3L213.3,11.1z"/>
		<path d="M217.7,7.9C217.8,7.9,217.8,8,217.7,7.9c0.1,0,0.1,0,0.1,0.1s0,0,0.1,0.1l2.7,3.4c0-0.1,0-0.2,0-0.2c0-0.1,0-0.2,0-0.2V8
			h0.8v5h-0.5c-0.1,0-0.1,0-0.2,0l-0.1-0.1L218,9.5c0,0.1,0,0.1,0,0.2s0,0.1,0,0.2V13h-0.8V7.9H217.7L217.7,7.9z"/>
		<path d="M228.3,10.5c0,0.4-0.1,0.7-0.2,1c-0.1,0.3-0.3,0.6-0.5,0.8s-0.5,0.4-0.8,0.5s-0.7,0.2-1,0.2h-1.9V7.9h1.9
			c0.4,0,0.7,0.1,1,0.2s0.6,0.3,0.8,0.5s0.4,0.5,0.5,0.8C228.2,9.7,228.3,10.1,228.3,10.5z M227.3,10.5c0-0.3,0-0.5-0.1-0.7
			s-0.2-0.4-0.3-0.6s-0.3-0.3-0.5-0.4s-0.4-0.1-0.7-0.1h-1v3.6h1c0.2,0,0.5,0,0.7-0.1s0.4-0.2,0.5-0.4c0.1-0.2,0.2-0.3,0.3-0.6
			S227.3,10.7,227.3,10.5z"/>
		<path d="M230.1,13h-0.9V7.9h0.9V13z"/>
	</g>
	<path class="st3" d="M156.4,7.5c-0.3,0.3-0.5,0.8-0.5,1.4V31c0,0.6,0.2,1.1,0.5,1.4l0.1,0.1l12.4-12.4v-0.3L156.4,7.5L156.4,7.5
		L156.4,7.5z"/>
	<path class="st4" d="M168.9,19.9v0.3l4.1,4.1l0.1-0.1l4.9-2.8c1.4-0.8,1.4-2.1,0-2.9l-4.9-2.8H173L168.9,19.9z"/>
	<path class="st5" d="M157.4,32.9c-0.4,0-0.7-0.1-1-0.4L168.9,20l4.2,4.2l-14.6,8.3C158.1,32.8,157.7,32.9,157.4,32.9z"/>
	<path class="st6" d="M156.4,7.5c0.2-0.3,0.6-0.4,1-0.4c0.3,0,0.7,0.1,1.1,0.3l14.6,8.3l-4.2,4.3L156.4,7.5z"/>
	<g>
		<path class="st2" d="M173,24.1l-14.5,8.2c-0.8,0.5-1.5,0.4-2,0l-0.1,0.1l0.1,0.1l0,0c0.5,0.4,1.2,0.5,2,0L173,24.1
			C173.1,24.2,173,24.1,173,24.1z M156.4,32.3c-0.3-0.3-0.4-0.8-0.4-1.4V31c0,0.6,0.2,1.1,0.5,1.4v-0.1
			C156.5,32.3,156.4,32.3,156.4,32.3z M178,21.3l-5,2.8l0.1,0.1L178,21.3c0.7-0.3,1-0.8,1-1.3C179,20.5,178.6,20.9,178,21.3"/>
		<path class="st0" d="M158.5,7.6L178,18.7c0.6,0.4,1,0.8,1,1.3c0-0.5-0.3-1-1-1.4L158.5,7.5C157.1,6.7,156,7.4,156,9v0.1
			C156,7.5,157.1,6.8,158.5,7.6"/>
	</g>
</g>
</svg>
