<?xml version="1.0" encoding="utf-8"?>
<!-- Generator: Adobe Illustrator 24.2.3, SVG Export Plug-In . SVG Version: 6.00 Build 0)  -->
<svg version="1.1" id="Layer_1" xmlns="http://www.w3.org/2000/svg" xmlns:xlink="http://www.w3.org/1999/xlink" x="0px" y="0px"
	 viewBox="0 0 1280 356" style="enable-background:new 0 0 1280 356;" xml:space="preserve">
<style type="text/css">
	.st0{fill:url(#SVGID_1_);}
</style>
<linearGradient id="SVGID_1_" gradientUnits="userSpaceOnUse" x1="637.0997" y1="-203.0808" x2="642.2241" y2="-486.309" gradientTransform="matrix(1 0 0 -1 0 -130.1102)">
	<stop  offset="0" style="stop-color:#FFF2F3"/>
	<stop  offset="0.5587" style="stop-color:#F8F8F8;stop-opacity:0"/>
</linearGradient>
<path class="st0" d="M57.3,52.1L-4,16.7V356h1287l-1-356l-59.9,37.2c-15,9.3-33.9,9.7-49.3,1l-42.3-23.8c-15.7-8.9-35-8.2-50.1,1.6
	l-48.1,31.4c-13.3,8.7-30.1,10.3-44.8,4.2l-34.2-14.1c-17.5-7.2-37.5-3.5-51.3,9.3l-36,33.5c-12.2,11.4-29.4,15.6-45.5,11.3
	L570.2,24.1c-7.5-2-15.4-2.2-22.9-0.6L273.6,83.4c-13.4,2.9-27.4,0-38.6-8l-46.5-33.5c-13.9-10-32.2-11.9-47.9-5L101,54.5
	C86.9,60.7,70.7,59.9,57.3,52.1z"/>
</svg>
