<?xml version="1.0" encoding="utf-8"?>
<!-- Generator: Adobe Illustrator 24.2.3, SVG Export Plug-In . SVG Version: 6.00 Build 0)  -->
<svg version="1.1" id="Layer_1" xmlns="http://www.w3.org/2000/svg" xmlns:xlink="http://www.w3.org/1999/xlink" x="0px" y="0px"
	 viewBox="0 0 40 42" style="enable-background:new 0 0 40 42;" xml:space="preserve">
<style type="text/css">
	.st0{fill:#FAA71A;}
</style>
<g>
	<path class="st0" d="M26.9,0.8C31.3-0.7,35.1,0,38,3.6c2.4,3.1,2.6,6.5,0.8,10c-1.1,2.1-2.9,3.5-5.1,4.3c-2.3,0.8-4.5,0.6-6.8-0.3
		c0,1.3,0,2.4,0,3.6c0,1.3-0.5,2.4-1.5,3.4c-0.8,0.8-1.8,1.2-2.8,1.2c-1,0.1-2.1,0-3.1,0c-0.4,0-0.6-0.2-0.6-0.6c0-1.4,0-2.7,0-4.1
		c0-0.2,0.3-0.4,0.6-0.5c0.2-0.1,0.5,0,0.7,0c1.3,0,1.5-0.2,1.5-1.6c0-6,0-11.9,0-17.9c0-1.1,0-1.1,1-1.1c1.1,0,2.2,0,3.2,0
		C26.4,0,26.8,0.1,26.9,0.8 M34.6,9.3c0-2.2-1.7-3.9-3.9-4c-2.1,0-4,1.8-4,3.9c0,2.1,1.7,3.9,3.9,3.9C32.9,13.1,34.6,11.5,34.6,9.3"
		/>
	<path class="st0" d="M9.1,18.4C4,18.4,0,14.3,0,9.2C0,4.1,4.2,0,9.2,0c5,0,9.2,4.2,9.2,9.2C18.4,14.3,14.2,18.4,9.1,18.4 M9.2,13.1
		c2.2,0,3.9-1.8,3.9-3.9c0-2.1-1.8-3.9-3.9-4c-2.2,0-3.9,1.8-3.9,4C5.3,11.4,7,13.1,9.2,13.1"/>
	<path class="st0" d="M33.8,36.5c-2.8,2.7-5.9,4.4-9.6,5.1C13.8,43.6,4.1,37.4,1.7,27c-0.2-1.1-0.3-2.2-0.4-3.3
		c-0.1-0.6,0.1-0.9,0.8-0.8c1.2,0,2.4,0,3.5,0c0.7,0,0.9,0.3,1,0.9c0.1,2.3,0.8,4.3,2,6.2c2.7,4.3,6.6,6.5,11.7,6.7
		c3.5,0.1,6.6-1.1,9.2-3.4c0.5-0.5,0.8-0.5,1.3,0C31.7,34.4,32.8,35.4,33.8,36.5"/>
</g>
</svg>
