<?xml version="1.0" encoding="utf-8"?>
<!-- Generator: Adobe Illustrator 24.2.3, SVG Export Plug-In . SVG Version: 6.00 Build 0)  -->
<svg version="1.1" id="Layer_1" xmlns="http://www.w3.org/2000/svg" xmlns:xlink="http://www.w3.org/1999/xlink" x="0px" y="0px"
	 viewBox="0 0 135 40" style="enable-background:new 0 0 135 40;" xml:space="preserve">
<style type="text/css">
	.st0{fill:#FFFFFF;}
	.st1{fill-rule:evenodd;clip-rule:evenodd;}
	.st2{fill:none;}
	.st3{fill:#29CB5E;}
	.st4{fill:#2C9ED8;}
	.st5{fill:#32BAFE;}
	.st6{fill:#D83F21;}
	.st7{fill:#FEAA00;}
	.st8{fill:#FED401;}
</style>
<path class="st0" d="M8,0.7h119c4,0,7.3,3.2,7.3,7.3v24c0,4-3.2,7.3-7.3,7.3H8c-4,0-7.3-3.2-7.3-7.3V8C0.8,4,4,0.7,8,0.7z"/>
<path class="st2" d="M8,0h119c4.4,0,8,3.6,8,8v24c0,4.4-3.6,8-8,8H8c-4.4,0-8-3.6-8-8V8C0,3.6,3.6,0,8,0z"/>
<path class="st2" d="M8,0h119c4.4,0,8,3.6,8,8v24c0,4.4-3.6,8-8,8H8c-4.4,0-8-3.6-8-8V8C0,3.6,3.6,0,8,0z"/>
<path class="st1" d="M30.1,19.8c0-3.2,2.6-4.8,2.8-4.9c-1.5-2.2-3.9-2.5-4.7-2.5c-2-0.2-3.9,1.2-4.9,1.2c-1,0-2.6-1.2-4.2-1.1
	c-2.1,0-4.1,1.3-5.2,3.2c-2.3,3.9-0.6,9.7,1.6,12.9c1.1,1.6,2.4,3.3,4,3.2c1.6-0.1,2.2-1,4.2-1c1.9,0,2.5,1,4.2,1
	c1.7,0,2.8-1.6,3.9-3.1c1.3-1.8,1.8-3.5,1.8-3.6C33.5,24.9,30.2,23.6,30.1,19.8z"/>
<path class="st1" d="M26.9,10.3c0.9-1.1,1.5-2.6,1.3-4.1c-1.3,0.1-2.8,0.9-3.8,1.9c-0.8,0.9-1.5,2.5-1.3,3.9
	C24.6,12.2,26,11.4,26.9,10.3z"/>
<path class="st1" d="M51.4,31.5h2.3l-4.3-13.3h-2.6l-4.3,13.3h2.2l1.2-3.9h4.3L51.4,31.5z M48.6,22.5l1.1,3.5h-3.6l1.1-3.5
	c0.3-1.1,0.5-1.9,0.6-2.5h0C48.3,21.3,48.5,22.1,48.6,22.5z"/>
<path class="st1" d="M63.3,30.5c0.9-0.9,1.3-2.2,1.3-3.9c0-1.5-0.4-2.6-1.1-3.5c-0.8-0.9-1.7-1.3-2.8-1.3c-1.4,0-2.5,0.6-3.2,1.7h0
	l-0.1-1.5h-1.9c0.1,1.1,0.1,2.1,0.1,3.2v10.3h2.1v-5.1h0c0.6,0.9,1.5,1.4,2.7,1.4C61.6,31.7,62.5,31.3,63.3,30.5z M61.9,24.4
	c0.4,0.6,0.6,1.4,0.6,2.3c0,1-0.2,1.8-0.7,2.4c-0.4,0.6-1.1,0.9-1.9,0.9c-0.7,0-1.2-0.2-1.7-0.7c-0.4-0.5-0.6-1.1-0.6-1.8V26
	c0-0.2,0-0.4,0.1-0.6c0.1-0.6,0.4-1,0.8-1.4c0.4-0.3,0.9-0.5,1.4-0.5C60.8,23.4,61.4,23.7,61.9,24.4z"/>
<path class="st1" d="M74.4,30.5c0.9-0.9,1.3-2.2,1.3-3.9c0-1.5-0.4-2.6-1.1-3.5c-0.8-0.9-1.7-1.3-2.8-1.3c-1.4,0-2.5,0.6-3.2,1.7h0
	l-0.1-1.5h-1.9c0.1,1.1,0.1,2.1,0.1,3.2v10.3h2.1v-5.1h0c0.6,0.9,1.5,1.4,2.7,1.4C72.6,31.7,73.6,31.3,74.4,30.5z M72.9,24.4
	c0.4,0.6,0.6,1.4,0.6,2.3c0,1-0.2,1.8-0.7,2.4C72.4,29.7,71.8,30,71,30c-0.7,0-1.2-0.2-1.7-0.7c-0.4-0.5-0.6-1.1-0.6-1.8V26
	c0-0.2,0-0.4,0.1-0.6c0.1-0.6,0.4-1,0.8-1.4c0.4-0.3,0.9-0.5,1.4-0.5C71.8,23.4,72.4,23.7,72.9,24.4z"/>
<path class="st1" d="M88,27.8c0,1.1-0.4,2.1-1.2,2.8c-0.9,0.8-2.1,1.2-3.6,1.2c-1.4,0-2.6-0.3-3.4-0.8l0.5-1.8
	c0.9,0.6,2,0.9,3.1,0.9c0.8,0,1.4-0.2,1.9-0.5c0.4-0.4,0.7-0.8,0.7-1.5c0-0.5-0.2-1-0.6-1.4c-0.4-0.4-1-0.7-1.8-1
	c-2.3-0.9-3.5-2.1-3.5-3.8c0-1.1,0.4-2,1.2-2.7c0.8-0.7,1.9-1,3.3-1c1.2,0,2.2,0.2,3,0.6L87,20.4c-0.8-0.4-1.6-0.6-2.5-0.6
	c-0.8,0-1.3,0.2-1.8,0.6c-0.4,0.3-0.5,0.7-0.5,1.2c0,0.5,0.2,1,0.6,1.3c0.4,0.3,1,0.7,1.9,1c1.1,0.5,2,1,2.5,1.6
	C87.8,26.1,88,26.9,88,27.8z"/>
<path class="st1" d="M95.1,23.5h-2.3v4.7c0,1.2,0.4,1.8,1.2,1.8c0.4,0,0.7,0,0.9-0.1l0.1,1.6c-0.4,0.2-1,0.2-1.7,0.2
	c-0.8,0-1.5-0.3-2-0.8c-0.5-0.5-0.7-1.4-0.7-2.6v-4.8h-1.4v-1.6h1.4v-1.8l2.1-0.6v2.4h2.3V23.5z"/>
<path class="st1" d="M104.4,30.3c0.8-0.9,1.3-2.2,1.3-3.6c0-1.4-0.4-2.6-1.2-3.5c-0.9-0.9-2-1.4-3.4-1.4c-1.5,0-2.6,0.5-3.5,1.4
	c-0.9,0.9-1.3,2.2-1.3,3.7c0,1.4,0.4,2.6,1.3,3.5c0.8,0.9,2,1.4,3.4,1.4C102.4,31.7,103.5,31.2,104.4,30.3z M102.9,24.4
	c0.4,0.6,0.6,1.4,0.6,2.3c0,0.9-0.2,1.7-0.6,2.3c-0.5,0.8-1.1,1.2-1.9,1.2c-0.8,0-1.5-0.4-1.9-1.1c-0.4-0.6-0.6-1.4-0.6-2.3
	c0-0.9,0.2-1.7,0.6-2.3c0.4-0.8,1.1-1.1,2-1.1C101.8,23.3,102.5,23.7,102.9,24.4z"/>
<path class="st1" d="M112.6,23.8c-0.2,0-0.4-0.1-0.7-0.1c-0.8,0-1.3,0.3-1.7,0.9c-0.4,0.5-0.5,1.1-0.5,1.9v5h-2.1l0-6.6
	c0-1.1,0-2.1-0.1-3h1.9l0.1,1.8h0.1c0.2-0.6,0.6-1.1,1.1-1.5c0.5-0.3,1-0.5,1.5-0.5c0.2,0,0.4,0,0.5,0V23.8z"/>
<path class="st1" d="M122.1,27.2c0.1-0.3,0.1-0.6,0.1-1c0-1.2-0.3-2.2-0.8-3c-0.7-1-1.8-1.5-3.1-1.5c-1.4,0-2.5,0.5-3.4,1.5
	c-0.8,1-1.2,2.2-1.2,3.6c0,1.5,0.4,2.6,1.3,3.5c0.8,0.9,2,1.3,3.5,1.3c1.2,0,2.3-0.2,3.2-0.6l-0.3-1.5c-0.8,0.3-1.6,0.5-2.6,0.5
	c-0.9,0-1.6-0.2-2.1-0.7c-0.6-0.5-0.9-1.2-0.9-2.2H122.1z M119.7,24.1c0.3,0.5,0.4,1,0.4,1.6v0h-4.4c0.1-0.6,0.3-1.2,0.6-1.7
	c0.4-0.6,1-0.9,1.7-0.9C118.8,23.2,119.3,23.5,119.7,24.1z"/>
<path class="st1" d="M48,12.7c0.7-0.6,1.1-1.5,1.1-2.7c0-1-0.3-1.9-1-2.4c-0.6-0.5-1.4-0.7-2.6-0.7c-0.6,0-1.2,0-1.8,0.1v6.4
	c0.4,0.1,0.9,0.1,1.5,0.1C46.4,13.5,47.3,13.2,48,12.7z M47.3,8.3c0.4,0.4,0.6,1,0.6,1.8c0,0.9-0.2,1.5-0.7,1.9
	c-0.4,0.4-1.1,0.7-1.9,0.7c-0.3,0-0.6,0-0.7,0V7.7c0.2,0,0.5-0.1,0.8-0.1C46.3,7.7,46.9,7.9,47.3,8.3z"/>
<path class="st1" d="M54.3,12.8c0.4-0.5,0.6-1.1,0.6-1.8c0-0.7-0.2-1.3-0.6-1.7c-0.4-0.5-1-0.7-1.7-0.7c-0.7,0-1.3,0.2-1.7,0.7
	c-0.4,0.5-0.6,1.1-0.6,1.8c0,0.7,0.2,1.3,0.6,1.7c0.4,0.5,1,0.7,1.7,0.7C53.3,13.5,53.9,13.3,54.3,12.8z M53.5,10
	c0.2,0.3,0.3,0.7,0.3,1.1c0,0.4-0.1,0.8-0.3,1.1c-0.2,0.4-0.5,0.6-0.9,0.6c-0.4,0-0.7-0.2-1-0.6c-0.2-0.3-0.3-0.7-0.3-1.1
	c0-0.4,0.1-0.8,0.3-1.1c0.2-0.4,0.5-0.6,1-0.6C53,9.4,53.3,9.6,53.5,10z"/>
<path class="st1" d="M62.8,8.7l-1.5,4.7h-1l-0.6-2c-0.2-0.5-0.3-1-0.4-1.5h0c-0.1,0.5-0.2,1-0.4,1.5l-0.6,2h-1l-1.4-4.7H57l0.5,2.2
	c0.1,0.5,0.2,1,0.3,1.5h0c0.1-0.4,0.2-0.9,0.4-1.5l0.7-2.3h0.9l0.6,2.2c0.2,0.5,0.3,1.1,0.4,1.6h0c0.1-0.5,0.2-1,0.3-1.6l0.6-2.2
	L62.8,8.7L62.8,8.7z"/>
<path class="st1" d="M68.2,13.4h-1v-2.7c0-0.8-0.3-1.2-1-1.2c-0.3,0-0.6,0.1-0.8,0.3c-0.2,0.2-0.3,0.5-0.3,0.8v2.8h-1v-3.4
	c0-0.4,0-0.9,0-1.3H65l0,0.7h0c0.1-0.2,0.3-0.4,0.5-0.6c0.3-0.2,0.6-0.3,0.9-0.3c0.4,0,0.8,0.1,1.1,0.4c0.4,0.3,0.5,0.9,0.5,1.6
	V13.4z"/>
<path class="st1" d="M71.1,13.4h-1V6.6h1V13.4z"/>
<path class="st1" d="M76.6,12.8c0.4-0.5,0.6-1.1,0.6-1.8c0-0.7-0.2-1.3-0.6-1.7c-0.4-0.5-1-0.7-1.7-0.7c-0.7,0-1.3,0.2-1.7,0.7
	s-0.6,1.1-0.6,1.8c0,0.7,0.2,1.3,0.6,1.7c0.4,0.5,1,0.7,1.7,0.7C75.6,13.5,76.2,13.3,76.6,12.8z M75.9,10c0.2,0.3,0.3,0.7,0.3,1.1
	c0,0.4-0.1,0.8-0.3,1.1c-0.2,0.4-0.5,0.6-0.9,0.6c-0.4,0-0.7-0.2-1-0.6c-0.2-0.3-0.3-0.7-0.3-1.1c0-0.4,0.1-0.8,0.3-1.1
	c0.2-0.4,0.5-0.6,1-0.6C75.4,9.4,75.7,9.6,75.9,10z"/>
<path class="st1" d="M81.4,13.4h0.9c0-0.3-0.1-0.7-0.1-1.1v-1.7c0-1.3-0.6-1.9-1.8-1.9c-0.6,0-1.2,0.1-1.6,0.4L79,9.7
	c0.4-0.2,0.8-0.3,1.2-0.3c0.7,0,1,0.3,1,0.9v0.1c-0.9,0-1.6,0.1-2,0.4c-0.5,0.3-0.7,0.7-0.7,1.3c0,0.4,0.1,0.7,0.4,1
	c0.3,0.3,0.6,0.4,1.1,0.4c0.6,0,1.1-0.2,1.4-0.6h0L81.4,13.4z M81.2,11.1v0.7c0,0.1,0,0.1,0,0.2c0,0.2-0.2,0.4-0.4,0.6
	c-0.2,0.1-0.4,0.2-0.6,0.2c-0.2,0-0.4-0.1-0.5-0.2c-0.1-0.1-0.2-0.3-0.2-0.6C79.5,11.4,80.1,11.1,81.2,11.1z"/>
<path class="st1" d="M87.4,13.4h0.9c0-0.4,0-0.8,0-1.3V6.6h-1v2.7h0c-0.3-0.4-0.7-0.6-1.3-0.6c-0.6,0-1.1,0.2-1.5,0.7
	c-0.4,0.5-0.6,1.1-0.6,1.9c0,0.7,0.2,1.3,0.6,1.7s0.8,0.7,1.4,0.7c0.7,0,1.2-0.3,1.5-0.9h0L87.4,13.4z M87.2,10.7v0.8
	c0,0.3-0.1,0.6-0.3,0.9c-0.2,0.3-0.5,0.4-0.8,0.4c-0.4,0-0.7-0.2-0.9-0.5c-0.2-0.3-0.3-0.7-0.3-1.1c0-0.5,0.1-0.9,0.3-1.2
	c0.2-0.3,0.5-0.5,0.9-0.5c0.3,0,0.5,0.1,0.7,0.3c0.2,0.2,0.3,0.4,0.4,0.6C87.2,10.4,87.2,10.5,87.2,10.7z"/>
<path class="st1" d="M96.6,12.8c0.4-0.5,0.6-1.1,0.6-1.8c0-0.7-0.2-1.3-0.6-1.7c-0.4-0.5-1-0.7-1.7-0.7c-0.7,0-1.3,0.2-1.7,0.7
	c-0.4,0.5-0.6,1.1-0.6,1.8c0,0.7,0.2,1.3,0.6,1.7c0.4,0.5,1,0.7,1.7,0.7C95.6,13.5,96.2,13.3,96.6,12.8z M95.9,10
	c0.2,0.3,0.3,0.7,0.3,1.1c0,0.4-0.1,0.8-0.3,1.1c-0.2,0.4-0.5,0.6-0.9,0.6c-0.4,0-0.7-0.2-1-0.6c-0.2-0.3-0.3-0.7-0.3-1.1
	c0-0.4,0.1-0.8,0.3-1.1c0.2-0.4,0.5-0.6,1-0.6C95.3,9.4,95.7,9.6,95.9,10z"/>
<path class="st1" d="M102.9,13.4h-1v-2.7c0-0.8-0.3-1.2-1-1.2c-0.3,0-0.6,0.1-0.8,0.3c-0.2,0.2-0.3,0.5-0.3,0.8v2.8h-1v-3.4
	c0-0.4,0-0.9,0-1.3h0.9l0,0.7h0c0.1-0.2,0.3-0.4,0.5-0.6c0.3-0.2,0.6-0.3,1-0.3c0.4,0,0.8,0.1,1.1,0.4c0.4,0.3,0.5,0.9,0.5,1.6V13.4
	z"/>
<path class="st1" d="M109.9,9.5h-1.2v2.3c0,0.6,0.2,0.9,0.6,0.9c0.2,0,0.3,0,0.5,0l0,0.8c-0.2,0.1-0.5,0.1-0.8,0.1
	c-0.4,0-0.7-0.1-1-0.4c-0.2-0.3-0.3-0.7-0.3-1.3V9.5h-0.7V8.7h0.7V7.9l1-0.3v1.2h1.2L109.9,9.5L109.9,9.5z"/>
<path class="st1" d="M115.5,13.4h-1v-2.7c0-0.8-0.3-1.3-0.9-1.3c-0.5,0-0.8,0.2-1,0.7c0,0.1,0,0.2,0,0.4v2.8h-1V6.6h1v2.8h0
	c0.3-0.5,0.8-0.8,1.4-0.8c0.4,0,0.8,0.1,1.1,0.4c0.4,0.4,0.5,0.9,0.5,1.6V13.4z"/>
<path class="st1" d="M121.2,11.3c0-0.1,0-0.3,0-0.5c0-0.6-0.1-1.1-0.4-1.5c-0.3-0.5-0.9-0.8-1.5-0.8c-0.7,0-1.2,0.3-1.6,0.8
	c-0.4,0.5-0.6,1.1-0.6,1.8c0,0.7,0.2,1.3,0.6,1.7c0.4,0.4,1,0.6,1.7,0.6c0.6,0,1.1-0.1,1.6-0.3l-0.2-0.7c-0.4,0.1-0.8,0.2-1.3,0.2
	c-0.4,0-0.8-0.1-1-0.3c-0.3-0.2-0.4-0.6-0.5-1.1H121.2z M120,9.8c0.1,0.2,0.2,0.5,0.2,0.8H118c0-0.3,0.1-0.6,0.3-0.8
	c0.2-0.3,0.5-0.4,0.8-0.4C119.5,9.3,119.8,9.5,120,9.8z"/>
</svg>
