<?xml version="1.0" encoding="utf-8"?>
<!-- Generator: Adobe Illustrator 24.2.3, SVG Export Plug-In . SVG Version: 6.00 Build 0)  -->
<svg version="1.1" xmlns="http://www.w3.org/2000/svg" xmlns:xlink="http://www.w3.org/1999/xlink" x="0px" y="0px"
	 viewBox="0 0 356.8 347.1" style="enable-background:new 0 0 356.8 347.1;" xml:space="preserve">
<style type="text/css">
	.st0{opacity:0.1;}
	.st1{fill:#FFFFFF;}
	.st2{opacity:0.1;fill:none;stroke:#000000;stroke-miterlimit:10;}
	.st3{fill:#7371FC;}
	.st4{opacity:0.5;}
	.st5{fill:#FFBB5C;}
	.st6{opacity:0.56;fill:#FF9B50;}
	.st7{fill:none;stroke:#EEEEFF;stroke-miterlimit:10;}
	.st8{fill:#F9AE69;}
	.st9{fill:#E20613;}
	.st10{fill:#4C4C4C;}
	.st11{fill:#EF391E;}
	.st12{fill:#000119;}
	.st13{fill:#EEEEFF;}
	.st14{opacity:0.3;fill:#914A4A;}
	.st15{fill:#E25E3E;}
	.st16{fill:#FF9B50;}
	.st17{fill:#91C4FB;}
	.st18{fill:#BDDCFD;}
	.st19{fill:none;stroke:#2C4049;stroke-width:1.12;stroke-miterlimit:10;}
	.st20{fill:none;stroke:#FEFEE3;stroke-width:1.12;stroke-miterlimit:10;}
	.st21{fill:#32338C;}
	.st22{fill:none;stroke:#32338C;stroke-width:0.9839;stroke-linecap:round;stroke-linejoin:round;stroke-miterlimit:10;}
	.st23{fill:none;stroke:#E20613;stroke-miterlimit:10;}
	.st24{fill:none;stroke:#7371FC;stroke-miterlimit:10;}
	.st25{fill:none;stroke:#000000;stroke-miterlimit:10;}
	.st26{fill:none;stroke:#FFBB5C;stroke-miterlimit:10;}
	.st27{fill:none;stroke:#E25E3E;stroke-miterlimit:10;}
	.st28{fill:none;stroke:#FF9B50;stroke-miterlimit:10;}
	.st29{opacity:0.5;fill:#FF9B50;}
</style>
<g id="BACKGROUND">
</g>
<g id="OBJECTS">
	<g>
		
			<rect x="182.7" y="28.6" transform="matrix(-1 -1.224647e-16 1.224647e-16 -1 443.0846 146.7437)" class="st0" width="77.7" height="89.6"/>
		
			<rect x="188.6" y="35.4" transform="matrix(-1 -1.224647e-16 1.224647e-16 -1 443.0845 146.7437)" class="st1" width="65.9" height="76"/>
		<path class="st2" d="M197.3,48.8h47.9c2.1,0,3.9-1.7,3.9-3.9l0,0c0-2.1-1.7-3.9-3.9-3.9h-47.9c-2.1,0-3.9,1.7-3.9,3.9l0,0
			C193.4,47.1,195.2,48.8,197.3,48.8z"/>
		<path class="st2" d="M197.3,60.1h47.9c2.1,0,3.9-1.7,3.9-3.9l0,0c0-2.1-1.7-3.9-3.9-3.9h-47.9c-2.1,0-3.9,1.7-3.9,3.9l0,0
			C193.4,58.4,195.2,60.1,197.3,60.1z"/>
		<path class="st2" d="M197.3,71.5h47.9c2.1,0,3.9-1.7,3.9-3.9l0,0c0-2.1-1.7-3.9-3.9-3.9h-47.9c-2.1,0-3.9,1.7-3.9,3.9l0,0
			C193.4,69.7,195.2,71.5,197.3,71.5z"/>
		<path class="st2" d="M197.3,82.8h47.9c2.1,0,3.9-1.7,3.9-3.9l0,0c0-2.1-1.7-3.9-3.9-3.9h-47.9c-2.1,0-3.9,1.7-3.9,3.9l0,0
			C193.4,81.1,195.2,82.8,197.3,82.8z"/>
		<path class="st2" d="M197.3,94.1h47.9c2.1,0,3.9-1.7,3.9-3.9v0c0-2.1-1.7-3.9-3.9-3.9h-47.9c-2.1,0-3.9,1.7-3.9,3.9v0
			C193.4,92.4,195.2,94.1,197.3,94.1z"/>
		<path class="st2" d="M197.3,105.5h47.9c2.1,0,3.9-1.7,3.9-3.9v0c0-2.1-1.7-3.9-3.9-3.9h-47.9c-2.1,0-3.9,1.7-3.9,3.9v0
			C193.4,103.7,195.2,105.5,197.3,105.5z"/>
		
			<rect x="15.1" y="10.8" transform="matrix(-1 -1.224647e-16 1.224647e-16 -1 146.2152 145.0552)" class="st0" width="116" height="123.4"/>
		
			<rect x="15.1" y="10.8" transform="matrix(-1 -1.224647e-16 1.224647e-16 -1 140.3346 138.2766)" class="st1" width="110.1" height="116.6"/>
		
			<rect x="284.1" y="81.8" transform="matrix(-1 -1.224647e-16 1.224647e-16 -1 624.5826 228.7533)" class="st0" width="56.4" height="65.1"/>
		
			<rect x="288.3" y="86.8" transform="matrix(-1 -1.224647e-16 1.224647e-16 -1 624.5826 228.7533)" class="st1" width="47.9" height="55.2"/>
		<polyline class="st2" points="336.2,142 320.5,98.6 308.9,142 297.1,106.5 288.3,142 		"/>
		
			<ellipse transform="matrix(0.7071 -0.7071 0.7071 0.7071 -24.1198 54.3774)" class="st2" cx="53.6" cy="56.3" rx="29.4" ry="29.4"/>
		
			<ellipse transform="matrix(0.2254 -0.9743 0.9743 0.2254 13.8766 130.061)" class="st2" cx="88.7" cy="56.3" rx="29.4" ry="29.4"/>
		<circle class="st2" cx="70.4" cy="87.7" r="29.4"/>
		
			<rect x="84.9" y="309.5" transform="matrix(-1 -1.224647e-16 1.224647e-16 -1 188.9072 627.2145)" class="st0" width="19.1" height="8.3"/>
		
			<rect x="64.3" y="309.5" transform="matrix(-1 -1.224647e-16 1.224647e-16 -1 147.7425 627.2145)" class="st0" width="19.1" height="8.3"/>
		
			<rect x="74.7" y="319.3" transform="matrix(-1 -1.224647e-16 1.224647e-16 -1 168.5858 646.8489)" class="st0" width="19.1" height="8.3"/>
		
			<rect x="54.8" y="300.3" transform="matrix(-1 -1.224647e-16 1.224647e-16 -1 128.6515 608.9654)" class="st0" width="19.1" height="8.3"/>
		
			<rect x="288.5" y="252.5" transform="matrix(-1 -1.224647e-16 1.224647e-16 -1 596.0478 513.3834)" class="st3" width="19.1" height="8.3"/>
		
			<rect x="278.3" y="262.4" transform="matrix(-1 -3.409002e-06 3.409002e-06 -1 575.7255 533.0186)" class="st3" width="19.1" height="8.3"/>
		<g class="st4">
			
				<rect x="286.5" y="20.4" transform="matrix(-1 -1.224647e-16 1.224647e-16 -1 592.1309 49.0725)" class="st0" width="19.1" height="8.3"/>
			
				<rect x="277" y="11.3" transform="matrix(-1 -1.224647e-16 1.224647e-16 -1 573.0399 30.8234)" class="st0" width="19.1" height="8.3"/>
			
				<rect x="99.2" y="248" transform="matrix(-1 -1.224647e-16 1.224647e-16 -1 217.5435 504.2588)" class="st0" width="19.1" height="8.3"/>
			
				<rect x="89.7" y="238.9" transform="matrix(-1 -1.224647e-16 1.224647e-16 -1 198.4526 486.0097)" class="st0" width="19.1" height="8.3"/>
			<rect x="155.2" y="20" class="st0" width="19.1" height="8.3"/>
			<rect x="175.8" y="20" class="st0" width="19.1" height="8.3"/>
			<rect x="165.4" y="29.8" class="st0" width="19.1" height="8.3"/>
			<rect x="185.4" y="10.8" class="st0" width="19.1" height="8.3"/>
			<rect x="291.3" y="61.1" class="st0" width="19.1" height="8.3"/>
			<rect x="311.9" y="61.1" class="st0" width="19.1" height="8.3"/>
			<rect x="301.5" y="70.9" class="st0" width="19.1" height="8.3"/>
			<rect x="321.4" y="51.9" class="st0" width="19.1" height="8.3"/>
			
				<rect x="305.6" y="221.1" transform="matrix(-1 -1.224647e-16 1.224647e-16 -1 630.3127 450.5922)" class="st0" width="19.1" height="8.3"/>
			
				<rect x="296.1" y="212" transform="matrix(-1 -1.224647e-16 1.224647e-16 -1 611.2217 432.3431)" class="st0" width="19.1" height="8.3"/>
			<rect x="25.3" y="169.1" class="st0" width="19.1" height="8.3"/>
			<rect x="45.9" y="169.1" class="st0" width="19.1" height="8.3"/>
			<rect x="35.4" y="178.9" class="st0" width="19.1" height="8.3"/>
			<rect x="55.4" y="159.9" class="st0" width="19.1" height="8.3"/>
			
				<rect x="267.9" y="252.5" transform="matrix(-1 -3.408990e-06 3.408990e-06 -1 554.8821 513.3842)" class="st0" width="19.1" height="8.3"/>
			
				<rect x="258.4" y="243.4" transform="matrix(-1 -1.224647e-16 1.224647e-16 -1 535.7922 495.1342)" class="st0" width="19.1" height="8.3"/>
		</g>
		<path class="st5" d="M198.3,161h-41c-27.7,0-50.1,22.4-50.1,50.1v0c0,27.7,22.4,50.1,50.1,50.1h41c27.7,0,50.1-22.4,50.1-50.1v0
			C248.4,183.4,226,161,198.3,161z"/>
		<path class="st6" d="M93.9,336.3h167.5l-6.1-7.9c-4.4-5.7-11.1-9-18.3-9H118.4c-7.2,0-14,3.3-18.3,9L93.9,336.3z"/>
		<line class="st7" x1="98.8" y1="319.3" x2="252.6" y2="319.3"/>
		<path d="M134.6,278.9c9.8-9.8,76.4-11.2,88.4,0c20.2,18.9,18,57.4,18,57.4H114.6C114.6,336.3,114,299.3,134.6,278.9z"/>
		<path class="st7" d="M180.2,336.3c4.3-11.2,7.4-22.9,9.1-34.8"/>
		<path d="M208.2,118.5c1.1,2.9,3.4,5.1,5.1,7.7c1.1-0.5,2.3-1,3.3-1.5c-0.6-2.3-1.2-4.6-1.8-6.9c1.6,1.8,3.2,3.7,4.7,5.5
			c9.7-5,15.1-10.1,15.1-10.1s-10.5-20-16.9-40.7c-6.3-20.7-17.8-34.6-40-34.1C153,38.9,144.7,57,139.3,75.5
			c-5.4,18.5-17.7,37.7-17.7,37.7s7.9,6.1,20.8,11.5c2.1-2.7,4.2-5.4,6.2-8.3c-0.8,3.3-1.6,6.5-2.3,9.8c0.7,0.3,1.5,0.6,2.3,0.8
			c0.9-2.1,1.8-4.3,2.7-6.4c0,2.4,0,4.9,0,7.3c8.5,2.7,18.4,4.8,29.3,4.8c11.4,0,21.2-2.2,29.3-5.2
			C209.2,124.5,208.7,121.5,208.2,118.5z"/>
		<path class="st8" d="M211.8,83.7c0,18.1-14.7,44.5-32.7,44.5s-32.7-26.4-32.7-44.5S161,51,179,51S211.8,65.6,211.8,83.7z"/>
		<path d="M142.6,103.4c6.5-8.9,9.4-20.4,7.8-31.3c11.6-0.2,22.6-7.2,28.1-17.5c5.5,9.3,16.3,15.4,27.1,15.2
			c-0.6,5.5-0.6,10.7,0.9,16c1.5,5.3,4.5,10.4,8.9,13.7c3.3-5.6,4.7-12.6,4-19c-0.7-6.4-3-12.5-6.2-18.2c-2.2-3.9-4.8-7.7-8.2-10.5
			c-5.6-4.6-12.9-6.5-20.1-7.3c-5-0.5-10.2-0.6-15.1,0.8c-10.6,3-18.3,12.3-22.8,22.3c-1.7,3.9-3.1,8.1-3.7,12.3
			c-0.7,5.4-0.3,10.8,0.3,16.2C144.1,98.8,143.6,101.3,142.6,103.4z"/>
		<path class="st8" d="M178.8,139.4c3.6,0,7.2-0.6,10.5-2.1c1.4-0.7,2.8-1.5,4-2.5c-2-4.2-2-15.1-2-15.1H179h-0.4h-12.2
			c0,0,0,12.3-2.4,15.8c1.4,1,3.1,1.7,4.7,2.3C172,138.8,175.4,139.3,178.8,139.4z"/>
		<path class="st9" d="M225.8,165.1c-1.6-7.9,2.7-20.3,2.7-20.3s-31.3-6.4-34.3-8.8c-0.4-0.3-0.7-0.7-1-1.3c-1.3,0.9-2.6,1.8-4,2.5
			c-3.2,1.5-6.9,2.2-10.5,2.1c-3.4,0-6.8-0.6-10-1.7c-1.7-0.6-3.3-1.3-4.7-2.3c-0.2,0.3-0.4,0.5-0.6,0.6c-3,2.3-34.3,8.8-34.3,8.8
			s4.4,12.4,2.7,20.3c-1.6,7.9-10.6,16.2-6.4,31c4.2,14.7,9.2,82.8,9.2,82.8s19.4,3.2,44,3.2s44.4-3.2,44.4-3.2s5-68.1,9.2-82.8
			C236.4,181.3,227.4,173,225.8,165.1z"/>
		<path class="st8" d="M258,169.9c-1.2-1.2-16.1-20.4-29.5-25.1c0,0-3.2,7.3-3.4,16.7c-0.1,6,3.1,9.3,4.6,13.2
			c2.2,5.8,3.2,9.3,3.2,9.3l8.8,6l-48.6,3.6l-4-18.1c0,0,0-7.1-1.7-17.3c-1.7-10.1-9.7-16.1-9.7-16.1s0,22.6,0,34.9
			c0,5.5,1.2,11.4,2.6,16.1c1.9,6.5,7,11.4,13.5,13.1c8.9,2.3,23.4,2.6,42,2.7c32.1,0.2,42.8-10.5,42.8-10.5S274.3,187.3,258,169.9z
			"/>
		<g>
			<path class="st10" d="M177.5,148.8c1.5,1.8,2.5,4,3.1,6.3c0.6,2.3,0.9,4.6,1.1,7c0.4,4.7,0.5,9.3,0.1,14
				c-0.6-4.6-0.9-9.3-1.3-13.9c-0.2-2.3-0.4-4.6-0.8-6.9C179.3,153.1,178.7,150.9,177.5,148.8z"/>
		</g>
		<g>
			<path class="st10" d="M177.7,145.1c1.9,1.7,3.4,3.9,4.3,6.3c1,2.4,1.6,4.9,2.1,7.4c1,5,1.5,10.1,1.7,15.1c-1.2-5-1.9-10-2.9-14.9
				c-0.5-2.5-1-4.9-1.7-7.3C180.3,149.4,179.3,147.1,177.7,145.1z"/>
		</g>
		<g>
			<path class="st10" d="M236.1,190.3c5-1.1,10.1-1.7,15.2-2.1c2.6-0.2,5.2,0,7.8,0.5c2.5,0.5,5,1.2,7.4,2.2c-2.5-0.5-5-0.9-7.5-1.2
				c-2.5-0.3-5-0.4-7.5-0.2C246.3,189.8,241.3,190.2,236.1,190.3z"/>
		</g>
		<path class="st8" d="M97.6,169.9c1.2-1.2,18.2-20.4,31.5-25.1c0,0,3.3,7.6,3.4,17c0.1,6-3.1,9.3-4.6,13.2
			c-2.2,5.8-3.2,9.3-3.2,9.3l-10.9,5.7l48.6,3.6l4-18.1c0,0,0-7.1,1.7-17.3c1.7-10.1,9.7-16.1,9.7-16.1s0,22.6,0,34.9
			c0,5.5-1.2,11.4-2.6,16.1c-1.9,6.5-7,11.4-13.5,13.1c-8.9,2.3-23.4,2.6-42,2.7c-32.1,0.2-42.8-10.5-42.8-10.5
			S81.4,187.3,97.6,169.9z"/>
		<g>
			<path class="st9" d="M258,169.9c-1.2-1.2-16.1-20.4-29.5-25.1c0,0-3.2,7.3-3.4,16.7c-0.1,6,3.1,9.3,4.6,13.2
				c2.2,5.8,3.2,9.3,3.2,9.3l4.3,3l24.6-12.7C260.7,172.8,259.4,171.4,258,169.9z"/>
			<path class="st9" d="M124.8,184.2c0,0,1-3.5,3.2-9.3c1.5-3.9,4.7-7.2,4.6-13.2c-0.2-9.4-3.4-17-3.4-17
				c-13.3,4.6-30.3,23.8-31.5,25.1c-1.1,1.2-2.2,2.4-3.3,3.6l24.2,14L124.8,184.2z"/>
		</g>
		<g>
			<path class="st10" d="M178.1,148.8c-1.1,2.1-1.7,4.3-2.1,6.5c-0.4,2.3-0.6,4.6-0.8,6.9c-0.4,4.6-0.8,9.2-1.3,13.9
				c-0.4-4.7-0.3-9.4,0.1-14c0.2-2.3,0.5-4.7,1.1-7C175.6,152.9,176.5,150.6,178.1,148.8z"/>
		</g>
		<g>
			<path class="st10" d="M177.9,145.1c-1.6,2-2.6,4.3-3.4,6.7c-0.8,2.4-1.3,4.8-1.7,7.3c-1,4.9-1.8,9.9-2.9,14.9
				c0.2-5.1,0.7-10.1,1.7-15.1c0.5-2.5,1.1-5,2.1-7.4C174.6,149.1,176,146.8,177.9,145.1z"/>
		</g>
		<g>
			<path class="st10" d="M119.5,190.3c-5.1-0.1-10.2-0.5-15.3-0.9c-2.5-0.2-5-0.1-7.5,0.2c-2.5,0.3-5,0.7-7.5,1.2
				c2.4-1,4.9-1.7,7.4-2.2c2.5-0.5,5.2-0.7,7.8-0.5C109.4,188.6,114.5,189.3,119.5,190.3z"/>
		</g>
		<g>
			<path class="st10" d="M177.8,142.1c0.1,1.6,0.2,3.3,0.3,4.9l0.1,4.9c0.1,3.3,0.1,6.6,0.1,9.9c0,3.3,0,6.6-0.1,9.9l-0.1,4.9
				c-0.1,1.6-0.1,3.3-0.3,4.9c-0.1-1.6-0.2-3.3-0.3-4.9l-0.1-4.9c-0.1-3.3-0.1-6.6-0.1-9.9c0-3.3,0-6.6,0.1-9.9l0.1-4.9
				C177.6,145.4,177.7,143.8,177.8,142.1z"/>
		</g>
		<g>
			<path class="st10" d="M162.4,120.5c2.4,2.1,5.1,3.8,7.9,5.1c1.4,0.6,2.9,1.2,4.4,1.5c1.5,0.4,3,0.5,4.6,0.5
				c3.1-0.1,6.1-1,8.9-2.3c2.8-1.4,5.5-3.1,7.9-5.1c-2.1,2.4-4.7,4.4-7.5,6c-1.4,0.8-2.9,1.4-4.5,1.9c-1.6,0.4-3.2,0.7-4.8,0.8
				c-3.3,0.1-6.6-0.8-9.4-2.3C167,125,164.4,122.9,162.4,120.5z"/>
		</g>
		<g>
			<path class="st10" d="M179.9,82.8c0.4,2.7,0.6,5.3,1.3,7.8c0.4,1.2,0.9,2.4,1.5,3.5c0.6,1.1,1.4,2.1,2.4,2.9l0.4,0.3l-0.3,0.4
				c-1.5,1.8-3.4,3.2-5.5,3.9c1.8-1.3,3.4-2.8,4.7-4.6l0.1,0.7c-1.1-0.8-2.1-1.9-2.8-3.1c-0.7-1.2-1.2-2.5-1.6-3.8
				C179.5,88.1,179.6,85.4,179.9,82.8z"/>
		</g>
		<path class="st10" d="M189.1,104.5c0,0-3.6,2.1-9.3,2.1c-5.7,0-9-2.1-9.4-2.1c0,0,1.8,3.1,4.6,5.1c3.2-0.8,6.6-0.9,9.8-0.2
			C187.5,107.4,189.1,104.5,189.1,104.5z"/>
		<path class="st11" d="M175,109.6c1.4,1,3,1.7,4.8,1.7c1.9,0,3.6-0.8,5-1.9C181.6,108.7,178.2,108.7,175,109.6z"/>
		<g>
			<path class="st10" d="M161.8,84.7c0.7,1.2,1.5,2.3,2.4,3.3c0.9,0.9,2,1.6,3.1,1.6c1.1,0,2.2-0.7,3.1-1.6c0.9-0.9,1.6-2.1,2.3-3.3
				c-0.2,1.4-0.8,2.7-1.6,3.9c-0.4,0.6-0.9,1.1-1.6,1.6c-0.7,0.4-1.4,0.7-2.2,0.7c-0.8,0-1.6-0.3-2.2-0.7c-0.6-0.4-1.2-1-1.6-1.5
				C162.6,87.4,162.1,86.1,161.8,84.7z"/>
		</g>
		<g>
			<path class="st10" d="M187.8,84.7c0.7,1.2,1.5,2.3,2.4,3.3c0.9,0.9,2,1.6,3.1,1.6c1.1,0,2.2-0.7,3.1-1.6c0.9-0.9,1.6-2.1,2.3-3.3
				c-0.2,1.4-0.8,2.7-1.6,3.9c-0.4,0.6-0.9,1.1-1.6,1.6c-0.7,0.4-1.4,0.7-2.2,0.7c-0.8,0-1.6-0.3-2.2-0.7c-0.6-0.4-1.2-1-1.6-1.5
				C188.6,87.4,188,86.1,187.8,84.7z"/>
		</g>
		<g>
			<path class="st12" d="M155.7,81.3c0.7-1.7,1.8-3.2,3.1-4.6c1.3-1.4,2.8-2.5,4.6-3.4c0.9-0.4,1.7-0.9,2.7-1.2
				c0.9-0.3,1.9-0.5,2.9-0.5c1,0,2,0.1,2.9,0.4c0.9,0.3,1.8,0.7,2.6,1.3l-0.1,0.3c-1,0.2-1.8,0.4-2.7,0.6l-2.5,0.5
				c-0.8,0.2-1.6,0.3-2.4,0.4c-0.8,0.1-1.6,0.2-2.4,0.5c-1.6,0.5-3.1,1.3-4.5,2.3c-1.4,1-2.7,2.2-3.8,3.6L155.7,81.3z"/>
		</g>
		<g>
			<path class="st12" d="M202.1,81.5c-1.1-1.4-2.4-2.6-3.8-3.6c-1.4-1-2.9-1.7-4.5-2.3c-0.8-0.3-1.6-0.4-2.4-0.5
				c-0.8-0.1-1.6-0.2-2.4-0.4l-2.5-0.5c-0.8-0.2-1.7-0.3-2.7-0.6l-0.1-0.3c0.8-0.6,1.7-1.1,2.6-1.3c0.9-0.3,1.9-0.4,2.9-0.4
				c1,0,2,0.2,2.9,0.5c0.9,0.3,1.8,0.8,2.7,1.2c1.7,0.9,3.3,2,4.6,3.4c1.3,1.4,2.3,2.9,3.1,4.6L202.1,81.5z"/>
		</g>
		<g>
			<path class="st13" d="M143.3,65c3.8-0.5,7.5-1.5,10.9-3c3.5-1.5,6.8-3.4,9.7-5.8c3-2.4,5.5-5.2,7.7-8.3c2.2-3.1,4-6.5,5.2-10.1
				c-1.1,3.6-2.8,7.1-4.9,10.3c-2.1,3.2-4.8,6-7.7,8.4c-3,2.4-6.3,4.4-9.9,5.8C150.8,63.8,147.1,64.7,143.3,65z"/>
		</g>
		<g>
			<path class="st13" d="M147.2,55.8c4.3-1,8.4-3,11.7-5.8c1.7-1.4,3.2-3,4.5-4.8c1.3-1.8,2.4-3.7,3.3-5.7c-0.7,2.1-1.7,4.1-3,5.9
				c-1.3,1.8-2.8,3.5-4.5,4.9C155.8,53.3,151.7,55.3,147.2,55.8z"/>
		</g>
		<g>
			<path class="st13" d="M180.9,38c1.1,3.6,2.7,7,4.9,10.1c2.1,3.1,4.7,5.8,7.7,8.1c3,2.3,6.3,4,9.8,5.3c3.5,1.2,7.2,1.9,11,2
				c-3.8,0.1-7.5-0.5-11.1-1.6c-3.6-1.2-7-3-10-5.2c-3-2.3-5.6-5.1-7.7-8.3C183.4,45.1,181.8,41.6,180.9,38z"/>
		</g>
		<g>
			<path class="st13" d="M189.9,39.6c1.7,3.9,4.4,7.4,7.9,9.7c1.7,1.2,3.7,2.1,5.7,2.8c2,0.6,4.1,1,6.3,1.1
				c-2.1,0.2-4.3-0.1-6.4-0.7c-2.1-0.6-4.1-1.5-5.8-2.7C193.9,47.3,191.1,43.7,189.9,39.6z"/>
		</g>
		<g>
			<path class="st13" d="M209.9,70.3c0.4,4.3,1.1,8.6,2,12.8c0.9,4.2,1.9,8.4,3.3,12.6c1.3,4.1,2.8,8.2,4.5,12.2
				c1.7,4,3.6,7.9,5.8,11.6c-2.3-3.7-4.3-7.5-6.1-11.5c-1.8-4-3.3-8-4.7-12.2c-1.3-4.2-2.4-8.4-3.1-12.6
				C210.7,79,210.1,74.6,209.9,70.3z"/>
		</g>
		<g>
			<path class="st13" d="M214.9,117.5c-1.6-2.4-3-4.9-4.2-7.5c-0.6-1.3-1.1-2.6-1.5-4c-0.5-1.4-0.9-2.7-1.2-4.1l1.6,4
				c0.5,1.3,1.1,2.6,1.6,3.9c0.6,1.3,1.2,2.6,1.8,3.9L214.9,117.5z"/>
		</g>
		<g>
			<path class="st13" d="M202.2,129.3c-0.4-1.1-0.7-2.2-1-3.3c-0.3-1.1-0.6-2.2-0.8-3.3c-0.2-1.1-0.3-2.3-0.4-3.4
				c-0.1-1.1-0.1-2.3-0.1-3.4c0.4,2.3,0.6,4.5,1,6.7C201.3,124.8,201.9,127,202.2,129.3z"/>
		</g>
		<g>
			<path class="st13" d="M156.6,129.4c0.3-2.2,0.7-4.3,1-6.4c0.2-1.1,0.3-2.1,0.4-3.2c0.1-1.1,0.3-2.2,0.4-3.2c0,1.1,0,2.2,0,3.3
				c0,1.1-0.2,2.2-0.3,3.3c-0.2,1.1-0.4,2.1-0.6,3.2C157.2,127.3,156.9,128.4,156.6,129.4z"/>
		</g>
		<g>
			<path class="st13" d="M136.8,122.4c1.1-1.7,2.3-3.4,3.5-5.1c1.2-1.7,2.4-3.3,3.5-5c1.2-1.7,2.2-3.4,3.3-5.2l3.1-5.3
				c-0.8,1.9-1.8,3.7-2.7,5.5c-1,1.8-2.1,3.6-3.2,5.3c-1.2,1.7-2.4,3.4-3.6,5C139.4,119.2,138.1,120.8,136.8,122.4z"/>
		</g>
		<g>
			<path class="st13" d="M148.9,68.9c-1.3,4.2-2.7,8.4-4.2,12.5c-1.5,4.1-3.1,8.3-4.8,12.3c-1.8,4-3.7,8-5.8,11.9
				c-2.2,3.8-4.6,7.5-7.3,11c2.5-3.6,4.8-7.4,6.9-11.2c2.1-3.9,4-7.8,5.7-11.9c1.8-4,3.3-8.1,4.9-12.2L148.9,68.9z"/>
		</g>
		<path class="st8" d="M148.5,87.1c-1.3-1.7-3.7-2.8-5.8-2.1c-1.5,0.5-2.6,1.9-3.2,3.3c-2,4.3-1.2,9.8,2.5,13c1,0.9,2.2,1.6,3.6,1.7
			c2.4,0.2,4.6-1.7,5.3-3.8c0.7-1.9,0.8-4.4,0-6.3C150.2,90.9,149.8,88.7,148.5,87.1z"/>
		<path class="st14" d="M147.2,100.9c-0.8-0.6-1.6-1.4-1.7-2.5c0-0.2,0-0.4,0-0.5c0.1-0.2,0.2-0.3,0.3-0.4c0.8-0.6,1.7-1.1,2.7-1.2
			c-0.1-1.8-0.2-3.7-0.9-5.3c-0.7-1.6-2.1-2.9-3.6-2.7c-1.2,0.2-2.3,1.3-2.6,2.7c0,0-1,2.7,0.4,6
			C143.3,100.3,147.2,100.9,147.2,100.9z"/>
		<g>
			<path class="st10" d="M141.6,91c0.1-1.2,0.8-2.4,2-3c0.6-0.3,1.4-0.2,2,0c0.6,0.2,1.2,0.7,1.6,1.2c0.9,1,1.3,2.3,1.5,3.5
				c0.2,1.2,0.3,2.4,0.3,3.6l0,0.5l-0.5,0.1c-0.5,0.1-1.1,0.3-1.6,0.5c-0.3,0.1-0.5,0.2-0.7,0.4l-0.3,0.2c-0.1,0.1-0.1,0.1-0.1,0.2
				c-0.1,0.1,0,0.5,0,0.7c0.1,0.3,0.1,0.5,0.3,0.8c0.3,0.5,0.6,1,1,1.4c-0.5-0.3-1-0.7-1.4-1.2c-0.2-0.2-0.4-0.5-0.5-0.8
				c-0.1-0.3-0.2-0.6-0.2-1c0-0.2,0.2-0.5,0.3-0.6c0.1-0.1,0.2-0.2,0.4-0.3c0.2-0.2,0.5-0.4,0.8-0.5c0.5-0.3,1.2-0.6,1.8-0.7
				l-0.4,0.6c-0.1-1.2-0.2-2.3-0.4-3.4c-0.2-1.1-0.6-2.2-1.2-3c-0.6-0.8-1.6-1.4-2.6-1.2C142.8,89,142,89.9,141.6,91z"/>
		</g>
		<path class="st8" d="M208.3,87.1c1.3-1.7,3.7-2.8,5.8-2.1c1.5,0.5,2.6,1.9,3.2,3.3c2,4.3,1.2,9.8-2.5,13c-1,0.9-2.2,1.6-3.6,1.7
			c-2.4,0.2-4.6-1.7-5.3-3.8c-0.7-1.9-0.8-4.4,0-6.3C206.6,90.9,207,88.7,208.3,87.1z"/>
		<path class="st14" d="M209.5,100.9c0.8-0.6,1.6-1.4,1.7-2.5c0-0.2,0-0.4,0-0.5c-0.1-0.2-0.2-0.3-0.3-0.4c-0.8-0.6-1.7-1.1-2.7-1.2
			c0.1-1.8,0.2-3.7,0.9-5.3c0.7-1.6,2.1-2.9,3.6-2.7c1.2,0.2,2.3,1.3,2.6,2.7c0,0,1,2.7-0.4,6C213.4,100.3,209.5,100.9,209.5,100.9z
			"/>
		<g>
			<path class="st10" d="M215.2,91c-0.4-1.1-1.3-2-2.3-2.3c-1-0.2-1.9,0.3-2.6,1.2c-0.6,0.8-1,1.9-1.2,3c-0.2,1.1-0.3,2.3-0.4,3.4
				l-0.4-0.6c0.6,0.1,1.2,0.4,1.8,0.7c0.3,0.2,0.5,0.3,0.8,0.5c0.1,0.1,0.2,0.2,0.4,0.3c0.1,0.1,0.3,0.4,0.3,0.6
				c0.1,0.4-0.1,0.7-0.2,1c-0.1,0.3-0.3,0.6-0.5,0.8c-0.4,0.5-0.9,0.9-1.4,1.2c0.4-0.4,0.8-0.9,1-1.4c0.1-0.3,0.2-0.5,0.3-0.8
				c0.1-0.3,0.1-0.6,0-0.7c0-0.1-0.1-0.1-0.1-0.2l-0.3-0.2c-0.2-0.1-0.5-0.3-0.7-0.4c-0.5-0.2-1-0.4-1.6-0.5l-0.5-0.1l0-0.5
				c0-1.2,0.1-2.4,0.3-3.6c0.2-1.2,0.7-2.5,1.5-3.5c0.4-0.5,1-0.9,1.6-1.2c0.6-0.2,1.4-0.3,2,0C214.4,88.5,215.1,89.8,215.2,91z"/>
		</g>
		<g>
			<path class="st13" d="M209.1,152.3c-0.1-0.8,0-1.5,0.3-2.2c0.3-0.7,0.6-1.3,1.2-1.8c0.1,0.8,0,1.5-0.3,2.2
				C210.1,151.2,209.7,151.8,209.1,152.3z"/>
		</g>
		<g>
			<path class="st13" d="M213.8,153c0.1-0.7,0.5-1.2,0.9-1.7c0.4-0.4,0.9-0.8,1.7-1c-0.1,0.7-0.5,1.2-0.9,1.7
				C215.1,152.5,214.6,152.8,213.8,153z"/>
		</g>
		<g>
			<path class="st13" d="M217.3,160.3c0.7-0.1,1.3,0.1,1.9,0.4c0.5,0.3,1,0.6,1.4,1.3c-0.7,0.1-1.3-0.1-1.9-0.4
				C218.2,161.3,217.7,161,217.3,160.3z"/>
		</g>
		<g>
			<path class="st13" d="M219.4,172.6c0.2-0.7,0.5-1.2,0.9-1.7c0.4-0.5,0.8-0.9,1.5-1.2c0,0.7-0.3,1.3-0.7,1.8
				C220.6,172,220.1,172.4,219.4,172.6z"/>
		</g>
		<g>
			<path class="st13" d="M225,179.3c0.2-0.6,0.5-0.9,0.8-1.2c0.3-0.3,0.6-0.5,1.2-0.7c0.1,0.6-0.2,1.1-0.6,1.4
				C226.1,179.2,225.6,179.4,225,179.3z"/>
		</g>
		<g>
			<path class="st13" d="M220.5,145.9c0.6-0.1,1.1,0.1,1.5,0.4c0.4,0.3,0.8,0.6,1,1.2c-0.6,0.1-1.1-0.1-1.5-0.4
				C221,146.9,220.7,146.5,220.5,145.9z"/>
		</g>
		<g>
			<path class="st13" d="M220.3,155.8c0-0.5,0.2-0.8,0.3-1.1c0.2-0.3,0.4-0.5,0.9-0.7c0.2,0.5,0.1,0.9-0.1,1.3
				C221.2,155.6,220.8,155.8,220.3,155.8z"/>
		</g>
		<g>
			<path class="st13" d="M204.9,142.7c0.6,0.1,1,0.4,1.3,0.8c0.3,0.4,0.5,0.8,0.5,1.4c-0.6-0.1-1-0.4-1.3-0.8
				C205.2,143.7,205,143.3,204.9,142.7z"/>
		</g>
		<g>
			<path class="st13" d="M196.7,140.5c0.4,0.5,0.5,1,0.5,1.5c0,0.5-0.1,1-0.5,1.5c-0.4-0.5-0.5-1-0.5-1.5
				C196.3,141.5,196.3,141,196.7,140.5z"/>
		</g>
		<g>
			<path class="st13" d="M200.4,147.4c0.8,0.1,1.3,0.4,1.9,0.8c0.5,0.4,1,0.9,1.2,1.6c-0.8-0.1-1.3-0.4-1.9-0.8
				C201.1,148.6,200.7,148.1,200.4,147.4z"/>
		</g>
		<g>
			<path class="st13" d="M203.9,156.7c-0.2-0.8,0-1.5,0.2-2.2c0.2-0.7,0.5-1.4,1.1-2c0.2,0.8,0,1.5-0.2,2.2
				C204.7,155.4,204.4,156.1,203.9,156.7z"/>
		</g>
		<g>
			<path class="st13" d="M207.3,163.5c0.6-0.1,1,0.2,1.3,0.5c0.3,0.3,0.6,0.8,0.5,1.3c-0.6-0.1-0.9-0.4-1.2-0.6
				C207.7,164.3,207.4,164,207.3,163.5z"/>
		</g>
		<g>
			<path class="st13" d="M211.7,157.6c0.7,0.4,1,1,1.3,1.6c0.2,0.6,0.3,1.3,0.1,2c-0.5-0.6-0.8-1.1-1-1.7
				C211.8,159,211.6,158.4,211.7,157.6z"/>
		</g>
		<g>
			<path class="st13" d="M215.7,167.6c0.1,0.7-0.1,1.1-0.3,1.6c-0.2,0.5-0.5,0.9-1,1.3c-0.2-0.6-0.1-1.2,0.1-1.7
				C214.7,168.4,215.1,167.9,215.7,167.6z"/>
		</g>
		<g>
			<path class="st13" d="M217.7,178.6c0.5,0,0.8,0.2,1.1,0.5c0.2,0.3,0.4,0.6,0.4,1.2c-0.5,0-0.8-0.2-1.1-0.5
				C217.8,179.5,217.7,179.1,217.7,178.6z"/>
		</g>
		<g>
			<path class="st13" d="M225.2,186.6c0.1-0.7,0.4-1.3,0.7-1.8c0.4-0.5,0.8-0.9,1.5-1.1c-0.1,0.7-0.3,1.3-0.7,1.8
				C226.3,185.9,225.9,186.4,225.2,186.6z"/>
		</g>
		<g>
			<path class="st13" d="M217.2,186c0.7,0,1.2,0.2,1.6,0.5c0.4,0.3,0.8,0.7,1.1,1.3c-0.7,0-1.2-0.2-1.6-0.5
				C217.8,187.1,217.4,186.7,217.2,186z"/>
		</g>
		<g>
			<path class="st13" d="M211.9,188.1c-0.3-0.6-0.2-1.2-0.1-1.7c0.1-0.5,0.3-1.1,0.9-1.5c0.3,0.6,0.2,1.2,0.1,1.7
				C212.6,187.1,212.4,187.6,211.9,188.1z"/>
		</g>
		<g>
			<path class="st13" d="M210.1,177.3c0.7,0,1.2,0.2,1.7,0.6c0.4,0.4,0.8,0.9,0.8,1.6c-0.7-0.2-1.1-0.5-1.5-0.8
				C210.7,178.3,210.3,177.9,210.1,177.3z"/>
		</g>
		<g>
			<path class="st13" d="M209.5,170c0,0.7-0.2,1.1-0.5,1.6c-0.3,0.4-0.6,0.8-1.2,1.2c-0.1-0.7,0.1-1.2,0.3-1.7
				C208.5,170.6,208.9,170.2,209.5,170z"/>
		</g>
		<g>
			<path class="st13" d="M201.5,166.9c0.7,0.2,1.1,0.5,1.6,0.9c0.4,0.4,0.7,0.9,0.8,1.6c-0.7-0.2-1.1-0.5-1.6-0.9
				C201.9,168.1,201.6,167.6,201.5,166.9z"/>
		</g>
		<g>
			<path class="st13" d="M200,161.8c-0.1-0.6,0-1,0.2-1.4c0.2-0.4,0.5-0.7,1.1-0.9c0.1,0.6,0,1-0.2,1.4
				C200.9,161.2,200.6,161.6,200,161.8z"/>
		</g>
		<g>
			<path class="st13" d="M194.9,154c0.6,0,1.1,0.2,1.5,0.5c0.4,0.3,0.7,0.7,0.9,1.3c-0.6,0-1.1-0.2-1.5-0.5
				C195.4,155,195.1,154.6,194.9,154z"/>
		</g>
		<g>
			<path class="st13" d="M194.2,147.2c0.1,0.6,0,1-0.2,1.4c-0.2,0.4-0.5,0.7-1.1,0.9c-0.1-0.6,0-1,0.2-1.4
				C193.3,147.8,193.6,147.4,194.2,147.2z"/>
		</g>
		<g>
			<path class="st13" d="M187.5,142.3c0.7,0.2,1.2,0.6,1.6,1c0.4,0.5,0.8,1,0.9,1.7c-0.7-0.2-1.2-0.6-1.6-1
				C188,143.5,187.6,143,187.5,142.3z"/>
		</g>
		<g>
			<path class="st13" d="M192,137.7c0.6,0.3,1,0.8,1.2,1.3c0.2,0.5,0.3,1.2,0,1.8c-0.5-0.5-0.8-0.9-1-1.4
				C192.1,138.9,192,138.4,192,137.7z"/>
		</g>
		<g>
			<path class="st13" d="M191.8,158c0.3,0.4,0.4,0.8,0.3,1.2c-0.1,0.4-0.2,0.7-0.7,1c-0.3-0.4-0.4-0.8-0.3-1.2
				C191.2,158.6,191.4,158.3,191.8,158z"/>
		</g>
		<g>
			<path class="st13" d="M194.8,163.1c0.7,0.2,1.2,0.7,1.6,1.1c0.4,0.5,0.7,1,0.8,1.8c-0.7-0.2-1.2-0.7-1.6-1.1
				C195.2,164.3,194.8,163.8,194.8,163.1z"/>
		</g>
		<g>
			<path class="st13" d="M193.8,172.6c-0.2-0.7,0-1.4,0.2-2c0.2-0.6,0.5-1.2,1.1-1.7c0.2,0.7,0,1.4-0.2,2
				C194.7,171.5,194.4,172.1,193.8,172.6z"/>
		</g>
		<g>
			<path class="st13" d="M198.2,175.3c-0.1-0.6,0.1-1,0.3-1.4c0.2-0.4,0.5-0.7,1-1c0.2,0.6,0.1,1-0.1,1.5
				C199.1,174.8,198.8,175.2,198.2,175.3z"/>
		</g>
		<g>
			<path class="st13" d="M202.2,182.1c0.7,0,1.2,0.3,1.7,0.6c0.4,0.3,0.9,0.8,1.1,1.4c-0.7,0-1.2-0.3-1.7-0.6
				C202.8,183.1,202.4,182.7,202.2,182.1z"/>
		</g>
		<g>
			<path class="st13" d="M203.5,176.4c0.7,0.2,1.2,0.8,1.5,1.3c0.3,0.6,0.5,1.2,0.3,2c-0.6-0.5-0.9-1-1.2-1.5
				C203.8,177.7,203.6,177.1,203.5,176.4z"/>
		</g>
		<g>
			<path class="st13" d="M196,180.4c0.1,0.8,0,1.4-0.1,2.1c-0.1,0.6-0.3,1.3-0.7,1.9c-0.4-0.7-0.4-1.4-0.3-2.1
				C195.1,181.6,195.4,180.9,196,180.4z"/>
		</g>
		<g>
			<path class="st13" d="M199.5,188.2c0.8-0.3,1.5-0.2,2.2-0.1c0.7,0.1,1.4,0.3,2,0.9c-0.8,0.3-1.5,0.2-2.2,0.1
				C200.8,189,200.1,188.8,199.5,188.2z"/>
		</g>
		<g>
			<path class="st13" d="M170.3,141.6c0.5,0.6,0.7,1.2,0.8,1.8c0.1,0.6,0.1,1.3-0.2,2c-0.5-0.6-0.7-1.2-0.8-1.8
				C170,142.9,170,142.3,170.3,141.6z"/>
		</g>
		<g>
			<path class="st13" d="M165.2,139.9c0.2,0.6,0.1,1-0.1,1.4c-0.2,0.4-0.5,0.7-1,1c-0.2-0.6-0.1-1,0.1-1.4
				C164.4,140.5,164.7,140.2,165.2,139.9z"/>
		</g>
		<g>
			<path class="st13" d="M164.3,146.3c0.5,0.3,0.7,0.7,0.8,1.1c0.1,0.4,0.1,0.9-0.1,1.4c-0.5-0.3-0.7-0.7-0.8-1.1
				C164.1,147.3,164,146.8,164.3,146.3z"/>
		</g>
		<g>
			<path class="st13" d="M159.2,141.4c-0.2,0.9-0.6,1.5-1.1,2.1c-0.5,0.6-1.1,1.2-1.8,1.5c0.2-0.9,0.6-1.5,1.1-2.1
				C157.8,142.3,158.4,141.8,159.2,141.4z"/>
		</g>
		<g>
			<path class="st13" d="M163.6,154.5c0.6,0.2,1,0.7,1.3,1.1c0.3,0.5,0.5,1,0.5,1.7c-0.6-0.2-1-0.7-1.3-1.1
				C163.8,155.7,163.5,155.2,163.6,154.5z"/>
		</g>
		<g>
			<path class="st13" d="M159.7,149.6c0.2,0.7,0,1.3-0.4,1.8c-0.3,0.5-0.8,1-1.5,1.1c0.1-0.7,0.3-1.2,0.6-1.6
				C158.8,150.4,159.2,150,159.7,149.6z"/>
		</g>
		<g>
			<path class="st13" d="M150.8,142.5c0.6,0.2,1,0.6,1.2,1.1c0.2,0.5,0.4,1,0.3,1.6c-0.6-0.3-0.9-0.7-1.1-1.1
				C150.9,143.6,150.8,143.1,150.8,142.5z"/>
		</g>
		<g>
			<path class="st13" d="M154.1,149.6c0.2,0.6,0,1.1-0.1,1.6c-0.2,0.5-0.5,0.9-1.1,1.2c-0.2-0.6-0.1-1.1,0.1-1.6
				C153.2,150.3,153.5,149.9,154.1,149.6z"/>
		</g>
		<g>
			<path class="st13" d="M146.6,146c0.7,0.1,1.2,0.5,1.5,1.1c0.3,0.5,0.5,1.2,0.3,1.9c-0.5-0.4-0.8-0.9-1.1-1.3
				C147,147.1,146.8,146.6,146.6,146z"/>
		</g>
		<g>
			<path class="st13" d="M140.8,145.6c0.6,0,1,0.3,1.3,0.7c0.3,0.4,0.4,0.9,0.2,1.5c-0.5-0.3-0.8-0.6-1-0.9
				C141,146.5,140.8,146.2,140.8,145.6z"/>
		</g>
		<g>
			<path class="st13" d="M134.6,145.4c0.1,0.7,0,1.3-0.1,1.9c-0.1,0.6-0.3,1.1-0.7,1.8c-0.4-0.6-0.4-1.3-0.3-2
				C133.7,146.5,134,145.8,134.6,145.4z"/>
		</g>
		<g>
			<path class="st13" d="M137.9,152.7c0.1-0.6,0.3-1,0.6-1.4c0.3-0.3,0.7-0.6,1.4-0.6c-0.1,0.6-0.3,1-0.6,1.4
				C138.9,152.4,138.5,152.7,137.9,152.7z"/>
		</g>
		<g>
			<path class="st13" d="M144.2,154.5c0.7,0.1,1.1,0.5,1.5,0.8c0.4,0.4,0.7,0.9,0.7,1.5c-0.7-0.1-1.1-0.5-1.5-0.8
				C144.6,155.6,144.3,155.2,144.2,154.5z"/>
		</g>
		<g>
			<path class="st13" d="M151,159.4c0-0.7,0.3-1.3,0.6-1.8c0.3-0.5,0.7-1,1.3-1.4c0.1,0.7-0.1,1.4-0.4,1.9
				C152.1,158.6,151.7,159.2,151,159.4z"/>
		</g>
		<g>
			<path class="st13" d="M158.1,157.1c0.7,0.4,1,0.9,1.4,1.4c0.3,0.6,0.5,1.1,0.5,1.9c-0.7-0.4-1-0.9-1.4-1.4
				C158.3,158.4,158,157.8,158.1,157.1z"/>
		</g>
		<g>
			<path class="st13" d="M162.8,164.7c0-0.8,0.2-1.4,0.4-2c0.3-0.6,0.5-1.2,1.1-1.7c0.2,0.7,0.1,1.4-0.2,2.1
				C163.9,163.8,163.5,164.3,162.8,164.7z"/>
		</g>
		<g>
			<path class="st13" d="M160.6,168c0.6,0.2,1,0.6,1.3,1c0.3,0.4,0.5,0.9,0.5,1.6c-0.6-0.2-1-0.6-1.3-1
				C160.9,169.1,160.6,168.7,160.6,168z"/>
		</g>
		<g>
			<path class="st13" d="M155.9,164.3c0.2,0.6,0.1,1.1-0.1,1.6c-0.2,0.5-0.5,0.9-1,1.3c-0.2-0.6-0.1-1.1,0.1-1.6
				C155.1,165.2,155.3,164.7,155.9,164.3z"/>
		</g>
		<g>
			<path class="st13" d="M147.9,162c0.6,0.2,0.9,0.6,1.2,1c0.2,0.4,0.4,0.9,0.3,1.5c-0.6-0.2-0.9-0.6-1.2-1
				C148,163.1,147.8,162.6,147.9,162z"/>
		</g>
		<g>
			<path class="st13" d="M142,160.5c-0.1,0.7-0.3,1.1-0.5,1.5c-0.3,0.4-0.6,0.8-1.1,1.2c-0.2-0.6,0-1.2,0.2-1.7
				C141,161.1,141.4,160.7,142,160.5z"/>
		</g>
		<g>
			<path class="st13" d="M135.7,155.8c0.5,0.3,0.7,0.6,0.8,1c0.1,0.4,0.1,0.8-0.2,1.2c-0.5-0.3-0.7-0.6-0.8-1
				C135.4,156.6,135.4,156.3,135.7,155.8z"/>
		</g>
		<g>
			<path class="st13" d="M136.1,165.6c0.2,0.6,0.2,1.2,0,1.7c-0.2,0.5-0.4,1-0.9,1.4c-0.2-0.6-0.2-1.2,0-1.7
				C135.3,166.5,135.5,166.1,136.1,165.6z"/>
		</g>
		<g>
			<path class="st13" d="M140.6,168.4c0.6,0.2,0.9,0.5,1.2,0.8c0.2,0.4,0.4,0.8,0.4,1.4c-0.6-0.1-0.9-0.5-1.2-0.8
				C140.7,169.4,140.5,168.9,140.6,168.4z"/>
		</g>
		<g>
			<path class="st13" d="M145.9,172c0-0.7,0.3-1.2,0.5-1.7c0.3-0.5,0.6-1,1.2-1.4c0.2,0.7,0,1.3-0.3,1.8
				C147,171.3,146.5,171.8,145.9,172z"/>
		</g>
		<g>
			<path class="st13" d="M152.1,172.6c0.7,0.1,1.1,0.3,1.6,0.5c0.4,0.3,0.8,0.6,1.2,1.1c-0.6,0.2-1.2,0-1.7-0.3
				C152.6,173.6,152.2,173.2,152.1,172.6z"/>
		</g>
		<g>
			<path class="st13" d="M158.3,177.1c0-0.6,0.2-1.1,0.4-1.6c0.2-0.4,0.5-0.8,1.1-1.2c0.2,0.6,0,1.2-0.2,1.6
				C159.3,176.5,158.9,176.9,158.3,177.1z"/>
		</g>
		<g>
			<path class="st13" d="M161.4,180c0.6,0.1,1,0.3,1.3,0.7c0.3,0.3,0.5,0.7,0.5,1.3c-0.6-0.1-1-0.3-1.3-0.7
				C161.6,181,161.4,180.6,161.4,180z"/>
		</g>
		<g>
			<path class="st13" d="M158.5,184.4c0.1,0.6,0,1-0.2,1.4c-0.2,0.4-0.5,0.7-1.1,0.9c-0.1-0.6,0-1,0.2-1.4
				C157.6,185,157.9,184.6,158.5,184.4z"/>
		</g>
		<g>
			<path class="st13" d="M153.2,179.7c0.3,0.4,0.4,0.7,0.3,1c-0.1,0.3-0.2,0.6-0.7,0.8c-0.3-0.4-0.4-0.7-0.3-1
				C152.6,180.2,152.7,179.9,153.2,179.7z"/>
		</g>
		<g>
			<path class="st13" d="M147.7,176c0.6,0.3,1,0.7,1.3,1.2c0.3,0.5,0.5,1,0.4,1.7c-0.6-0.3-1-0.7-1.3-1.2
				C147.8,177.2,147.6,176.7,147.7,176z"/>
		</g>
		<g>
			<path class="st13" d="M142.9,178.9c-0.1-0.7,0.1-1.2,0.3-1.7c0.3-0.5,0.6-0.9,1.2-1.2c0.1,0.7-0.1,1.2-0.3,1.7
				C143.9,178.2,143.5,178.6,142.9,178.9z"/>
		</g>
		<g>
			<path class="st13" d="M137.9,175.1c0.6,0.3,0.9,0.7,1.2,1.2c0.2,0.5,0.3,1.1,0.1,1.7c-0.5-0.4-0.8-0.8-1-1.3
				C137.9,176.3,137.8,175.8,137.9,175.1z"/>
		</g>
		<g>
			<path class="st13" d="M131.1,176.9c0-0.7,0.2-1.2,0.5-1.6c0.3-0.5,0.6-0.9,1.2-1.3c0.2,0.7,0,1.2-0.3,1.8
				C132.2,176.3,131.8,176.7,131.1,176.9z"/>
		</g>
		<g>
			<path class="st13" d="M130,183c0.6,0.1,1,0.4,1.3,0.8c0.3,0.4,0.5,0.8,0.5,1.4c-0.6-0.1-1-0.4-1.3-0.8
				C130.2,184,130,183.6,130,183z"/>
		</g>
		<g>
			<path class="st13" d="M138.2,182c0.3,0.6,0.4,1,0.5,1.5c0,0.5,0.1,1-0.2,1.6c-0.5-0.4-0.8-0.9-0.8-1.5
				C137.7,183.1,137.8,182.5,138.2,182z"/>
		</g>
		<g>
			<path class="st13" d="M134.4,179.3c0.5,0.3,0.7,0.7,0.8,1c0.1,0.4,0.1,0.8-0.1,1.3c-0.5-0.3-0.7-0.7-0.8-1
				C134.2,180.2,134.2,179.8,134.4,179.3z"/>
		</g>
		<g>
			<path class="st13" d="M140.9,188.6c0.2-0.7,0.6-1.2,1-1.6c0.4-0.5,0.8-0.9,1.4-1.3c0.1,0.7-0.2,1.4-0.7,1.9
				C142.2,188.1,141.7,188.5,140.9,188.6z"/>
		</g>
		<g>
			<path class="st13" d="M146.4,182.8c0.5,0,0.8,0.2,1,0.5c0.2,0.3,0.4,0.6,0.3,1.1c-0.5,0-0.8-0.2-1-0.5
				C146.5,183.6,146.3,183.3,146.4,182.8z"/>
		</g>
		<g>
			<path class="st13" d="M150.8,189.2c0-0.6,0.2-1,0.4-1.3c0.2-0.3,0.5-0.6,1.1-0.9c0.2,0.6,0,1-0.2,1.4
				C151.8,188.8,151.4,189.1,150.8,189.2z"/>
		</g>
		<g>
			<path class="st13" d="M157.5,190.6c0.2-0.5,0.4-0.7,0.7-1c0.3-0.2,0.6-0.4,1.1-0.5c0.1,0.6-0.1,1-0.5,1.3
				C158.5,190.7,158.1,190.8,157.5,190.6z"/>
		</g>
		<g>
			<path class="st13" d="M134,212.7c0.8,0.3,1.3,0.8,1.8,1.4c0.5,0.6,0.9,1.2,1.1,2.1c-0.8-0.3-1.3-0.8-1.8-1.4
				C134.6,214.1,134.2,213.5,134,212.7z"/>
		</g>
		<g>
			<path class="st13" d="M138.4,219.6c-0.1-0.7,0-1.2,0.3-1.8c0.3-0.5,0.6-1,1.2-1.3c0.1,0.7,0,1.2-0.3,1.8
				C139.4,218.8,139,219.3,138.4,219.6z"/>
		</g>
		<g>
			<path class="st13" d="M141.9,211.4c0.7,0,1.2,0.4,1.5,0.8c0.3,0.5,0.6,1,0.5,1.7c-0.6-0.3-0.9-0.7-1.2-1.1
				C142.3,212.5,142,212,141.9,211.4z"/>
		</g>
		<g>
			<path class="st13" d="M148.6,218c-0.3-0.8-0.2-1.6,0-2.3c0.2-0.7,0.6-1.4,1.3-1.9c0,0.8-0.2,1.5-0.4,2.2
				C149.3,216.6,149.1,217.3,148.6,218z"/>
		</g>
		<g>
			<path class="st13" d="M153,210.7c0.6,0.1,0.9,0.4,1.1,0.7c0.2,0.3,0.4,0.7,0.3,1.3c-0.6-0.1-0.9-0.4-1.1-0.7
				C153.1,211.6,152.9,211.2,153,210.7z"/>
		</g>
		<g>
			<path class="st13" d="M157.2,216.6c0.3-0.5,0.6-0.8,0.9-1c0.3-0.2,0.7-0.4,1.3-0.5c0,0.6-0.3,1-0.7,1.3
				C158.3,216.6,157.8,216.8,157.2,216.6z"/>
		</g>
		<g>
			<path class="st13" d="M161.4,210.5c0.2-0.4,0.5-0.5,0.8-0.6c0.3,0,0.6,0,0.9,0.4c-0.2,0.4-0.5,0.5-0.8,0.6
				C162,210.9,161.7,210.8,161.4,210.5z"/>
		</g>
		<g>
			<path class="st13" d="M168.3,208.3c0.6,0,0.9,0.3,1.3,0.6c0.3,0.3,0.5,0.7,0.5,1.3c-0.6,0-0.9-0.3-1.3-0.6
				C168.6,209.3,168.3,208.9,168.3,208.3z"/>
		</g>
		<g>
			<path class="st13" d="M173.2,204.7c0.5,0.1,0.8,0.4,1,0.7c0.2,0.3,0.3,0.7,0.1,1.2c-0.5-0.1-0.8-0.4-1-0.7
				C173.2,205.5,173.1,205.2,173.2,204.7z"/>
		</g>
		<g>
			<path class="st13" d="M176.5,202.1c0.1-0.8,0.4-1.4,0.8-2c0.4-0.6,0.9-1.1,1.6-1.4c-0.1,0.8-0.4,1.4-0.8,2
				C177.7,201.2,177.2,201.7,176.5,202.1z"/>
		</g>
		<g>
			<path class="st13" d="M177.4,194.1c0.5,0.1,0.7,0.3,0.9,0.6c0.2,0.3,0.3,0.5,0.3,1.1c-0.5,0.1-0.9-0.2-1.1-0.5
				C177.4,195,177.2,194.6,177.4,194.1z"/>
		</g>
		<g>
			<path class="st13" d="M181.2,203.4c0.4,0.7,0.5,1.4,0.5,2.1c0,0.7,0,1.4-0.3,2.1c-0.5-0.6-0.6-1.4-0.7-2.1
				C180.7,204.8,180.8,204.1,181.2,203.4z"/>
		</g>
		<g>
			<path class="st13" d="M176,211.4c0.1-0.6,0.4-0.9,0.7-1.2c0.3-0.3,0.7-0.5,1.3-0.4c-0.1,0.6-0.4,0.9-0.7,1.2
				C176.9,211.2,176.5,211.4,176,211.4z"/>
		</g>
		<g>
			<path class="st13" d="M172.3,215c0.6,0.2,0.9,0.4,1.2,0.7c0.3,0.3,0.6,0.6,0.8,1.1c-0.6,0.2-1.1-0.1-1.5-0.4
				C172.5,216.1,172.2,215.6,172.3,215z"/>
		</g>
		<g>
			<path class="st13" d="M183.6,213.2c0.6,0.2,0.9,0.5,1.2,0.9c0.3,0.4,0.5,0.9,0.4,1.5c-0.6-0.2-0.9-0.5-1.2-0.9
				C183.8,214.3,183.6,213.8,183.6,213.2z"/>
		</g>
		<g>
			<path class="st13" d="M187.6,209.8c0.2-0.5,0.4-0.8,0.7-1c0.3-0.2,0.6-0.4,1.2-0.4c0,0.6-0.2,0.9-0.5,1.2
				C188.6,209.8,188.2,209.9,187.6,209.8z"/>
		</g>
		<g>
			<path class="st13" d="M192.4,213.2c0.6,0,0.9,0.2,1.2,0.5c0.3,0.3,0.5,0.6,0.5,1.2c-0.6,0-0.9-0.2-1.2-0.5
				C192.6,214.1,192.4,213.8,192.4,213.2z"/>
		</g>
		<g>
			<path class="st13" d="M196.6,209.8c0.4-0.4,0.7-0.5,1-0.6c0.3-0.1,0.7-0.1,1.2,0.1c-0.1,0.5-0.5,0.8-0.9,0.9
				C197.4,210.2,196.9,210.2,196.6,209.8z"/>
		</g>
		<g>
			<path class="st13" d="M201,212.5c0.6,0.3,1,0.7,1.4,1.1c0.4,0.4,0.7,0.9,0.9,1.6c-0.7-0.1-1.2-0.5-1.6-0.9
				C201.3,213.7,201,213.2,201,212.5z"/>
		</g>
		<g>
			<path class="st13" d="M206.8,213.8c0.2-0.6,0.4-0.9,0.7-1.3c0.3-0.3,0.7-0.6,1.3-0.7c0,0.6-0.2,1.1-0.6,1.4
				C207.8,213.5,207.4,213.8,206.8,213.8z"/>
		</g>
		<g>
			<path class="st13" d="M213,211.2c0.6,0.3,0.9,0.8,1.2,1.3c0.2,0.5,0.4,1.1,0.3,1.8c-0.6-0.3-0.9-0.8-1.2-1.3
				C213,212.5,212.9,211.9,213,211.2z"/>
		</g>
		<g>
			<path class="st13" d="M219.7,212.3c-0.1-0.6,0.1-0.9,0.3-1.2c0.3-0.3,0.6-0.5,1.1-0.6c0.1,0.6-0.1,0.9-0.3,1.2
				C220.6,212,220.3,212.3,219.7,212.3z"/>
		</g>
		<g>
			<path class="st13" d="M225.4,210.7c0.5,0.3,0.8,0.7,0.9,1.1c0.1,0.4,0.2,0.9,0,1.4c-0.5-0.3-0.8-0.7-0.9-1.1
				C225.2,211.7,225.1,211.2,225.4,210.7z"/>
		</g>
		<g>
			<path class="st13" d="M209.1,232.9c-0.1-0.8,0-1.5,0.3-2.2c0.3-0.7,0.6-1.3,1.2-1.8c0.1,0.8,0,1.5-0.3,2.2
				C210.1,231.8,209.7,232.4,209.1,232.9z"/>
		</g>
		<g>
			<path class="st13" d="M213.8,233.6c0.1-0.7,0.5-1.2,0.9-1.7c0.4-0.4,0.9-0.8,1.7-1c-0.1,0.7-0.5,1.2-0.9,1.7
				C215.1,233.1,214.6,233.5,213.8,233.6z"/>
		</g>
		<g>
			<path class="st13" d="M217.3,241c0.7-0.1,1.3,0.1,1.9,0.4c0.5,0.3,1,0.6,1.4,1.3c-0.7,0.1-1.3-0.1-1.9-0.4
				C218.2,241.9,217.7,241.6,217.3,241z"/>
		</g>
		<g>
			<path class="st13" d="M219.4,253.2c0.2-0.7,0.5-1.2,0.9-1.7c0.4-0.5,0.8-0.9,1.5-1.2c0,0.7-0.3,1.3-0.7,1.8
				C220.6,252.6,220.1,253,219.4,253.2z"/>
		</g>
		<g>
			<path class="st13" d="M225,259.9c0.2-0.6,0.5-0.9,0.8-1.2c0.3-0.3,0.6-0.5,1.2-0.7c0.1,0.6-0.2,1.1-0.6,1.4
				C226.1,259.8,225.6,260.1,225,259.9z"/>
		</g>
		<g>
			<path class="st13" d="M220.5,226.5c0.6-0.1,1.1,0.1,1.5,0.4c0.4,0.3,0.8,0.6,1,1.2c-0.6,0.1-1.1-0.1-1.5-0.4
				C221,227.5,220.7,227.2,220.5,226.5z"/>
		</g>
		<g>
			<path class="st13" d="M220.3,236.4c0-0.5,0.2-0.8,0.3-1.1c0.2-0.3,0.4-0.5,0.9-0.7c0.2,0.5,0.1,0.9-0.1,1.3
				C221.2,236.2,220.8,236.5,220.3,236.4z"/>
		</g>
		<g>
			<path class="st13" d="M204.9,223.3c0.6,0.1,1,0.4,1.3,0.8c0.3,0.4,0.5,0.8,0.5,1.4c-0.6-0.1-1-0.4-1.3-0.8
				C205.2,224.3,205,223.9,204.9,223.3z"/>
		</g>
		<g>
			<path class="st13" d="M196.7,221.1c0.4,0.5,0.5,1,0.5,1.5c0,0.5-0.1,1-0.5,1.5c-0.4-0.5-0.5-1-0.5-1.5
				C196.3,222.1,196.3,221.6,196.7,221.1z"/>
		</g>
		<g>
			<path class="st13" d="M200.4,228c0.8,0.1,1.3,0.4,1.9,0.8c0.5,0.4,1,0.9,1.2,1.6c-0.8-0.1-1.3-0.4-1.9-0.8
				C201.1,229.2,200.7,228.7,200.4,228z"/>
		</g>
		<g>
			<path class="st13" d="M203.9,237.3c-0.2-0.8,0-1.5,0.2-2.2c0.2-0.7,0.5-1.4,1.1-2c0.2,0.8,0,1.5-0.2,2.2
				C204.7,236.1,204.4,236.7,203.9,237.3z"/>
		</g>
		<g>
			<path class="st13" d="M207.3,244.1c0.6-0.1,1,0.2,1.3,0.5c0.3,0.3,0.6,0.8,0.5,1.3c-0.6-0.1-0.9-0.4-1.2-0.6
				C207.7,245,207.4,244.6,207.3,244.1z"/>
		</g>
		<g>
			<path class="st13" d="M211.7,238.2c0.7,0.4,1,1,1.3,1.6c0.2,0.6,0.3,1.3,0.1,2c-0.5-0.6-0.8-1.1-1-1.7
				C211.8,239.6,211.6,239,211.7,238.2z"/>
		</g>
		<g>
			<path class="st13" d="M215.7,248.3c0.1,0.7-0.1,1.1-0.3,1.6c-0.2,0.5-0.5,0.9-1,1.3c-0.2-0.6-0.1-1.2,0.1-1.7
				C214.7,249,215.1,248.5,215.7,248.3z"/>
		</g>
		<g>
			<path class="st13" d="M217.7,259.2c0.5,0,0.8,0.2,1.1,0.5c0.2,0.3,0.4,0.6,0.4,1.2c-0.5,0-0.8-0.2-1.1-0.5
				C217.8,260.1,217.7,259.7,217.7,259.2z"/>
		</g>
		<g>
			<path class="st13" d="M225.2,267.2c0.1-0.7,0.4-1.3,0.7-1.8c0.4-0.5,0.8-0.9,1.5-1.1c-0.1,0.7-0.3,1.3-0.7,1.8
				C226.3,266.6,225.9,267,225.2,267.2z"/>
		</g>
		<g>
			<path class="st13" d="M217.2,266.7c0.7,0,1.2,0.2,1.6,0.5c0.4,0.3,0.8,0.7,1.1,1.3c-0.7,0-1.2-0.2-1.6-0.5
				C217.8,267.7,217.4,267.3,217.2,266.7z"/>
		</g>
		<g>
			<path class="st13" d="M211.9,268.7c-0.3-0.6-0.2-1.2-0.1-1.7c0.1-0.5,0.3-1.1,0.9-1.5c0.3,0.6,0.2,1.2,0.1,1.7
				C212.6,267.7,212.4,268.2,211.9,268.7z"/>
		</g>
		<g>
			<path class="st13" d="M210.1,257.9c0.7,0,1.2,0.2,1.7,0.6c0.4,0.4,0.8,0.9,0.8,1.6c-0.7-0.2-1.1-0.5-1.5-0.8
				C210.7,258.9,210.3,258.5,210.1,257.9z"/>
		</g>
		<g>
			<path class="st13" d="M209.5,250.6c0,0.7-0.2,1.1-0.5,1.6c-0.3,0.4-0.6,0.8-1.2,1.2c-0.1-0.7,0.1-1.2,0.3-1.7
				C208.5,251.2,208.9,250.8,209.5,250.6z"/>
		</g>
		<g>
			<path class="st13" d="M201.5,247.5c0.7,0.2,1.1,0.5,1.6,0.9c0.4,0.4,0.7,0.9,0.8,1.6c-0.7-0.2-1.1-0.5-1.6-0.9
				C201.9,248.7,201.6,248.2,201.5,247.5z"/>
		</g>
		<g>
			<path class="st13" d="M200,242.4c-0.1-0.6,0-1,0.2-1.4c0.2-0.4,0.5-0.7,1.1-0.9c0.1,0.6,0,1-0.2,1.4
				C200.9,241.9,200.6,242.2,200,242.4z"/>
		</g>
		<g>
			<path class="st13" d="M194.9,234.6c0.6,0,1.1,0.2,1.5,0.5c0.4,0.3,0.7,0.7,0.9,1.3c-0.6,0-1.1-0.2-1.5-0.5
				C195.4,235.6,195.1,235.2,194.9,234.6z"/>
		</g>
		<g>
			<path class="st13" d="M194.2,227.8c0.1,0.6,0,1-0.2,1.4c-0.2,0.4-0.5,0.7-1.1,0.9c-0.1-0.6,0-1,0.2-1.4
				C193.3,228.4,193.6,228,194.2,227.8z"/>
		</g>
		<g>
			<path class="st13" d="M187.5,222.9c0.7,0.2,1.2,0.6,1.6,1c0.4,0.5,0.8,1,0.9,1.7c-0.7-0.2-1.2-0.6-1.6-1
				C188,224.1,187.6,223.6,187.5,222.9z"/>
		</g>
		<g>
			<path class="st13" d="M192,218.4c0.6,0.3,1,0.8,1.2,1.3c0.2,0.5,0.3,1.2,0,1.8c-0.5-0.5-0.8-0.9-1-1.4
				C192.1,219.5,192,219,192,218.4z"/>
		</g>
		<g>
			<path class="st13" d="M191.8,238.6c0.3,0.4,0.4,0.8,0.3,1.2c-0.1,0.4-0.2,0.7-0.7,1c-0.3-0.4-0.4-0.8-0.3-1.2
				C191.2,239.2,191.4,238.9,191.8,238.6z"/>
		</g>
		<g>
			<path class="st13" d="M194.8,243.7c0.7,0.2,1.2,0.7,1.6,1.1c0.4,0.5,0.7,1,0.8,1.8c-0.7-0.2-1.2-0.7-1.6-1.1
				C195.2,245,194.8,244.4,194.8,243.7z"/>
		</g>
		<g>
			<path class="st13" d="M193.8,253.2c-0.2-0.7,0-1.4,0.2-2c0.2-0.6,0.5-1.2,1.1-1.7c0.2,0.7,0,1.4-0.2,2
				C194.7,252.1,194.4,252.7,193.8,253.2z"/>
		</g>
		<g>
			<path class="st13" d="M198.2,255.9c-0.1-0.6,0.1-1,0.3-1.4c0.2-0.4,0.5-0.7,1-1c0.2,0.6,0.1,1-0.1,1.5
				C199.1,255.4,198.8,255.8,198.2,255.9z"/>
		</g>
		<g>
			<path class="st13" d="M202.2,262.7c0.7,0,1.2,0.3,1.7,0.6c0.4,0.3,0.9,0.8,1.1,1.4c-0.7,0-1.2-0.3-1.7-0.6
				C202.8,263.7,202.4,263.3,202.2,262.7z"/>
		</g>
		<g>
			<path class="st13" d="M203.5,257c0.7,0.2,1.2,0.8,1.5,1.3c0.3,0.6,0.5,1.2,0.3,2c-0.6-0.5-0.9-1-1.2-1.5
				C203.8,258.3,203.6,257.7,203.5,257z"/>
		</g>
		<g>
			<path class="st13" d="M196,261c0.1,0.8,0,1.4-0.1,2.1c-0.1,0.6-0.3,1.3-0.7,1.9c-0.4-0.7-0.4-1.4-0.3-2.1
				C195.1,262.2,195.4,261.5,196,261z"/>
		</g>
		<g>
			<path class="st13" d="M185,232.9c-0.1-0.8,0-1.5,0.3-2.2c0.3-0.7,0.6-1.3,1.2-1.8c0.1,0.8,0,1.5-0.3,2.2
				C186,231.8,185.6,232.4,185,232.9z"/>
		</g>
		<g>
			<path class="st13" d="M180.8,223.3c0.6,0.1,1,0.4,1.3,0.8c0.3,0.4,0.5,0.8,0.5,1.4c-0.6-0.1-1-0.4-1.3-0.8
				C181.1,224.3,180.9,223.9,180.8,223.3z"/>
		</g>
		<g>
			<path class="st13" d="M172.6,221.1c0.4,0.5,0.5,1,0.5,1.5c0,0.5-0.1,1-0.5,1.5c-0.4-0.5-0.5-1-0.5-1.5
				C172.2,222.1,172.2,221.6,172.6,221.1z"/>
		</g>
		<g>
			<path class="st13" d="M176.3,228c0.8,0.1,1.3,0.4,1.9,0.8c0.5,0.4,1,0.9,1.2,1.6c-0.8-0.1-1.3-0.4-1.9-0.8
				C177,229.2,176.6,228.7,176.3,228z"/>
		</g>
		<g>
			<path class="st13" d="M179.8,237.3c-0.2-0.8,0-1.5,0.2-2.2c0.2-0.7,0.5-1.4,1.1-2c0.2,0.8,0,1.5-0.2,2.2
				C180.6,236.1,180.3,236.7,179.8,237.3z"/>
		</g>
		<g>
			<path class="st13" d="M183.2,244.1c0.6-0.1,1,0.2,1.3,0.5c0.3,0.3,0.6,0.8,0.5,1.3c-0.6-0.1-0.9-0.4-1.2-0.6
				C183.6,245,183.3,244.6,183.2,244.1z"/>
		</g>
		<g>
			<path class="st13" d="M186,257.9c0.7,0,1.2,0.2,1.7,0.6c0.4,0.4,0.8,0.9,0.8,1.6c-0.7-0.2-1.1-0.5-1.5-0.8
				C186.6,258.9,186.2,258.5,186,257.9z"/>
		</g>
		<g>
			<path class="st13" d="M185.4,250.6c0,0.7-0.2,1.1-0.5,1.6c-0.3,0.4-0.6,0.8-1.2,1.2c-0.1-0.7,0.1-1.2,0.3-1.7
				C184.4,251.2,184.8,250.8,185.4,250.6z"/>
		</g>
		<g>
			<path class="st13" d="M177.4,247.5c0.7,0.2,1.1,0.5,1.6,0.9c0.4,0.4,0.7,0.9,0.8,1.6c-0.7-0.2-1.1-0.5-1.6-0.9
				C177.8,248.7,177.5,248.2,177.4,247.5z"/>
		</g>
		<g>
			<path class="st13" d="M175.9,242.4c-0.1-0.6,0-1,0.2-1.4c0.2-0.4,0.5-0.7,1.1-0.9c0.1,0.6,0,1-0.2,1.4
				C176.8,241.9,176.5,242.2,175.9,242.4z"/>
		</g>
		<g>
			<path class="st13" d="M170.8,234.6c0.6,0,1.1,0.2,1.5,0.5c0.4,0.3,0.7,0.7,0.9,1.3c-0.6,0-1.1-0.2-1.5-0.5
				C171.3,235.6,171,235.2,170.8,234.6z"/>
		</g>
		<g>
			<path class="st13" d="M170.1,227.8c0.1,0.6,0,1-0.2,1.4c-0.2,0.4-0.5,0.7-1.1,0.9c-0.1-0.6,0-1,0.2-1.4
				C169.2,228.4,169.5,228,170.1,227.8z"/>
		</g>
		<g>
			<path class="st13" d="M166.3,253.6c0.7,0.2,1.2,0.6,1.6,1c0.4,0.5,0.8,1,0.9,1.7c-0.7-0.2-1.2-0.6-1.6-1
				C166.8,254.9,166.4,254.4,166.3,253.6z"/>
		</g>
		<g>
			<path class="st13" d="M167.9,218.4c0.6,0.3,1,0.8,1.2,1.3c0.2,0.5,0.3,1.2,0,1.8c-0.5-0.5-0.8-0.9-1-1.4
				C168,219.5,167.9,219,167.9,218.4z"/>
		</g>
		<g>
			<path class="st13" d="M167.7,238.6c0.3,0.4,0.4,0.8,0.3,1.2c-0.1,0.4-0.2,0.7-0.7,1c-0.3-0.4-0.4-0.8-0.3-1.2
				C167.1,239.2,167.3,238.9,167.7,238.6z"/>
		</g>
		<g>
			<path class="st13" d="M170.7,243.7c0.7,0.2,1.2,0.7,1.6,1.1c0.4,0.5,0.7,1,0.8,1.8c-0.7-0.2-1.2-0.7-1.6-1.1
				C171.1,245,170.7,244.4,170.7,243.7z"/>
		</g>
		<g>
			<path class="st13" d="M169.7,253.2c-0.2-0.7,0-1.4,0.2-2c0.2-0.6,0.5-1.2,1.1-1.7c0.2,0.7,0,1.4-0.2,2
				C170.6,252.1,170.3,252.7,169.7,253.2z"/>
		</g>
		<g>
			<path class="st13" d="M174.1,255.9c-0.1-0.6,0.1-1,0.3-1.4c0.2-0.4,0.5-0.7,1-1c0.2,0.6,0.1,1-0.1,1.5
				C175,255.4,174.7,255.8,174.1,255.9z"/>
		</g>
		<g>
			<path class="st13" d="M178.1,262.7c0.7,0,1.2,0.3,1.7,0.6c0.4,0.3,0.9,0.8,1.1,1.4c-0.7,0-1.2-0.3-1.7-0.6
				C178.7,263.7,178.3,263.3,178.1,262.7z"/>
		</g>
		<g>
			<path class="st13" d="M179.4,257c0.7,0.2,1.2,0.8,1.5,1.3c0.3,0.6,0.5,1.2,0.3,2c-0.6-0.5-0.9-1-1.2-1.5
				C179.7,258.3,179.5,257.7,179.4,257z"/>
		</g>
		<g>
			<path class="st13" d="M171.9,261c0.1,0.8,0,1.4-0.1,2.1c-0.1,0.6-0.3,1.3-0.7,1.9c-0.4-0.7-0.4-1.4-0.3-2.1
				C171,262.2,171.3,261.5,171.9,261z"/>
		</g>
		<g>
			<path class="st13" d="M199.5,268.9c0.8-0.3,1.5-0.2,2.2-0.1c0.7,0.1,1.4,0.3,2,0.9c-0.8,0.3-1.5,0.2-2.2,0.1
				C200.8,269.6,200.1,269.4,199.5,268.9z"/>
		</g>
		<g>
			<path class="st13" d="M170.3,222.2c0.5,0.6,0.7,1.2,0.8,1.8c0.1,0.6,0.1,1.3-0.2,2c-0.5-0.6-0.7-1.2-0.8-1.8
				C170,223.5,170,222.9,170.3,222.2z"/>
		</g>
		<g>
			<path class="st13" d="M165.2,220.6c0.2,0.6,0.1,1-0.1,1.4c-0.2,0.4-0.5,0.7-1,1c-0.2-0.6-0.1-1,0.1-1.4
				C164.4,221.1,164.7,220.8,165.2,220.6z"/>
		</g>
		<g>
			<path class="st13" d="M164.3,226.9c0.5,0.3,0.7,0.7,0.8,1.1c0.1,0.4,0.1,0.9-0.1,1.4c-0.5-0.3-0.7-0.7-0.8-1.1
				C164.1,227.9,164,227.5,164.3,226.9z"/>
		</g>
		<g>
			<path class="st13" d="M159.2,222c-0.2,0.9-0.6,1.5-1.1,2.1c-0.5,0.6-1.1,1.2-1.8,1.5c0.2-0.9,0.6-1.5,1.1-2.1
				C157.8,222.9,158.4,222.4,159.2,222z"/>
		</g>
		<g>
			<path class="st13" d="M163.6,235.1c0.6,0.2,1,0.7,1.3,1.1c0.3,0.5,0.5,1,0.5,1.7c-0.6-0.2-1-0.7-1.3-1.1
				C163.8,236.3,163.5,235.8,163.6,235.1z"/>
		</g>
		<g>
			<path class="st13" d="M159.7,230.2c0.2,0.7,0,1.3-0.4,1.8c-0.3,0.5-0.8,1-1.5,1.1c0.1-0.7,0.3-1.2,0.6-1.6
				C158.8,231,159.2,230.6,159.7,230.2z"/>
		</g>
		<g>
			<path class="st13" d="M150.8,223.1c0.6,0.2,1,0.6,1.2,1.1c0.2,0.5,0.4,1,0.3,1.6c-0.6-0.3-0.9-0.7-1.1-1.1
				C150.9,224.2,150.8,223.8,150.8,223.1z"/>
		</g>
		<g>
			<path class="st13" d="M154.1,230.2c0.2,0.6,0,1.1-0.1,1.6c-0.2,0.5-0.5,0.9-1.1,1.2c-0.2-0.6-0.1-1.1,0.1-1.6
				C153.2,230.9,153.5,230.5,154.1,230.2z"/>
		</g>
		<g>
			<path class="st13" d="M146.6,226.6c0.7,0.1,1.2,0.5,1.5,1.1c0.3,0.5,0.5,1.2,0.3,1.9c-0.5-0.4-0.8-0.9-1.1-1.3
				C147,227.7,146.8,227.2,146.6,226.6z"/>
		</g>
		<g>
			<path class="st13" d="M140.8,226.2c0.6,0,1,0.3,1.3,0.7c0.3,0.4,0.4,0.9,0.2,1.5c-0.5-0.3-0.8-0.6-1-0.9
				C141,227.1,140.8,226.8,140.8,226.2z"/>
		</g>
		<g>
			<path class="st13" d="M134.6,226c0.1,0.7,0,1.3-0.1,1.9c-0.1,0.6-0.3,1.1-0.7,1.8c-0.4-0.6-0.4-1.3-0.3-2
				C133.7,227.1,134,226.4,134.6,226z"/>
		</g>
		<g>
			<path class="st13" d="M137.9,233.3c0.1-0.6,0.3-1,0.6-1.4c0.3-0.3,0.7-0.6,1.4-0.6c-0.1,0.6-0.3,1-0.6,1.4
				C138.9,233,138.5,233.3,137.9,233.3z"/>
		</g>
		<g>
			<path class="st13" d="M144.2,235.1c0.7,0.1,1.1,0.5,1.5,0.8c0.4,0.4,0.7,0.9,0.7,1.5c-0.7-0.1-1.1-0.5-1.5-0.8
				C144.6,236.3,144.3,235.8,144.2,235.1z"/>
		</g>
		<g>
			<path class="st13" d="M151,240.1c0-0.7,0.3-1.3,0.6-1.8c0.3-0.5,0.7-1,1.3-1.4c0.1,0.7-0.1,1.4-0.4,1.9
				C152.1,239.3,151.7,239.8,151,240.1z"/>
		</g>
		<g>
			<path class="st13" d="M158.1,237.7c0.7,0.4,1,0.9,1.4,1.4c0.3,0.6,0.5,1.1,0.5,1.9c-0.7-0.4-1-0.9-1.4-1.4
				C158.3,239,158,238.4,158.1,237.7z"/>
		</g>
		<g>
			<path class="st13" d="M162.8,245.3c0-0.8,0.2-1.4,0.4-2c0.3-0.6,0.5-1.2,1.1-1.7c0.2,0.7,0.1,1.4-0.2,2.1
				C163.9,244.4,163.5,245,162.8,245.3z"/>
		</g>
		<g>
			<path class="st13" d="M160.6,248.6c0.6,0.2,1,0.6,1.3,1c0.3,0.4,0.5,0.9,0.5,1.6c-0.6-0.2-1-0.6-1.3-1
				C160.9,249.8,160.6,249.3,160.6,248.6z"/>
		</g>
		<g>
			<path class="st13" d="M155.9,245c0.2,0.6,0.1,1.1-0.1,1.6c-0.2,0.5-0.5,0.9-1,1.3c-0.2-0.6-0.1-1.1,0.1-1.6
				C155.1,245.8,155.3,245.3,155.9,245z"/>
		</g>
		<g>
			<path class="st13" d="M147.9,242.6c0.6,0.2,0.9,0.6,1.2,1c0.2,0.4,0.4,0.9,0.3,1.5c-0.6-0.2-0.9-0.6-1.2-1
				C148,243.7,147.8,243.2,147.9,242.6z"/>
		</g>
		<g>
			<path class="st13" d="M142,241.2c-0.1,0.7-0.3,1.1-0.5,1.5c-0.3,0.4-0.6,0.8-1.1,1.2c-0.2-0.6,0-1.2,0.2-1.7
				C141,241.7,141.4,241.3,142,241.2z"/>
		</g>
		<g>
			<path class="st13" d="M135.7,236.4c0.5,0.3,0.7,0.6,0.8,1c0.1,0.4,0.1,0.8-0.2,1.2c-0.5-0.3-0.7-0.6-0.8-1
				C135.4,237.3,135.4,236.9,135.7,236.4z"/>
		</g>
		<g>
			<path class="st13" d="M136.1,246.3c0.2,0.6,0.2,1.2,0,1.7c-0.2,0.5-0.4,1-0.9,1.4c-0.2-0.6-0.2-1.2,0-1.7
				C135.3,247.2,135.5,246.7,136.1,246.3z"/>
		</g>
		<g>
			<path class="st13" d="M140.6,249c0.6,0.2,0.9,0.5,1.2,0.8c0.2,0.4,0.4,0.8,0.4,1.4c-0.6-0.1-0.9-0.5-1.2-0.8
				C140.7,250,140.5,249.6,140.6,249z"/>
		</g>
		<g>
			<path class="st13" d="M145.9,252.6c0-0.7,0.3-1.2,0.5-1.7c0.3-0.5,0.6-1,1.2-1.4c0.2,0.7,0,1.3-0.3,1.8
				C147,251.9,146.5,252.4,145.9,252.6z"/>
		</g>
		<g>
			<path class="st13" d="M152.1,253.2c0.7,0.1,1.1,0.3,1.6,0.5c0.4,0.3,0.8,0.6,1.2,1.1c-0.6,0.2-1.2,0-1.7-0.3
				C152.6,254.2,152.2,253.8,152.1,253.2z"/>
		</g>
		<g>
			<path class="st13" d="M158.3,257.7c0-0.6,0.2-1.1,0.4-1.6c0.2-0.4,0.5-0.8,1.1-1.2c0.2,0.6,0,1.2-0.2,1.6
				C159.3,257.1,158.9,257.5,158.3,257.7z"/>
		</g>
		<g>
			<path class="st13" d="M161.4,260.7c0.6,0.1,1,0.3,1.3,0.7c0.3,0.3,0.5,0.7,0.5,1.3c-0.6-0.1-1-0.3-1.3-0.7
				C161.6,261.7,161.4,261.3,161.4,260.7z"/>
		</g>
		<g>
			<path class="st13" d="M158.5,265c0.1,0.6,0,1-0.2,1.4c-0.2,0.4-0.5,0.7-1.1,0.9c-0.1-0.6,0-1,0.2-1.4
				C157.6,265.6,157.9,265.2,158.5,265z"/>
		</g>
		<g>
			<path class="st13" d="M153.2,260.3c0.3,0.4,0.4,0.7,0.3,1c-0.1,0.3-0.2,0.6-0.7,0.8c-0.3-0.4-0.4-0.7-0.3-1
				C152.6,260.8,152.7,260.5,153.2,260.3z"/>
		</g>
		<g>
			<path class="st13" d="M147.7,256.7c0.6,0.3,1,0.7,1.3,1.2c0.3,0.5,0.5,1,0.4,1.7c-0.6-0.3-1-0.7-1.3-1.2
				C147.8,257.9,147.6,257.3,147.7,256.7z"/>
		</g>
		<g>
			<path class="st13" d="M142.9,259.6c-0.1-0.7,0.1-1.2,0.3-1.7c0.3-0.5,0.6-0.9,1.2-1.2c0.1,0.7-0.1,1.2-0.3,1.7
				C143.9,258.8,143.5,259.3,142.9,259.6z"/>
		</g>
		<g>
			<path class="st13" d="M137.9,255.7c0.6,0.3,0.9,0.7,1.2,1.2c0.2,0.5,0.3,1.1,0.1,1.7c-0.5-0.4-0.8-0.8-1-1.3
				C137.9,256.9,137.8,256.4,137.9,255.7z"/>
		</g>
		<g>
			<path class="st13" d="M131.1,257.6c0-0.7,0.2-1.2,0.5-1.6c0.3-0.5,0.6-0.9,1.2-1.3c0.2,0.7,0,1.2-0.3,1.8
				C132.2,256.9,131.8,257.3,131.1,257.6z"/>
		</g>
		<g>
			<path class="st13" d="M130,263.6c0.6,0.1,1,0.4,1.3,0.8c0.3,0.4,0.5,0.8,0.5,1.4c-0.6-0.1-1-0.4-1.3-0.8
				C130.2,264.6,130,264.2,130,263.6z"/>
		</g>
		<g>
			<path class="st13" d="M138.2,262.7c0.3,0.6,0.4,1,0.5,1.5c0,0.5,0.1,1-0.2,1.6c-0.5-0.4-0.8-0.9-0.8-1.5
				C137.7,263.7,137.8,263.2,138.2,262.7z"/>
		</g>
		<g>
			<path class="st13" d="M134.4,259.9c0.5,0.3,0.7,0.7,0.8,1c0.1,0.4,0.1,0.8-0.1,1.3c-0.5-0.3-0.7-0.7-0.8-1
				C134.2,260.9,134.2,260.4,134.4,259.9z"/>
		</g>
		<g>
			<path class="st13" d="M140.9,269.2c0.2-0.7,0.6-1.2,1-1.6c0.4-0.5,0.8-0.9,1.4-1.3c0.1,0.7-0.2,1.4-0.7,1.9
				C142.2,268.7,141.7,269.1,140.9,269.2z"/>
		</g>
		<g>
			<path class="st13" d="M146.4,263.4c0.5,0,0.8,0.2,1,0.5c0.2,0.3,0.4,0.6,0.3,1.1c-0.5,0-0.8-0.2-1-0.5
				C146.5,264.2,146.3,263.9,146.4,263.4z"/>
		</g>
		<g>
			<path class="st13" d="M150.8,269.8c0-0.6,0.2-1,0.4-1.3c0.2-0.3,0.5-0.6,1.1-0.9c0.2,0.6,0,1-0.2,1.4
				C151.8,269.4,151.4,269.7,150.8,269.8z"/>
		</g>
		<g>
			<path class="st13" d="M157.5,271.2c0.2-0.5,0.4-0.7,0.7-1c0.3-0.2,0.6-0.4,1.1-0.5c0.1,0.6-0.1,1-0.5,1.3
				C158.5,271.3,158.1,271.5,157.5,271.2z"/>
		</g>
		<g>
			<path class="st13" d="M134,275.1c0.8,0.3,1.3,0.8,1.8,1.4c0.5,0.6,0.9,1.2,1.1,2.1c-0.8-0.3-1.3-0.8-1.8-1.4
				C134.6,276.5,134.2,275.9,134,275.1z"/>
		</g>
		<g>
			<path class="st13" d="M141.9,273.8c0.7,0,1.2,0.4,1.5,0.8c0.3,0.5,0.6,1,0.5,1.7c-0.6-0.3-0.9-0.7-1.2-1.1
				C142.3,274.9,142,274.4,141.9,273.8z"/>
		</g>
		<g>
			<path class="st13" d="M148.6,280.4c-0.3-0.8-0.2-1.6,0-2.3c0.2-0.7,0.6-1.4,1.3-1.9c0,0.8-0.2,1.5-0.4,2.2
				C149.3,279,149.1,279.7,148.6,280.4z"/>
		</g>
		<g>
			<path class="st13" d="M153,273.1c0.6,0.1,0.9,0.4,1.1,0.7c0.2,0.3,0.4,0.7,0.3,1.3c-0.6-0.1-0.9-0.4-1.1-0.7
				C153.1,274,152.9,273.6,153,273.1z"/>
		</g>
		<g>
			<path class="st13" d="M157.2,278.9c0.3-0.5,0.6-0.8,0.9-1c0.3-0.2,0.7-0.4,1.3-0.5c0,0.6-0.3,1-0.7,1.3
				C158.3,279,157.8,279.2,157.2,278.9z"/>
		</g>
		<g>
			<path class="st13" d="M161.4,272.9c0.2-0.4,0.5-0.5,0.8-0.6c0.3,0,0.6,0,0.9,0.4c-0.2,0.4-0.5,0.5-0.8,0.6
				C162,273.3,161.7,273.2,161.4,272.9z"/>
		</g>
		<g>
			<path class="st13" d="M168.3,270.7c0.6,0,0.9,0.3,1.3,0.6c0.3,0.3,0.5,0.7,0.5,1.3c-0.6,0-0.9-0.3-1.3-0.6
				C168.6,271.7,168.3,271.3,168.3,270.7z"/>
		</g>
		<g>
			<path class="st13" d="M173.2,267.1c0.5,0.1,0.8,0.4,1,0.7c0.2,0.3,0.3,0.7,0.1,1.2c-0.5-0.1-0.8-0.4-1-0.7
				C173.2,267.9,173.1,267.6,173.2,267.1z"/>
		</g>
		<g>
			<path class="st13" d="M166.4,249.3c0.1-0.8,0.4-1.4,0.8-2c0.4-0.6,0.9-1.1,1.6-1.4c-0.1,0.8-0.4,1.4-0.8,2
				C167.5,248.4,167.1,248.9,166.4,249.3z"/>
		</g>
		<g>
			<path class="st13" d="M177.4,256.5c0.5,0.1,0.7,0.3,0.9,0.6c0.2,0.3,0.3,0.5,0.3,1.1c-0.5,0.1-0.9-0.2-1.1-0.5
				C177.4,257.4,177.2,257,177.4,256.5z"/>
		</g>
		<g>
			<path class="st13" d="M181.2,265.8c0.4,0.7,0.5,1.4,0.5,2.1c0,0.7,0,1.4-0.3,2.1c-0.5-0.6-0.6-1.4-0.7-2.1
				C180.7,267.2,180.8,266.5,181.2,265.8z"/>
		</g>
		<g>
			<path class="st13" d="M176,273.8c0.1-0.6,0.4-0.9,0.7-1.2c0.3-0.3,0.7-0.5,1.3-0.4c-0.1,0.6-0.4,0.9-0.7,1.2
				C176.9,273.6,176.5,273.8,176,273.8z"/>
		</g>
		<g>
			<path class="st13" d="M172.3,277.4c0.6,0.2,0.9,0.4,1.2,0.7c0.3,0.3,0.6,0.6,0.8,1.1c-0.6,0.2-1.1-0.1-1.5-0.4
				C172.5,278.5,172.2,278,172.3,277.4z"/>
		</g>
		<g>
			<path class="st13" d="M183.6,275.6c0.6,0.2,0.9,0.5,1.2,0.9c0.3,0.4,0.5,0.9,0.4,1.5c-0.6-0.2-0.9-0.5-1.2-0.9
				C183.8,276.7,183.6,276.2,183.6,275.6z"/>
		</g>
		<g>
			<path class="st13" d="M187.6,272.2c0.2-0.5,0.4-0.8,0.7-1c0.3-0.2,0.6-0.4,1.2-0.4c0,0.6-0.2,0.9-0.5,1.2
				C188.6,272.1,188.2,272.3,187.6,272.2z"/>
		</g>
		<g>
			<path class="st13" d="M192.4,275.6c0.6,0,0.9,0.2,1.2,0.5c0.3,0.3,0.5,0.6,0.5,1.2c-0.6,0-0.9-0.2-1.2-0.5
				C192.6,276.5,192.4,276.2,192.4,275.6z"/>
		</g>
		<g>
			<path class="st13" d="M196.6,272.2c0.4-0.4,0.7-0.5,1-0.6c0.3-0.1,0.7-0.1,1.2,0.1c-0.1,0.5-0.5,0.8-0.9,0.9
				C197.4,272.6,196.9,272.6,196.6,272.2z"/>
		</g>
		<g>
			<path class="st13" d="M201,274.9c0.6,0.3,1,0.7,1.4,1.1c0.4,0.4,0.7,0.9,0.9,1.6c-0.7-0.1-1.2-0.5-1.6-0.9
				C201.3,276.1,201,275.6,201,274.9z"/>
		</g>
		<g>
			<path class="st13" d="M206.8,276.2c0.2-0.6,0.4-0.9,0.7-1.3c0.3-0.3,0.7-0.6,1.3-0.7c0,0.6-0.2,1.1-0.6,1.4
				C207.8,275.9,207.4,276.2,206.8,276.2z"/>
		</g>
		<g>
			<path class="st13" d="M213,273.6c0.6,0.3,0.9,0.8,1.2,1.3c0.2,0.5,0.4,1.1,0.3,1.8c-0.6-0.3-0.9-0.8-1.2-1.3
				C213,274.8,212.9,274.3,213,273.6z"/>
		</g>
		<g>
			<path class="st13" d="M219.7,274.7c-0.1-0.6,0.1-0.9,0.3-1.2c0.3-0.3,0.6-0.5,1.1-0.6c0.1,0.6-0.1,0.9-0.3,1.2
				C220.6,274.4,220.3,274.7,219.7,274.7z"/>
		</g>
		<g>
			<path class="st13" d="M225.4,273.1c0.5,0.3,0.8,0.7,0.9,1.1c0.1,0.4,0.2,0.9,0,1.4c-0.5-0.3-0.8-0.7-0.9-1.1
				C225.2,274.1,225.1,273.6,225.4,273.1z"/>
		</g>
		<path class="st6" d="M111.1,311.3H97.4c-4,0-7.2-3.2-7.2-7.2l0,0c0-4,3.2-7.2,7.2-7.2h13.7c4,0,7.2,3.2,7.2,7.2l0,0
			C118.3,308.1,115.1,311.3,111.1,311.3z"/>
		<rect x="101" y="311.3" width="6.6" height="24.9"/>
		<path class="st6" d="M260.8,311.3h-13.7c-4,0-7.2-3.2-7.2-7.2l0,0c0-4,3.2-7.2,7.2-7.2h13.7c4,0,7.2,3.2,7.2,7.2v0
			C268,308.1,264.8,311.3,260.8,311.3z"/>
		<rect x="250.6" y="311.3" width="6.6" height="24.9"/>
		<path class="st15" d="M39.9,244.8c0.2-1.4,0.5-2.9,1.3-4.1c1.1-1.6,2.9-2.6,4.8-3.3c1.9-0.7,3.9-1.1,5.8-0.6
			c1.5,0.4,2.8,1.4,3.9,2.6c4.2,4.6,4.9,11.3,5.1,17.6c0.1,2.5,0.1,5.2-1.5,7.1c-0.7,0.9-1.8,1.6-2.9,2c-4.2,1.8-10.7,0.9-13.5-3.1
			C39.5,258.4,39.2,250.3,39.9,244.8z"/>
		<path class="st16" d="M78,251.9c1.3-5.7,2.7-11.4,2.6-17.2c-0.1-5.8-1.8-11.8-5.7-16.1c-1.2-1.3-2.7-2.5-4.4-3
			c-3.2-1-6.6,0-9.7,1.4c-2.1,1-4.2,2.1-5.5,4c-0.8,1.2-1.2,2.6-1.6,3.9c-2.7,10.2-2.5,21.1,0.5,31.2c0.5,1.8,1.2,3.6,2.3,5.1
			c1.7,2.4,4.5,4,7.3,4.7c3,0.8,8.3,1.3,10.7-1.4c1.1-1.3,1.3-3.2,1.7-4.8C76.8,257.2,77.4,254.5,78,251.9z"/>
		<path class="st15" d="M79.9,237.1c-3,1.7-5.1,4.7-6,8c-1,3.3-0.9,6.8-0.4,10.2c0.4,2.4,1,4.7,2.2,6.8c1.2,2,3.2,3.8,5.5,4.3
			c3.6,0.9,7.3-1.2,9.5-4.2c2.1-3,3-6.7,3.5-10.3c0.4-2.7,0.6-5.5,0.1-8.1C92.8,237.3,85.8,233.8,79.9,237.1z"/>
		<path class="st17" d="M54,261.2h-3.3c-1.9,8.1-1.4,16.7,1.2,24.5c1.4,0.4,3,0.7,4.7,1C53.7,278.6,52.8,269.7,54,261.2z"/>
		<path class="st18" d="M58.5,261.2H54c-1.2,8.5-0.3,17.4,2.6,25.5c1,0.1,2,0.3,3.1,0.4C57.6,278.6,57.2,269.8,58.5,261.2z"/>
		<path class="st17" d="M61.3,261.2h-2.8c-1.3,8.6-0.9,17.4,1.2,25.9c1.1,0.1,2.2,0.2,3.3,0.2C61.3,278.7,60.8,269.9,61.3,261.2z"/>
		<path class="st18" d="M50.6,261.2h-2.9c-1.8,7.7-1.4,16,1,23.5c1,0.4,2,0.7,3.1,1C49.2,277.9,48.8,269.3,50.6,261.2z"/>
		<path class="st18" d="M44.6,261.2h-3.1c-1.5,6.5-1.2,13.3,0.7,19.7c1,0.9,2.2,1.7,3.6,2.5C43,276.4,42.5,268.5,44.6,261.2z"/>
		<path class="st17" d="M41.4,261.2h-2.6c0,0-5.6,12,3.2,19.7C40.2,274.5,40,267.7,41.4,261.2z"/>
		<path class="st17" d="M47.7,261.2h-3.2c-2,7.3-1.6,15.2,1.2,22.2c0.9,0.5,1.9,0.9,3,1.3C46.3,277.2,45.9,268.9,47.7,261.2z"/>
		<path class="st17" d="M68.4,261.2H64c-0.5,8.7,0.1,17.5,1.5,26.2c0.4,0,0.8,0,1.2,0c0.4,0,0.8,0,1.2,0
			C68.6,278.7,68.7,269.9,68.4,261.2z"/>
		<path class="st18" d="M64,261.2h-2.7c-0.6,8.7,0,17.5,1.6,26.1c0.8,0,1.7,0.1,2.6,0.1C64.1,278.7,63.6,269.9,64,261.2z"/>
		<path class="st17" d="M89.1,261.2H86c1.8,7.7,1.4,15.9-1,23.5c1.1-0.4,2.1-0.9,3-1.4C90.7,276.3,91.1,268.4,89.1,261.2z"/>
		<path class="st18" d="M92.2,261.2h-3.1c2,7.2,1.6,15.1-1.1,22.1c1.5-0.8,2.7-1.7,3.7-2.6C93.5,274.3,93.7,267.6,92.2,261.2z"/>
		<path class="st18" d="M86,261.2h-2.9c1.9,8.1,1.4,16.6-1.2,24.5c1.1-0.3,2.2-0.6,3.1-1C87.4,277.1,87.8,268.9,86,261.2z"/>
		<path class="st17" d="M94.2,261.2h-2c1.4,6.4,1.2,13.1-0.6,19.4C99.8,272.9,94.2,261.2,94.2,261.2z"/>
		<path class="st18" d="M79.7,261.2h-4.5c1.3,8.6,0.9,17.4-1.2,25.8c1.1-0.1,2.1-0.2,3.1-0.4C80,278.5,80.9,269.7,79.7,261.2z"/>
		<path class="st17" d="M75.2,261.2h-2.8c0.6,8.7,0,17.5-1.6,26.1c1.2-0.1,2.3-0.1,3.3-0.2C76.1,278.6,76.5,269.8,75.2,261.2z"/>
		<path class="st17" d="M83.1,261.2h-3.3c1.2,8.5,0.3,17.3-2.6,25.5c1.7-0.3,3.3-0.6,4.7-1C84.5,277.8,84.9,269.3,83.1,261.2z"/>
		<path class="st18" d="M72.4,261.2h-4c0.4,8.7,0.2,17.5-0.4,26.2c0.9,0,1.9,0,2.8-0.1C72.4,278.7,72.9,269.9,72.4,261.2z"/>
		<path class="st19" d="M68.7,215.3c0.1-1,0.3-2.1,0.6-3.1"/>
		<path class="st19" d="M71.7,216.4c0.2-1.1,0.6-2.1,1.2-3.1"/>
		<path class="st19" d="M74.1,217.6c0.5-0.7,1-1.5,1.5-2.2"/>
		<path class="st19" d="M76.1,219.7c0.6-0.4,1.2-0.9,1.8-1.3"/>
		<path class="st19" d="M78,222.2c0.8-0.2,1.5-0.6,2.1-1.1"/>
		<path class="st19" d="M79.4,225.2c0.6-0.2,1.3-0.4,1.9-0.6"/>
		<path class="st19" d="M80.2,228.2c0.7,0,1.3-0.1,2-0.1"/>
		<path class="st19" d="M80.6,231.3c0.6,0,1.3,0.1,1.9,0.2"/>
		<path class="st19" d="M81.3,234.1c0.6,0.1,1.1,0.2,1.7,0.2"/>
		<path class="st19" d="M65.5,215.4c-0.2-0.9-0.4-1.7-0.6-2.6"/>
		<path class="st19" d="M62.1,214.6c0.3,0.7,0.5,1.3,0.8,2"/>
		<path class="st19" d="M59.5,217.6c-0.5-0.7-1-1.5-1.5-2.2"/>
		<path class="st19" d="M57.5,219.7c-0.6-0.4-1.2-0.9-1.8-1.3"/>
		<path class="st19" d="M55.6,222.2c-0.8-0.2-1.5-0.6-2.1-1.1"/>
		<path class="st19" d="M54.1,225.2c-0.6-0.2-1.3-0.4-1.9-0.6"/>
		<path class="st19" d="M53.4,228.2c-0.7,0-1.3-0.1-2-0.1"/>
		<path class="st19" d="M53,231.3c-0.6,0-1.3,0.1-1.9,0.2"/>
		<path class="st19" d="M52.2,234.1c-0.6,0.1-1.1,0.2-1.7,0.2"/>
		<path class="st19" d="M49.8,238.4c0.8,0.1,1.5,0.2,2.3,0.3"/>
		<path class="st19" d="M50.1,240.8c0.7,0,1.4,0.1,2.1,0.1"/>
		<path class="st19" d="M50.3,244.1c0.6,0.1,1.3,0,1.9-0.1"/>
		<path class="st19" d="M50.9,247.9c0.7-0.1,1.3-0.2,2-0.2"/>
		<path class="st19" d="M51.6,251.1c0.6-0.1,1.3-0.2,1.9-0.2"/>
		<path class="st19" d="M52.5,254.9c0.6-0.2,1.3-0.3,1.9-0.5"/>
		<path class="st19" d="M53,258.3c0.7-0.2,1.4-0.4,2.1-0.6"/>
		<path class="st19" d="M45,237.8c-0.4-0.7-0.9-1.3-1.3-2"/>
		<path class="st19" d="M42.8,239.6c-0.5-0.6-1-1.2-1.4-1.9"/>
		<path class="st19" d="M40.7,242.1c-0.7-0.1-1.3-0.3-1.9-0.6"/>
		<path class="st19" d="M40.3,244.4c-0.8-0.1-1.6-0.1-2.5-0.2"/>
		<path class="st19" d="M40,247.2c-0.8,0-1.5,0-2.3-0.1"/>
		<path class="st19" d="M39.9,249.6c-0.7,0.2-1.5,0.4-2.2,0.5"/>
		<path class="st19" d="M39.9,252.7c-0.8,0.4-1.6,0.7-2.3,1.1"/>
		<path class="st19" d="M40.4,256.3c-0.6,0.7-1.4,1.3-2.2,1.7"/>
		<path class="st19" d="M41.2,259c-0.4,0.5-0.7,0.9-1.2,1.4"/>
		<path class="st19" d="M93.6,242.3c0.6-0.4,1.3-0.8,2.1-1"/>
		<path class="st19" d="M94.1,244.9c0.7-0.4,1.5-0.6,2.3-0.8"/>
		<path class="st19" d="M94,248.3c0.7-0.2,1.5-0.3,2.2-0.3"/>
		<path class="st19" d="M93.9,250.4c0.7-0.1,1.3,0,2,0.1"/>
		<path class="st19" d="M93.2,253.4c0.7-0.1,1.4,0.1,2,0.4"/>
		<path class="st19" d="M93,256.1c0.7,0.1,1.4,0.4,2.1,0.6"/>
		<path class="st19" d="M92.3,258.9c0.7,0.3,1.5,0.5,2.2,0.8"/>
		<path class="st20" d="M66.2,224.3c0.5-0.6,1-1.2,1.3-1.9"/>
		<path class="st20" d="M69.8,226.9c0.8-0.3,1.6-0.7,2.4-1"/>
		<path class="st20" d="M72.2,231.3c0.7,0.1,1.4,0.2,2.1,0.3"/>
		<path class="st20" d="M67,238.9c0.9,0.5,1.8,1,2.7,1.4"/>
		<path class="st20" d="M61.2,232.6c0.1-1,0.2-2.1,0.3-3.1"/>
		<path class="st20" d="M57.1,239.5c0.7,0.3,1.3,0.6,2,0.9"/>
		<path class="st20" d="M59,247.3c0.7-0.7,1.4-1.3,2.1-2"/>
		<path class="st20" d="M65.2,252.1c0.7-0.5,1.3-1.1,2-1.6"/>
		<path class="st20" d="M57.7,255.8c0.8,0.5,1.5,1,2.3,1.5"/>
		<path class="st20" d="M59.1,225.1c0.3-0.8,0.8-1.6,1.3-2.3"/>
		<path class="st20" d="M69.9,255.6c0.6,0.4,1.3,0.7,1.9,1"/>
		<path class="st20" d="M81.9,243.9c0.2-0.7,0.6-1.4,1-2"/>
		<path class="st20" d="M87.7,245.3c0.6-0.3,1.2-0.6,1.8-0.9"/>
		<path class="st20" d="M87.4,249.8c0.7,0.2,1.4,0.5,2,0.9"/>
		<path class="st20" d="M85.7,257.1c0.2-0.7,0.3-1.5,0.5-2.2"/>
		<path class="st20" d="M80,247.8c0.6,0.3,1.1,0.8,1.5,1.4"/>
		<path class="st20" d="M78.3,254.9c0.6,0.1,1.1,0.2,1.7,0.2"/>
		<path class="st20" d="M45.5,241.7c0.5,0,1,0.1,1.4,0.3"/>
		<path class="st20" d="M42.6,247.6c0.1-0.9,0.3-1.8,0.6-2.6"/>
		<path class="st20" d="M46.7,248.5c0.6,0.2,1.1,0.5,1.7,0.9"/>
		<path class="st20" d="M47.2,254.5c0.2-0.5,0.3-1.1,0.3-1.7"/>
		<path class="st20" d="M41.7,253.5c0.6,0.4,1.1,0.9,1.7,1.3"/>
		<path class="st20" d="M46.2,258.7c0.5-0.4,1-0.8,1.4-1.2"/>
		<rect x="15.1" y="286.3" width="325.4" height="10.7"/>
		<g>
			<rect x="39.9" y="301.1" width="5.8" height="35.2"/>
			<rect x="33.8" y="297" width="18" height="2.5"/>
			<rect x="36.8" y="299.5" width="12" height="1.6"/>
		</g>
		<g>
			<rect x="309.9" y="301.1" width="5.8" height="35.2"/>
			<rect x="303.8" y="297" width="18" height="2.5"/>
			<rect x="306.8" y="299.5" width="12" height="1.6"/>
		</g>
		<polygon class="st16" points="289.2,274.5 284.4,274.5 278.9,286.4 283.8,286.4 		"/>
		<polygon class="st16" points="305.9,274.5 310.7,274.5 316.1,286.4 311.3,286.4 		"/>
		
			<ellipse transform="matrix(0.2298 -0.9732 0.9732 0.2298 -18.5548 484.9375)" class="st15" cx="297.1" cy="254.2" rx="26.5" ry="26.5"/>
		<path class="st1" d="M301,266.7c4.6-1.8,8.7-4.9,11.4-9c3.1-4.8,4.1-10.6,3.8-16.4c-4.1-6.1-11.2-10.2-19.1-10.2
			c-12.7,0-23.1,10.3-23.1,23.1c0,4.2,1.1,8.2,3.1,11.6C284.6,269.3,293.4,269.7,301,266.7z"/>
		<path class="st1" d="M316.2,241.3c0.3,5.8-0.7,11.6-3.8,16.4c-2.7,4.1-6.8,7.2-11.4,9c-7.6,3.1-16.5,2.6-23.9-0.9
			c4,6.9,11.4,11.5,19.9,11.5c12.7,0,23.1-10.3,23.1-23.1C320.2,249.4,318.7,245,316.2,241.3z"/>
		<polygon class="st21" points="296.8,254.5 286,244.8 297.3,253.9 		"/>
		<polygon class="st21" points="297.5,253.9 302.5,272.3 296.7,254.5 		"/>
		<circle class="st21" cx="297.1" cy="254.2" r="1.7"/>
		<line class="st22" x1="297.1" y1="231.1" x2="297.1" y2="236"/>
		<line class="st22" x1="297.1" y1="272.3" x2="297.1" y2="277.2"/>
		<line class="st22" x1="320.2" y1="254.2" x2="315.3" y2="254.2"/>
		<line class="st22" x1="278.9" y1="254.2" x2="274" y2="254.2"/>
		<line class="st22" x1="277.6" y1="241.8" x2="281.8" y2="244.5"/>
		<line class="st22" x1="312.4" y1="263.9" x2="316.6" y2="266.6"/>
		<line class="st22" x1="309.5" y1="234.7" x2="306.8" y2="238.9"/>
		<line class="st22" x1="287.4" y1="269.5" x2="284.7" y2="273.7"/>
		<line class="st22" x1="316.6" y1="241.8" x2="312.4" y2="244.5"/>
		<line class="st22" x1="281.8" y1="263.9" x2="277.6" y2="266.6"/>
		<line class="st22" x1="284.7" y1="234.7" x2="287.4" y2="238.9"/>
		<line class="st22" x1="306.8" y1="269.5" x2="309.5" y2="273.7"/>
		<path class="st16" d="M238.8,281.2h-122c-2.9,0-5.2,2.3-5.2,5.2l0,0H244l0,0C244,283.5,241.7,281.2,238.8,281.2z"/>
		<path d="M226.6,212.2H129c-4.1,0-7.5,3.4-7.5,7.5v61.4h112.7v-61.4C234.1,215.6,230.8,212.2,226.6,212.2z"/>
		
			<ellipse transform="matrix(0.1595 -0.9872 0.9872 0.1595 -95.4999 384.071)" class="st13" cx="177.8" cy="248.1" rx="8.6" ry="8.6"/>
		<polygon class="st0" points="100.2,136.8 93.9,134.2 92,128.6 90,134.5 83.8,136.8 89.4,139 92,145 93.9,139.5 		"/>
		<g class="st0">
			<path d="M95.5,114.1c1.6,0.6,3.2,0.9,4.8,1.1c1.6,0.2,3.2,0.3,4.8,0.3c1.6,0,3.2-0.1,4.8-0.3c1.6-0.2,3.2-0.5,4.8-1.1
				c-1.6-0.6-3.2-0.9-4.8-1.1c-1.6-0.2-3.2-0.3-4.8-0.3c-1.6,0-3.2,0.1-4.8,0.3C98.8,113.2,97.2,113.5,95.5,114.1z"/>
			<path d="M105.2,104.4c-0.6,1.6-0.9,3.2-1.1,4.8c-0.2,1.6-0.3,3.2-0.3,4.8c0,1.6,0.1,3.2,0.3,4.8c0.2,1.6,0.5,3.2,1.1,4.8
				c0.6-1.6,0.9-3.2,1.1-4.8c0.2-1.6,0.3-3.2,0.3-4.8c0-1.6-0.1-3.2-0.3-4.8C106.1,107.6,105.8,106,105.2,104.4z"/>
			<path d="M98.4,120.9c1.5-0.7,2.9-1.7,4.2-2.7c1.3-1,2.5-2.1,3.6-3.2c1.1-1.1,2.2-2.3,3.2-3.6c1-1.3,1.9-2.6,2.7-4.2
				c-1.5,0.7-2.9,1.7-4.2,2.7c-1.3,1-2.5,2.1-3.6,3.2c-1.1,1.1-2.2,2.3-3.2,3.6C100,118,99.1,119.4,98.4,120.9z"/>
			<path d="M98.4,107.2c0.7,1.5,1.7,2.9,2.7,4.2c1,1.3,2.1,2.5,3.2,3.6c1.1,1.1,2.3,2.2,3.6,3.2c1.3,1,2.6,1.9,4.2,2.7
				c-0.7-1.5-1.7-2.9-2.7-4.2c-1-1.3-2.1-2.5-3.2-3.6c-1.1-1.1-2.3-2.2-3.6-3.2C101.3,108.9,99.9,108,98.4,107.2z"/>
		</g>
		<g class="st0">
			<path d="M83.6,97.1c0.7,0.3,1.4,0.4,2.2,0.5c0.7,0.1,1.4,0.1,2.2,0.1c0.7,0,1.4,0,2.2-0.1c0.7-0.1,1.4-0.2,2.2-0.5
				c-0.7-0.3-1.4-0.4-2.2-0.5c-0.7-0.1-1.4-0.1-2.2-0.1c-0.7,0-1.4,0-2.2,0.1C85,96.7,84.3,96.9,83.6,97.1z"/>
			<path d="M87.9,92.8c-0.3,0.7-0.4,1.4-0.5,2.2c-0.1,0.7-0.1,1.4-0.1,2.2c0,0.7,0,1.4,0.1,2.2c0.1,0.7,0.2,1.4,0.5,2.2
				c0.3-0.7,0.4-1.4,0.5-2.2c0.1-0.7,0.1-1.4,0.1-2.2c0-0.7,0-1.4-0.1-2.2C88.3,94.2,88.2,93.5,87.9,92.8z"/>
			<path d="M84.8,100.2c0.7-0.3,1.3-0.7,1.9-1.2c0.6-0.4,1.1-0.9,1.6-1.4c0.5-0.5,1-1.1,1.4-1.6c0.4-0.6,0.9-1.2,1.2-1.9
				c-0.7,0.3-1.3,0.7-1.9,1.2c-0.6,0.4-1.1,0.9-1.6,1.4c-0.5,0.5-1,1.1-1.4,1.6C85.6,98.9,85.2,99.5,84.8,100.2z"/>
			<path d="M84.8,94.1c0.3,0.7,0.7,1.3,1.2,1.9c0.4,0.6,0.9,1.1,1.4,1.6c0.5,0.5,1.1,1,1.6,1.4c0.6,0.4,1.2,0.9,1.9,1.2
				c-0.3-0.7-0.7-1.3-1.2-1.9c-0.4-0.6-0.9-1.1-1.4-1.6c-0.5-0.5-1.1-1-1.6-1.4C86.1,94.8,85.5,94.4,84.8,94.1z"/>
		</g>
		<polygon class="st0" points="262.1,152 268.4,149.5 270.3,143.8 272.3,149.7 278.5,152 272.9,154.3 270.3,160.2 268.4,154.7 		"/>
		<g class="st0">
			<path d="M260.3,135.2c-1.6,0.6-3.2,0.9-4.8,1.1c-1.6,0.2-3.2,0.3-4.8,0.3c-1.6,0-3.2-0.1-4.8-0.3c-1.6-0.2-3.2-0.5-4.8-1.1
				c1.6-0.6,3.2-0.9,4.8-1.1c1.6-0.2,3.2-0.3,4.8-0.3c1.6,0,3.2,0.1,4.8,0.3C257,134.3,258.6,134.6,260.3,135.2z"/>
			<path d="M250.6,125.5c0.6,1.6,0.9,3.2,1.1,4.8c0.2,1.6,0.3,3.2,0.3,4.8c0,1.6-0.1,3.2-0.3,4.8c-0.2,1.6-0.5,3.2-1.1,4.8
				c-0.6-1.6-0.9-3.2-1.1-4.8c-0.2-1.6-0.3-3.2-0.3-4.8c0-1.6,0.1-3.2,0.3-4.8C249.7,128.7,250,127.1,250.6,125.5z"/>
			<path d="M257.4,142c-1.5-0.7-2.9-1.7-4.2-2.7c-1.3-1-2.5-2.1-3.6-3.2c-1.1-1.1-2.2-2.3-3.2-3.6c-1-1.3-1.9-2.6-2.7-4.2
				c1.5,0.7,2.9,1.7,4.2,2.7c1.3,1,2.5,2.1,3.6,3.2c1.1,1.1,2.2,2.3,3.2,3.6C255.8,139.1,256.7,140.5,257.4,142z"/>
			<path d="M257.4,128.3c-0.7,1.5-1.7,2.9-2.7,4.2c-1,1.3-2.1,2.5-3.2,3.6c-1.1,1.1-2.3,2.2-3.6,3.2c-1.3,1-2.6,1.9-4.2,2.7
				c0.7-1.5,1.7-2.9,2.7-4.2c1-1.3,2.1-2.5,3.2-3.6c1.1-1.1,2.3-2.2,3.6-3.2C254.5,130,255.9,129.1,257.4,128.3z"/>
		</g>
		<g class="st0">
			<path d="M275.5,124.8c-0.7,0.3-1.4,0.4-2.2,0.5c-0.7,0.1-1.4,0.1-2.2,0.1c-0.7,0-1.4,0-2.2-0.1c-0.7-0.1-1.4-0.2-2.2-0.5
				c0.7-0.3,1.4-0.4,2.2-0.5c0.7-0.1,1.4-0.1,2.2-0.1c0.7,0,1.4,0,2.2,0.1C274,124.4,274.8,124.5,275.5,124.8z"/>
			<path d="M271.1,120.4c0.3,0.7,0.4,1.4,0.5,2.2c0.1,0.7,0.1,1.4,0.1,2.2c0,0.7,0,1.4-0.1,2.2c-0.1,0.7-0.2,1.4-0.5,2.2
				c-0.3-0.7-0.4-1.4-0.5-2.2c-0.1-0.7-0.1-1.4-0.1-2.2c0-0.7,0-1.4,0.1-2.2C270.7,121.9,270.9,121.1,271.1,120.4z"/>
			<path d="M274.2,127.8c-0.7-0.3-1.3-0.7-1.9-1.2c-0.6-0.4-1.1-0.9-1.6-1.4c-0.5-0.5-1-1.1-1.4-1.6c-0.4-0.6-0.9-1.2-1.2-1.9
				c0.7,0.3,1.3,0.7,1.9,1.2c0.6,0.4,1.1,0.9,1.6,1.4c0.5,0.5,1,1.1,1.4,1.6C273.5,126.5,273.9,127.1,274.2,127.8z"/>
			<path d="M274.2,121.7c-0.3,0.7-0.7,1.3-1.2,1.9c-0.4,0.6-0.9,1.1-1.4,1.6c-0.5,0.5-1.1,1-1.6,1.4c-0.6,0.4-1.2,0.9-1.9,1.2
				c0.3-0.7,0.7-1.3,1.2-1.9c0.4-0.6,0.9-1.1,1.4-1.6c0.5-0.5,1.1-1,1.6-1.4C272.9,122.4,273.5,122,274.2,121.7z"/>
		</g>
		<g>
			<path class="st23" d="M287.3,216.2c-0.1,1.5,1,2.7,2.5,2.7h1.7l4.8,5.3l5.7-5.3h8.1c1.5,0,2.9-1.2,3-2.7l1.8-20.3
				c0.1-1.5-1-2.7-2.5-2.7h-20.3c-1.5,0-2.9,1.2-3,2.7L287.3,216.2z"/>
		</g>
		
			<ellipse transform="matrix(0.7224 -0.6915 0.6915 0.7224 -62.1945 263.6237)" class="st24" cx="297.2" cy="209.3" rx="6.7" ry="6.1"/>
		
			<ellipse transform="matrix(0.7224 -0.6915 0.6915 0.7224 -60.4154 268.0552)" class="st24" cx="303.6" cy="209.3" rx="6.7" ry="6.1"/>
		<path class="st24" d="M307.4,202.9c-0.3,3.5-3.4,6.4-7,6.4s-6.2-2.9-5.8-6.4c0.3-3.5,3.4-6.4,7-6.4S307.7,199.3,307.4,202.9z"/>
		
			<ellipse transform="matrix(0.7224 -0.6915 0.6915 0.7224 -62.1945 263.6237)" class="st25" cx="297.2" cy="209.3" rx="6.7" ry="6.1"/>
		
			<ellipse transform="matrix(0.7224 -0.6915 0.6915 0.7224 -60.4154 268.0552)" class="st26" cx="303.6" cy="209.3" rx="6.7" ry="6.1"/>
		<path class="st27" d="M307.4,202.9c-0.3,3.5-3.4,6.4-7,6.4s-6.2-2.9-5.8-6.4c0.3-3.5,3.4-6.4,7-6.4S307.7,199.3,307.4,202.9z"/>
		<g>
			<path class="st28" d="M317.8,207c-0.1,1.1,0.7,2.1,1.9,2.1h2l4,4.4l4.8-4.4h7.4c1.1,0,2.1-0.9,2.2-2.1l1.6-18.2
				c0.1-1.1-0.7-2.1-1.9-2.1h-18.2c-1.1,0-2.1,0.9-2.2,2.1L317.8,207z"/>
		</g>
		<g>
			<g>
				<g>
					<path class="st16" d="M322.3,197.9c0,0.2,0.1,0.4,0.3,0.4h2.4c0,2.2,1.6,4,3.8,4.2l-0.2,2.4c0,0.2,0.1,0.4,0.3,0.4
						c0.2,0,0.4-0.2,0.4-0.4l0.2-2.4c2.2-0.2,4.2-2,4.5-4.2h2.4c0.2,0,0.4-0.2,0.4-0.4c0-0.2-0.1-0.4-0.3-0.4h-2.4
						c0-2.2-1.6-4-3.8-4.2l0.2-2.4c0-0.2-0.1-0.4-0.3-0.4c-0.2,0-0.4,0.2-0.4,0.4l-0.2,2.4c-2.2,0.2-4.2,2-4.5,4.2h-2.4
						C322.5,197.5,322.4,197.7,322.3,197.9z M329.7,194.1l-0.1,0.9c-1.3,0.2-2.5,1.2-2.8,2.5h-0.9
						C326.3,195.7,327.8,194.3,329.7,194.1z M330.3,195.8c0.9,0.2,1.5,0.9,1.6,1.8h-1.8L330.3,195.8z M331.8,198.3
						c-0.2,0.9-1,1.6-1.9,1.8l0.2-1.8H331.8z M329.1,200.1c-0.9-0.2-1.5-0.9-1.6-1.8h1.8L329.1,200.1z M327.6,197.5
						c0.2-0.9,1-1.6,1.9-1.8l-0.2,1.8H327.6z M333.5,197.5h-0.9c-0.1-1.3-1-2.4-2.3-2.5l0.1-0.9
						C332.2,194.3,333.5,195.7,333.5,197.5z M329.8,201.7l0.1-0.9c1.3-0.2,2.5-1.2,2.8-2.5h0.9C333.1,200.1,331.6,201.5,329.8,201.7
						z M325.9,198.3h0.9c0.1,1.3,1,2.4,2.3,2.5l-0.1,0.9C327.2,201.5,325.9,200.1,325.9,198.3z"/>
					<path class="st29" d="M322.3,197.9c0,0.2,0.1,0.4,0.3,0.4h2.4c0,2.2,1.6,4,3.8,4.2l-0.2,2.4c0,0.2,0.1,0.4,0.3,0.4
						c0.2,0,0.4-0.2,0.4-0.4l0.2-2.4c2.2-0.2,4.2-2,4.5-4.2h2.4c0.2,0,0.4-0.2,0.4-0.4c0-0.2-0.1-0.4-0.3-0.4h-2.4
						c0-2.2-1.6-4-3.8-4.2l0.2-2.4c0-0.2-0.1-0.4-0.3-0.4c-0.2,0-0.4,0.2-0.4,0.4l-0.2,2.4c-2.2,0.2-4.2,2-4.5,4.2h-2.4
						C322.5,197.5,322.4,197.7,322.3,197.9z M329.7,194.1l-0.1,0.9c-1.3,0.2-2.5,1.2-2.8,2.5h-0.9
						C326.3,195.7,327.8,194.3,329.7,194.1z M330.3,195.8c0.9,0.2,1.5,0.9,1.6,1.8h-1.8L330.3,195.8z M331.8,198.3
						c-0.2,0.9-1,1.6-1.9,1.8l0.2-1.8H331.8z M329.1,200.1c-0.9-0.2-1.5-0.9-1.6-1.8h1.8L329.1,200.1z M327.6,197.5
						c0.2-0.9,1-1.6,1.9-1.8l-0.2,1.8H327.6z M333.5,197.5h-0.9c-0.1-1.3-1-2.4-2.3-2.5l0.1-0.9
						C332.2,194.3,333.5,195.7,333.5,197.5z M329.8,201.7l0.1-0.9c1.3-0.2,2.5-1.2,2.8-2.5h0.9C333.1,200.1,331.6,201.5,329.8,201.7
						z M325.9,198.3h0.9c0.1,1.3,1,2.4,2.3,2.5l-0.1,0.9C327.2,201.5,325.9,200.1,325.9,198.3z"/>
					<g>
						<path class="st16" d="M339.1,192.9L339.1,192.9c0.2,0,0.5-0.2,0.5-0.4l0.3-3.9H336c-0.2,0-0.5,0.2-0.5,0.4l0,0
							c0,0.2,0.2,0.4,0.4,0.4h3l-0.3,3C338.6,192.7,338.8,192.9,339.1,192.9z"/>
					</g>
					<g>
						<path class="st16" d="M325.5,189L325.5,189c0-0.2-0.2-0.4-0.4-0.4h-3.9l-0.3,3.9c0,0.2,0.2,0.4,0.4,0.4l0,0
							c0.2,0,0.5-0.2,0.5-0.4l0.3-3h3C325.2,189.4,325.4,189.2,325.5,189z"/>
					</g>
					<g>
						<path class="st16" d="M320.3,203L320.3,203c-0.2,0-0.5,0.2-0.5,0.4l-0.3,3.9h3.9c0.2,0,0.5-0.2,0.5-0.4l0,0
							c0-0.2-0.2-0.4-0.4-0.4h-3l0.3-3C320.8,203.2,320.6,203,320.3,203z"/>
					</g>
					<g>
						<path class="st16" d="M334,206.8L334,206.8c0,0.2,0.2,0.4,0.4,0.4h3.9l0.3-3.9c0-0.2-0.2-0.4-0.4-0.4l0,0
							c-0.2,0-0.5,0.2-0.5,0.4l-0.3,3h-3C334.2,206.4,334,206.6,334,206.8z"/>
					</g>
					<g class="st4">
						<path class="st16" d="M339.1,192.9L339.1,192.9c0.2,0,0.5-0.2,0.5-0.4l0.3-3.9H336c-0.2,0-0.5,0.2-0.5,0.4l0,0
							c0,0.2,0.2,0.4,0.4,0.4h3l-0.3,3C338.6,192.7,338.8,192.9,339.1,192.9z"/>
					</g>
					<g class="st4">
						<path class="st16" d="M325.5,189L325.5,189c0-0.2-0.2-0.4-0.4-0.4h-3.9l-0.3,3.9c0,0.2,0.2,0.4,0.4,0.4l0,0
							c0.2,0,0.5-0.2,0.5-0.4l0.3-3h3C325.2,189.4,325.4,189.2,325.5,189z"/>
					</g>
					<g class="st4">
						<path class="st16" d="M320.3,203L320.3,203c-0.2,0-0.5,0.2-0.5,0.4l-0.3,3.9h3.9c0.2,0,0.5-0.2,0.5-0.4l0,0
							c0-0.2-0.2-0.4-0.4-0.4h-3l0.3-3C320.8,203.2,320.6,203,320.3,203z"/>
					</g>
					<g class="st4">
						<path class="st16" d="M334,206.8L334,206.8c0,0.2,0.2,0.4,0.4,0.4h3.9l0.3-3.9c0-0.2-0.2-0.4-0.4-0.4l0,0
							c-0.2,0-0.5,0.2-0.5,0.4l-0.3,3h-3C334.2,206.4,334,206.6,334,206.8z"/>
					</g>
				</g>
			</g>
		</g>
	</g>
</g>
</svg>
