<?xml version="1.0" encoding="utf-8"?>
<!-- Generator: Adobe Illustrator 24.2.3, SVG Export Plug-In . SVG Version: 6.00 Build 0)  -->
<svg version="1.1" id="Layer_1" xmlns="http://www.w3.org/2000/svg" xmlns:xlink="http://www.w3.org/1999/xlink" x="0px" y="0px"
	 viewBox="0 0 135 40" style="enable-background:new 0 0 135 40;" xml:space="preserve">
<style type="text/css">
	.st0{fill:#FFFFFF;}
	.st1{fill-rule:evenodd;clip-rule:evenodd;}
	.st2{fill:none;}
	.st3{fill:#29CB5E;}
	.st4{fill:#2C9ED8;}
	.st5{fill:#32BAFE;}
	.st6{fill:#D83F21;}
	.st7{fill:#FEAA00;}
	.st8{fill:#FED401;}
</style>
<path class="st0" d="M8,0.8h119c4,0,7.3,3.2,7.3,7.3v24c0,4-3.2,7.3-7.3,7.3H8c-4,0-7.3-3.2-7.3-7.3V8C0.8,4,4,0.8,8,0.8z"/>
<path class="st1" d="M51.4,31.5h2.3l-4.3-13.3h-2.6l-4.3,13.3h2.2l1.2-3.9h4.3L51.4,31.5z M48.6,22.5l1.1,3.5h-3.6l1.1-3.5
	c0.3-1.1,0.5-1.9,0.6-2.5h0C48.3,21.3,48.5,22.1,48.6,22.5z"/>
<path class="st1" d="M63.3,30.5c0.9-0.9,1.3-2.2,1.3-3.9c0-1.5-0.4-2.6-1.1-3.5c-0.8-0.9-1.7-1.3-2.8-1.3c-1.4,0-2.5,0.6-3.2,1.7h0
	l-0.1-1.5h-1.9c0.1,1.1,0.1,2.1,0.1,3.2v10.3h2.1v-5.1h0c0.6,0.9,1.5,1.4,2.7,1.4C61.6,31.7,62.5,31.3,63.3,30.5z M61.9,24.4
	c0.4,0.6,0.6,1.4,0.6,2.3c0,1-0.2,1.8-0.7,2.4c-0.4,0.6-1.1,0.9-1.9,0.9c-0.7,0-1.2-0.2-1.7-0.7c-0.4-0.5-0.6-1.1-0.6-1.8V26
	c0-0.2,0-0.4,0.1-0.6c0.1-0.6,0.4-1,0.8-1.4c0.4-0.3,0.9-0.5,1.4-0.5C60.8,23.4,61.4,23.7,61.9,24.4z"/>
<path class="st1" d="M74.4,30.5c0.9-0.9,1.3-2.2,1.3-3.9c0-1.5-0.4-2.6-1.1-3.5c-0.8-0.9-1.7-1.3-2.8-1.3c-1.4,0-2.5,0.6-3.2,1.7h0
	l-0.1-1.5h-1.9c0.1,1.1,0.1,2.1,0.1,3.2v10.3h2.1v-5.1h0c0.6,0.9,1.5,1.4,2.7,1.4C72.6,31.7,73.6,31.3,74.4,30.5z M72.9,24.4
	c0.4,0.6,0.6,1.4,0.6,2.3c0,1-0.2,1.8-0.7,2.4C72.4,29.7,71.8,30,71,30c-0.7,0-1.2-0.2-1.7-0.7c-0.4-0.5-0.6-1.1-0.6-1.8V26
	c0-0.2,0-0.4,0.1-0.6c0.1-0.6,0.4-1,0.8-1.4c0.4-0.3,0.9-0.5,1.4-0.5C71.8,23.4,72.4,23.7,72.9,24.4z"/>
<path class="st1" d="M88,27.8c0,1.1-0.4,2.1-1.2,2.8c-0.9,0.8-2.1,1.2-3.6,1.2c-1.4,0-2.6-0.3-3.4-0.8l0.5-1.8
	c0.9,0.6,2,0.9,3.1,0.9c0.8,0,1.4-0.2,1.9-0.5c0.4-0.4,0.7-0.8,0.7-1.5c0-0.5-0.2-1-0.6-1.4c-0.4-0.4-1-0.7-1.8-1
	c-2.3-0.9-3.5-2.1-3.5-3.8c0-1.1,0.4-2,1.2-2.7c0.8-0.7,1.9-1,3.3-1c1.2,0,2.2,0.2,3,0.6L87,20.4c-0.8-0.4-1.6-0.6-2.5-0.6
	c-0.8,0-1.3,0.2-1.8,0.6c-0.4,0.3-0.5,0.7-0.5,1.2c0,0.5,0.2,1,0.6,1.3c0.4,0.3,1,0.7,1.9,1c1.1,0.5,2,1,2.5,1.6
	C87.8,26.1,88,26.9,88,27.8z"/>
<path class="st1" d="M95.1,23.5h-2.3v4.7c0,1.2,0.4,1.8,1.2,1.8c0.4,0,0.7,0,0.9-0.1l0.1,1.6c-0.4,0.2-1,0.2-1.7,0.2
	c-0.8,0-1.5-0.3-2-0.8c-0.5-0.5-0.7-1.4-0.7-2.6v-4.8h-1.4v-1.6h1.4v-1.8l2.1-0.6v2.4h2.3V23.5z"/>
<path class="st1" d="M104.4,30.3c0.8-0.9,1.3-2.2,1.3-3.6c0-1.4-0.4-2.6-1.2-3.5c-0.9-0.9-2-1.4-3.4-1.4c-1.5,0-2.6,0.5-3.5,1.4
	c-0.9,0.9-1.3,2.2-1.3,3.7c0,1.4,0.4,2.6,1.3,3.5c0.8,0.9,2,1.4,3.4,1.4C102.4,31.7,103.5,31.2,104.4,30.3z M102.9,24.4
	c0.4,0.6,0.6,1.4,0.6,2.3c0,0.9-0.2,1.7-0.6,2.3c-0.5,0.8-1.1,1.2-1.9,1.2c-0.8,0-1.5-0.4-1.9-1.1c-0.4-0.6-0.6-1.4-0.6-2.3
	c0-0.9,0.2-1.7,0.6-2.3c0.4-0.8,1.1-1.1,2-1.1C101.8,23.3,102.5,23.7,102.9,24.4z"/>
<path class="st1" d="M112.6,23.8c-0.2,0-0.4-0.1-0.7-0.1c-0.8,0-1.3,0.3-1.7,0.9c-0.4,0.5-0.5,1.1-0.5,1.9v5h-2.1l0-6.6
	c0-1.1,0-2.1-0.1-3h1.9l0.1,1.8h0.1c0.2-0.6,0.6-1.1,1.1-1.5c0.5-0.3,1-0.5,1.5-0.5c0.2,0,0.4,0,0.5,0V23.8z"/>
<path class="st1" d="M122.1,27.2c0.1-0.3,0.1-0.6,0.1-1c0-1.2-0.3-2.2-0.8-3c-0.7-1-1.8-1.5-3.1-1.5c-1.4,0-2.5,0.5-3.4,1.5
	c-0.8,1-1.2,2.2-1.2,3.6c0,1.5,0.4,2.6,1.3,3.5c0.8,0.9,2,1.3,3.5,1.3c1.2,0,2.3-0.2,3.2-0.6l-0.3-1.5c-0.8,0.3-1.6,0.5-2.6,0.5
	c-0.9,0-1.6-0.2-2.1-0.7c-0.6-0.5-0.9-1.2-0.9-2.2H122.1z M119.7,24.1c0.3,0.5,0.4,1,0.4,1.6v0h-4.4c0.1-0.6,0.3-1.2,0.6-1.7
	c0.4-0.6,1-0.9,1.7-0.9C118.8,23.2,119.3,23.5,119.7,24.1z"/>
<g>
	<path class="st3" d="M11,10.2c0.1-0.1,0.3-0.1,0.4-0.2c0.2,0,0.3,0,0.5,0c0.8,0.3,1.6,0.8,2.4,1.3c3,1.7,6,3.3,9,5
		c0.1,0,0.1,0.1,0.2,0.1c-1,1-2,2-3,3c0,0-0.1,0-0.1,0.1c0,0,0,0,0,0c0,0-0.1-0.1-0.1-0.1c-3-3-6-6-9-9C11.1,10.3,11,10.3,11,10.2z"
		/>
	<path class="st4" d="M20.2,19.5C20.2,19.5,20.3,19.5,20.2,19.5C20.3,19.5,20.3,19.5,20.2,19.5c0,0.1,0,0.1-0.1,0.1
		c-3,3-6.1,6.1-9.1,9.1c0,0-0.1,0.1-0.1,0.1c-0.5-0.2-0.7-0.7-0.7-1.2c0-2.7,0-5.4,0-8c0,0,0-0.1,0-0.1c3.3,0,6.5,0,9.8,0
		C20.1,19.5,20.2,19.5,20.2,19.5z"/>
	<path class="st5" d="M20.2,19.5c0,0.1-0.1,0-0.2,0c-3.3,0-6.5,0-9.8,0c0-2.7,0-5.4,0-8.2c0-0.5,0.2-0.9,0.7-1.1
		c0,0,0.1,0.1,0.1,0.1c3,3,6,6,9,9C20.2,19.4,20.2,19.4,20.2,19.5z"/>
	<path class="st6" d="M11,28.8c0,0,0.1-0.1,0.1-0.1c3-3,6.1-6.1,9.1-9.1c0,0,0.1-0.1,0.1-0.1c0,0,0,0,0.1,0c0,0.1,0.1,0.1,0.1,0.2
		c1,1,1.9,1.9,2.9,2.9c-0.7,0.4-1.4,0.8-2.1,1.2c-3,1.7-6,3.3-9,5C11.8,29,11.4,29,11,28.8z"/>
	<path class="st7" d="M23.3,22.6c-1-1-1.9-1.9-2.9-2.9c-0.1-0.1-0.1-0.1-0.1-0.2c0.1-0.1,0.2,0,0.2,0c2.3,0,4.6,0,6.9,0
		c0,0.5-0.2,0.9-0.6,1.1C25.7,21.3,24.5,21.9,23.3,22.6C23.4,22.6,23.4,22.6,23.3,22.6z"/>
	<path class="st8" d="M27.4,19.5c-2.3,0-4.6,0-6.9,0c-0.1,0-0.2,0-0.2,0c0,0,0,0-0.1,0c0,0,0,0,0,0c0,0,0.1,0,0.1-0.1c1-1,2-2,3-3
		c0.4,0.2,0.8,0.4,1.2,0.6c0.8,0.4,1.5,0.8,2.2,1.3C27.2,18.6,27.4,19,27.4,19.5z"/>
</g>
<g>
	<path d="M48.8,13c-0.4,0.2-1.3,0.4-2.2,0.4c-1.1,0-2-0.3-2.6-0.9C43.4,11.9,43,11.1,43,10c0-2.1,1.5-3.5,3.7-3.5
		c0.8,0,1.5,0.2,1.8,0.3l-0.3,1c-0.4-0.2-0.8-0.3-1.5-0.3c-1.4,0-2.4,0.8-2.4,2.4c0,1.5,0.9,2.4,2.3,2.4c0.4,0,0.8-0.1,0.9-0.1v-1.7
		h-1.2v-1h2.4V13z"/>
	<path d="M50.9,11.3c0,0.9,0.7,1.3,1.5,1.3c0.6,0,1-0.1,1.3-0.2l0.2,0.8c-0.4,0.2-1,0.3-1.7,0.3c-1.6,0-2.5-1-2.5-2.5
		c0-1.3,0.8-2.6,2.4-2.6c1.6,0,2.1,1.3,2.1,2.4c0,0.2,0,0.4,0,0.5H50.9z M53,10.4c0-0.4-0.2-1.2-1-1.2c-0.8,0-1.1,0.7-1.1,1.2H53z"
		/>
	<path d="M56.6,7.1v1.4h1.2v0.9h-1.2v2.1c0,0.6,0.2,0.9,0.6,0.9c0.2,0,0.4,0,0.5-0.1l0,0.9c-0.2,0.1-0.5,0.1-0.9,0.1
		c-0.4,0-0.8-0.1-1.1-0.4c-0.3-0.3-0.4-0.7-0.4-1.4V9.4h-0.7V8.5h0.7V7.4L56.6,7.1z"/>
	<path d="M62.1,7.1c0,0.4-0.3,0.7-0.7,0.7c-0.4,0-0.7-0.3-0.7-0.7c0-0.4,0.3-0.7,0.7-0.7C61.8,6.4,62.1,6.7,62.1,7.1z M60.8,13.3
		V8.5H62v4.9H60.8z"/>
	<path d="M64.7,7.1v1.4h1.2v0.9h-1.2v2.1c0,0.6,0.2,0.9,0.6,0.9c0.2,0,0.4,0,0.5-0.1l0,0.9c-0.2,0.1-0.5,0.1-0.9,0.1
		c-0.4,0-0.8-0.1-1.1-0.4c-0.3-0.3-0.4-0.7-0.4-1.4V9.4h-0.7V8.5h0.7V7.4L64.7,7.1z"/>
	<path d="M73.5,10.9c0,1.8-1.3,2.6-2.5,2.6c-1.4,0-2.4-0.9-2.4-2.5c0-1.6,1-2.6,2.5-2.6C72.6,8.4,73.5,9.4,73.5,10.9z M69.9,10.9
		c0,0.9,0.5,1.6,1.2,1.6c0.7,0,1.2-0.7,1.2-1.7c0-0.8-0.3-1.6-1.2-1.6C70.2,9.3,69.9,10.1,69.9,10.9z"/>
	<path d="M74.6,9.9c0-0.6,0-1,0-1.4h1.1l0.1,0.7h0c0.2-0.4,0.7-0.8,1.5-0.8c0.8,0,1.7,0.5,1.7,2.1v2.9h-1.2v-2.7
		c0-0.7-0.3-1.2-0.9-1.2c-0.5,0-0.8,0.4-1,0.7c0,0.1,0,0.3,0,0.4v2.9h-1.2V9.9z"/>
</g>
</svg>
